{
.appVersion = "1286";
DisplayStrings = (
"Mu/lcommaaccent/kcommaaccent a hipiji m/emacron/gcommaaccent ina br/imacron vi nogar/scaron ot celof/amacron na /zcaron/ncommaaccent audz/emacron j/ccaron/umacron sku.  t\012\012/Iogonek lintkdama fechtuotojo \012/scaron paga sublyk/ccaron iojusi pragr/eogonek/zcaron/edotaccent  apval/uogonek  arb/umacron z/aogonek \012\012Kæmi ný öxi hér, ykist þjófum nú bæði víl og ádrepa. Svo hölt, yxna kýr þegði jú um dóp í fé á bæ. oa\012 Þú dazt á hnéð í vök og yfir blóm sexý \012\012ADREPA SVO HÖLTÅ\012\012PACK MY BOX WITH FIVE DOZEN LIQUOR JUGS\012ATHEN ZOMBIES ARRIVE\012QUICKLY FAX JUDGE PAT.\012\012when zombies arrive,\012quickly fax judge pat.\012\012GorgeouAG",

glyphs = (
{
glyphname = A;
lastChange = "2020-01-22 16:46:24 +0000";
layers = (
{
anchors = (
{
name = bottom;
position = "{587, 0}";
},
{
name = ogonek;
position = "{1051, 0}";
},
{
name = top;
position = "{587, 1475}";
}
);
layerId = "A1A0948C-E637-4A65-8CCC-05505AD98C44";
paths = (
{
closed = 1;
nodes = (
"590 1449 LINE",
"588 1449 LINE",
"1017 0 LINE",
"1051 0 LINE",
"610 1482 LINE",
"569 1482 LINE",
"125 0 LINE",
"159 0 LINE"
);
},
{
closed = 1;
nodes = (
"281 451 LINE",
"898 451 LINE",
"898 479 LINE",
"281 479 LINE"
);
}
);
width = 1230;
},
{
anchors = (
{
name = bottom;
position = "{719, 0}";
},
{
name = ogonek;
position = "{1372, 0}";
},
{
name = top;
position = "{721, 1475}";
}
);
layerId = "584F9D0D-8480-40C6-ABEA-8DD6EE64252D";
paths = (
{
closed = 1;
nodes = (
"731 1244 LINE",
"711 1244 LINE",
"959 0 LINE",
"1372 0 LINE",
"1031 1475 LINE",
"410 1475 LINE",
"67 0 LINE",
"480 0 LINE"
);
},
{
closed = 1;
nodes = (
"357 330 LINE",
"1085 330 LINE",
"1085 613 LINE",
"357 613 LINE"
);
}
);
width = 1452;
},
{
anchors = (
{
name = bottom;
position = "{613.132, 0}";
},
{
name = ogonek;
position = "{1265, 0}";
},
{
name = top;
position = "{926.653, 1475}";
}
);
layerId = "3FDD6C00-F7FD-4E85-84B0-0136AF7D7529";
paths = (
{
closed = 1;
nodes = (
"896 1244 LINE",
"876 1244 LINE",
"859 0 LINE",
"1265 0 LINE",
"1238 1475 LINE",
"617 1475 LINE",
"-40 0 LINE",
"380 0 LINE"
);
},
{
closed = 1;
nodes = (
"320 330 LINE",
"1048 330 LINE",
"1109 613 LINE",
"381 613 LINE"
);
}
);
width = 1452;
},
{
anchors = (
{
name = bottom;
position = "{472, 0}";
},
{
name = ogonek;
position = "{931, 0}";
},
{
name = top;
position = "{785, 1475}";
}
);
layerId = "2503C51C-5A6C-4B2C-A968-78FEA18C2585";
paths = (
{
closed = 1;
nodes = (
"780 1449 LINE",
"778 1449 LINE",
"899 0 LINE",
"931 0 LINE",
"806 1482 LINE",
"765 1482 LINE",
"5 0 LINE",
"41 0 LINE"
);
},
{
closed = 1;
nodes = (
"259 451 LINE",
"876 451 LINE",
"882 479 LINE",
"265 479 LINE"
);
}
);
width = 1230;
}
);
leftKerningGroup = A;
note = A;
rightKerningGroup = A;
unicode = 0041;
},
{
glyphname = AE;
lastChange = "2020-01-24 14:35:47 +0000";
layers = (
{
components = (
{
name = E;
transform = "{1, 0, 0, 1, 810, 0}";
}
);
layerId = "A1A0948C-E637-4A65-8CCC-05505AD98C44";
paths = (
{
closed = 1;
nodes = (
"95 0 LINE",
"367 461 LINE",
"934 461 LINE",
"934 0 LINE",
"956 0 LINE",
"956 1475 LINE",
"931 1475 LINE",
"59 0 LINE"
);
},
{
closed = 1;
nodes = (
"934 1416 LINE",
"934 490 LINE",
"383 490 LINE"
);
}
);
width = 1846;
},
{
components = (
{
name = E;
transform = "{1, 0, 0, 1, 929, 0}";
}
);
layerId = "584F9D0D-8480-40C6-ABEA-8DD6EE64252D";
paths = (
{
closed = 1;
nodes = (
"469 0 LINE",
"595 199 LINE",
"1021 199 LINE",
"1021 0 LINE",
"1422 0 LINE",
"1422 1475 LINE",
"959 1475 LINE",
"22 0 LINE"
);
},
{
closed = 1;
nodes = (
"1023 951 LINE",
"1023 468 LINE",
"735 468 LINE"
);
}
);
width = 2088;
},
{
components = (
{
name = E;
transform = "{1, 0, 0, 1, 910, 0}";
}
);
layerId = "3FDD6C00-F7FD-4E85-84B0-0136AF7D7529";
paths = (
{
closed = 1;
nodes = (
"357 0 LINE",
"523 199 LINE",
"933 199 LINE",
"886 0 LINE",
"1290 0 LINE",
"1602 1475 LINE",
"1113 1475 LINE",
"-98 0 LINE"
);
},
{
closed = 1;
nodes = (
"1109 951 LINE",
"989 468 LINE",
"717 468 LINE"
);
}
);
width = 2069;
},
{
components = (
{
name = E;
transform = "{1, 0, 0, 1, 788, 0}";
}
);
layerId = "2503C51C-5A6C-4B2C-A968-78FEA18C2585";
paths = (
{
closed = 1;
nodes = (
"-21 0 LINE",
"345 461 LINE",
"892 461 LINE",
"791 0 LINE",
"823 0 LINE",
"1136 1475 LINE",
"1090 1475 LINE",
"-57 0 LINE"
);
},
{
closed = 1;
nodes = (
"1105 1447 LINE",
"896 490 LINE",
"366 490 LINE"
);
}
);
width = 1824;
}
);
leftKerningGroup = A;
rightKerningGroup = E;
rightMetricsKey = E;
unicode = 00C6;
},
{
glyphname = B;
lastChange = "2020-01-24 14:17:38 +0000";
layers = (
{
anchors = (
{
name = bottom;
position = "{510, 0}";
},
{
name = top;
position = "{510, 1475}";
}
);
layerId = "A1A0948C-E637-4A65-8CCC-05505AD98C44";
paths = (
{
closed = 1;
nodes = (
"130 1475 LINE",
"130 0 LINE",
"513 0 LINE SMOOTH",
"788 0 OFFCURVE",
"932 122 OFFCURVE",
"932 398 CURVE SMOOTH",
"932 670 OFFCURVE",
"742 775 OFFCURVE",
"544 779 CURVE",
"720 784 OFFCURVE",
"904 893 OFFCURVE",
"904 1130 CURVE SMOOTH",
"904 1390 OFFCURVE",
"764 1475 OFFCURVE",
"527 1475 CURVE SMOOTH"
);
},
{
closed = 1;
nodes = (
"163 1447 LINE",
"524 1447 LINE SMOOTH",
"740 1447 OFFCURVE",
"870 1379 OFFCURVE",
"870 1130 CURVE SMOOTH",
"870 892 OFFCURVE",
"691 791 OFFCURVE",
"421 791 CURVE SMOOTH",
"163 791 LINE"
);
},
{
closed = 1;
nodes = (
"163 28 LINE",
"163 763 LINE",
"420 763 LINE SMOOTH",
"653 763 OFFCURVE",
"898 710 OFFCURVE",
"898 398 CURVE SMOOTH",
"898 131 OFFCURVE",
"761 28 OFFCURVE",
"508 28 CURVE SMOOTH"
);
}
);
width = 1118;
},
{
anchors = (
{
name = bottom;
position = "{673, 0}";
},
{
name = top;
position = "{673, 1475}";
}
);
layerId = "584F9D0D-8480-40C6-ABEA-8DD6EE64252D";
paths = (
{
closed = 1;
nodes = (
"94 1475 LINE",
"94 0 LINE",
"739 0 LINE SMOOTH",
"1123 0 OFFCURVE",
"1242 195 OFFCURVE",
"1242 424 CURVE SMOOTH",
"1242 674 OFFCURVE",
"1060 761 OFFCURVE",
"936 765 CURVE",
"1060 776 OFFCURVE",
"1203 904 OFFCURVE",
"1203 1115 CURVE SMOOTH",
"1203 1321 OFFCURVE",
"1070 1475 OFFCURVE",
"739 1475 CURVE SMOOTH"
);
},
{
closed = 1;
nodes = (
"498 1185 LINE",
"634 1185 LINE SMOOTH",
"754 1185 OFFCURVE",
"801 1127 OFFCURVE",
"801 1045 CURVE SMOOTH",
"801 966 OFFCURVE",
"754 898 OFFCURVE",
"634 898 CURVE SMOOTH",
"498 898 LINE"
);
},
{
closed = 1;
nodes = (
"498 291 LINE",
"498 610 LINE",
"660 610 LINE SMOOTH",
"780 610 OFFCURVE",
"831 529 OFFCURVE",
"831 449 CURVE SMOOTH",
"831 367 OFFCURVE",
"780 291 OFFCURVE",
"660 291 CURVE SMOOTH"
);
}
);
width = 1345;
},
{
anchors = (
{
name = bottom;
position = "{512, 0}";
},
{
name = top;
position = "{826, 1475}";
}
);
layerId = "3FDD6C00-F7FD-4E85-84B0-0136AF7D7529";
paths = (
{
closed = 1;
nodes = (
"290 1475 LINE",
"-24 0 LINE",
"621 0 LINE SMOOTH",
"1005 0 OFFCURVE",
"1225 233 OFFCURVE",
"1225 507 CURVE SMOOTH",
"1225 648 OFFCURVE",
"1104 761 OFFCURVE",
"981 765 CURVE",
"1107 776 OFFCURVE",
"1333 927 OFFCURVE",
"1333 1202 CURVE SMOOTH",
"1333 1333 OFFCURVE",
"1266 1475 OFFCURVE",
"935 1475 CURVE SMOOTH"
);
},
{
closed = 1;
nodes = (
"632 1185 LINE",
"768 1185 LINE SMOOTH",
"888 1185 OFFCURVE",
"910 1140 OFFCURVE",
"910 1078 CURVE SMOOTH",
"910 977 OFFCURVE",
"827 898 OFFCURVE",
"707 898 CURVE SMOOTH",
"571 898 LINE"
);
},
{
closed = 1;
nodes = (
"442 291 LINE",
"510 610 LINE",
"672 610 LINE SMOOTH",
"792 610 OFFCURVE",
"813 548 OFFCURVE",
"813 488 CURVE SMOOTH",
"813 374 OFFCURVE",
"724 291 OFFCURVE",
"604 291 CURVE SMOOTH"
);
}
);
width = 1345;
},
{
anchors = (
{
name = bottom;
position = "{378, 0}";
},
{
name = top;
position = "{692, 1475}";
}
);
layerId = "2503C51C-5A6C-4B2C-A968-78FEA18C2585";
paths = (
{
closed = 1;
nodes = (
"327 1475 LINE",
"13 0 LINE",
"396 0 LINE SMOOTH",
"671 0 OFFCURVE",
"914 147 OFFCURVE",
"914 498 CURVE SMOOTH",
"914 668 OFFCURVE",
"787 774 OFFCURVE",
"594 778 CURVE",
"781 780 OFFCURVE",
"1044 912 OFFCURVE",
"1044 1219 CURVE SMOOTH",
"1044 1392 OFFCURVE",
"961 1475 OFFCURVE",
"724 1475 CURVE SMOOTH"
);
},
{
closed = 1;
nodes = (
"354 1447 LINE",
"715 1447 LINE SMOOTH",
"931 1447 OFFCURVE",
"1010 1381 OFFCURVE",
"1010 1219 CURVE SMOOTH",
"1010 916 OFFCURVE",
"745 791 OFFCURVE",
"472 791 CURVE SMOOTH",
"214 791 LINE"
);
},
{
closed = 1;
nodes = (
"52 28 LINE",
"208 763 LINE",
"465 763 LINE SMOOTH",
"722 763 OFFCURVE",
"880 689 OFFCURVE",
"880 497 CURVE SMOOTH",
"880 166 OFFCURVE",
"650 28 OFFCURVE",
"397 28 CURVE SMOOTH"
);
}
);
width = 1118;
}
);
leftKerningGroup = H;
note = B;
rightKerningGroup = B;
unicode = 0042;
},
{
glyphname = C;
lastChange = "2020-01-24 14:15:48 +0000";
layers = (
{
anchors = (
{
name = bottom;
position = "{567, 0}";
},
{
name = top;
position = "{556, 1475}";
}
);
layerId = "A1A0948C-E637-4A65-8CCC-05505AD98C44";
paths = (
{
closed = 1;
nodes = (
"981 474 LINE",
"981 259 OFFCURVE",
"830 13 OFFCURVE",
"568 13 CURVE SMOOTH",
"265 13 OFFCURVE",
"103 308 OFFCURVE",
"103 737 CURVE SMOOTH",
"103 1166 OFFCURVE",
"265 1461 OFFCURVE",
"568 1461 CURVE SMOOTH",
"830 1461 OFFCURVE",
"981 1215 OFFCURVE",
"981 1000 CURVE",
"1014 1000 LINE",
"1014 1205 OFFCURVE",
"868 1489 OFFCURVE",
"568 1489 CURVE SMOOTH",
"238 1489 OFFCURVE",
"69 1182 OFFCURVE",
"69 737 CURVE SMOOTH",
"69 292 OFFCURVE",
"238 -15 OFFCURVE",
"568 -15 CURVE SMOOTH",
"868 -15 OFFCURVE",
"1014 266 OFFCURVE",
"1014 474 CURVE"
);
}
);
width = 1192;
},
{
anchors = (
{
name = bottom;
position = "{690, 0}";
},
{
name = top;
position = "{697, 1475}";
}
);
layerId = "584F9D0D-8480-40C6-ABEA-8DD6EE64252D";
paths = (
{
closed = 1;
nodes = (
"924 577 LINE",
"924 423 OFFCURVE",
"851 275 OFFCURVE",
"699 275 CURVE SMOOTH",
"543 275 OFFCURVE",
"450 419 OFFCURVE",
"450 738 CURVE SMOOTH",
"450 1057 OFFCURVE",
"543 1198 OFFCURVE",
"699 1198 CURVE SMOOTH",
"851 1198 OFFCURVE",
"924 1052 OFFCURVE",
"924 898 CURVE",
"1329 898 LINE",
"1329 1167 OFFCURVE",
"1138 1489 OFFCURVE",
"699 1489 CURVE SMOOTH",
"254 1489 OFFCURVE",
"40 1158 OFFCURVE",
"40 738 CURVE SMOOTH",
"40 318 OFFCURVE",
"254 -15 OFFCURVE",
"699 -15 CURVE SMOOTH",
"1138 -15 OFFCURVE",
"1329 308 OFFCURVE",
"1329 577 CURVE"
);
}
);
width = 1399;
},
{
anchors = (
{
name = bottom;
position = "{580, 0}";
},
{
name = top;
position = "{890, 1475}";
}
);
layerId = "3FDD6C00-F7FD-4E85-84B0-0136AF7D7529";
paths = (
{
closed = 1;
nodes = (
"924 577 LINE",
"891 423 OFFCURVE",
"787 275 OFFCURVE",
"635 275 CURVE SMOOTH",
"489 275 OFFCURVE",
"456 381 OFFCURVE",
"456 529 CURVE SMOOTH",
"456 982 OFFCURVE",
"675 1198 OFFCURVE",
"831 1198 CURVE SMOOTH",
"993 1198 OFFCURVE",
"1002 1042 OFFCURVE",
"1002 898 CURVE",
"1407 898 LINE",
"1407 1157 OFFCURVE",
"1305 1489 OFFCURVE",
"873 1489 CURVE SMOOTH",
"411 1489 OFFCURVE",
"48 1148 OFFCURVE",
"48 530 CURVE SMOOTH",
"48 287 OFFCURVE",
"145 -15 OFFCURVE",
"580 -15 CURVE SMOOTH",
"1029 -15 OFFCURVE",
"1272 308 OFFCURVE",
"1329 577 CURVE"
);
}
);
width = 1397;
},
{
anchors = (
{
name = bottom;
position = "{462, 0}";
},
{
name = top;
position = "{766, 1475}";
}
);
layerId = "2503C51C-5A6C-4B2C-A968-78FEA18C2585";
paths = (
{
closed = 1;
nodes = (
"966 474 LINE",
"920 259 OFFCURVE",
"718 13 OFFCURVE",
"456 13 CURVE SMOOTH",
"153 13 OFFCURVE",
"111 266 OFFCURVE",
"111 491 CURVE SMOOTH",
"111 971 OFFCURVE",
"389 1461 OFFCURVE",
"774 1461 CURVE SMOOTH",
"1074 1461 OFFCURVE",
"1078 1124 OFFCURVE",
"1078 1000 CURVE",
"1111 1000 LINE",
"1111 1114 OFFCURVE",
"1111 1489 OFFCURVE",
"779 1489 CURVE SMOOTH",
"349 1489 OFFCURVE",
"77 977 OFFCURVE",
"77 491 CURVE SMOOTH",
"77 260 OFFCURVE",
"125 -15 OFFCURVE",
"455 -15 CURVE SMOOTH",
"755 -15 OFFCURVE",
"955 266 OFFCURVE",
"999 474 CURVE"
);
}
);
width = 1189;
}
);
leftKerningGroup = O;
note = C;
rightKerningGroup = O;
unicode = 0043;
},
{
glyphname = D;
lastChange = "2020-01-24 14:17:25 +0000";
layers = (
{
anchors = (
{
name = bottom;
position = "{508, 0}";
},
{
name = center;
position = "{508, 738}";
},
{
name = top;
position = "{508, 1475}";
}
);
layerId = "A1A0948C-E637-4A65-8CCC-05505AD98C44";
paths = (
{
closed = 1;
nodes = (
"383 0 LINE SMOOTH",
"766 0 OFFCURVE",
"982 259 OFFCURVE",
"982 736 CURVE SMOOTH",
"982 1213 OFFCURVE",
"766 1475 OFFCURVE",
"383 1475 CURVE SMOOTH",
"101 1475 LINE",
"101 0 LINE"
);
},
{
closed = 1;
nodes = (
"134 1447 LINE",
"384 1447 LINE SMOOTH",
"748 1447 OFFCURVE",
"949 1185 OFFCURVE",
"949 736 CURVE SMOOTH",
"949 287 OFFCURVE",
"748 28 OFFCURVE",
"384 28 CURVE SMOOTH",
"134 28 LINE"
);
}
);
width = 1135;
},
{
anchors = (
{
name = bottom;
position = "{615, 0}";
},
{
name = center;
position = "{615, 764}";
},
{
name = top;
position = "{615, 1475}";
}
);
layerId = "584F9D0D-8480-40C6-ABEA-8DD6EE64252D";
paths = (
{
closed = 1;
nodes = (
"634 0 LINE SMOOTH",
"1032 0 OFFCURVE",
"1239 320 OFFCURVE",
"1239 741 CURVE SMOOTH",
"1239 1162 OFFCURVE",
"1032 1475 OFFCURVE",
"634 1475 CURVE SMOOTH",
"66 1475 LINE",
"66 0 LINE"
);
},
{
closed = 1;
nodes = (
"470 1185 LINE",
"570 1185 LINE SMOOTH",
"721 1185 OFFCURVE",
"829 1014 OFFCURVE",
"829 741 CURVE SMOOTH",
"829 468 OFFCURVE",
"721 290 OFFCURVE",
"570 290 CURVE SMOOTH",
"470 290 LINE"
);
}
);
width = 1290;
},
{
anchors = (
{
name = bottom;
position = "{487, 0}";
},
{
name = center;
position = "{644, 738}";
},
{
name = top;
position = "{801, 1475}";
}
);
layerId = "3FDD6C00-F7FD-4E85-84B0-0136AF7D7529";
paths = (
{
closed = 1;
nodes = (
"526 0 LINE SMOOTH",
"924 0 OFFCURVE",
"1307 382 OFFCURVE",
"1307 932 CURVE SMOOTH",
"1307 1185 OFFCURVE",
"1228 1475 OFFCURVE",
"830 1475 CURVE SMOOTH",
"262 1475 LINE",
"-52 0 LINE"
);
},
{
closed = 1;
nodes = (
"604 1185 LINE",
"714 1185 LINE SMOOTH",
"860 1185 OFFCURVE",
"889 1062 OFFCURVE",
"889 911 CURVE SMOOTH",
"889 515 OFFCURVE",
"665 290 OFFCURVE",
"514 290 CURVE SMOOTH",
"414 290 LINE"
);
}
);
width = 1290;
},
{
anchors = (
{
name = bottom;
position = "{390, 0}";
},
{
name = center;
position = "{547, 738}";
},
{
name = top;
position = "{704, 1475}";
}
);
layerId = "2503C51C-5A6C-4B2C-A968-78FEA18C2585";
paths = (
{
closed = 1;
nodes = (
"277 0 LINE SMOOTH",
"660 0 OFFCURVE",
"1054 345 OFFCURVE",
"1054 981 CURVE SMOOTH",
"1054 1240 OFFCURVE",
"964 1475 OFFCURVE",
"581 1475 CURVE SMOOTH",
"299 1475 LINE",
"-15 0 LINE"
);
},
{
closed = 1;
nodes = (
"326 1447 LINE",
"581 1447 LINE SMOOTH",
"945 1447 OFFCURVE",
"1021 1221 OFFCURVE",
"1021 981 CURVE SMOOTH",
"1021 360 OFFCURVE",
"638 28 OFFCURVE",
"274 28 CURVE SMOOTH",
"24 28 LINE"
);
}
);
width = 1135;
}
);
leftKerningGroup = H;
note = D;
rightKerningGroup = O;
unicode = 0044;
},
{
glyphname = Eth;
lastChange = "2020-01-24 19:20:58 +0000";
layers = (
{
components = (
{
name = D;
transform = "{1, 0, 0, 1, 146, 0}";
}
);
layerId = "A1A0948C-E637-4A65-8CCC-05505AD98C44";
paths = (
{
closed = 1;
nodes = (
"532 719 LINE",
"532 745 LINE",
"39 745 LINE",
"39 719 LINE"
);
}
);
width = 1281;
},
{
components = (
{
name = D;
transform = "{1, 0, 0, 1, 15, 0}";
}
);
layerId = "584F9D0D-8480-40C6-ABEA-8DD6EE64252D";
paths = (
{
closed = 1;
nodes = (
"687 610 LINE",
"687 855 LINE",
"-37 855 LINE",
"-37 610 LINE"
);
}
);
width = 1305;
},
{
components = (
{
name = D;
transform = "{1, 0, 0, 1, 29, 0}";
}
);
layerId = "3FDD6C00-F7FD-4E85-84B0-0136AF7D7529";
paths = (
{
closed = 1;
nodes = (
"700 610 LINE",
"746 855 LINE",
"21 855 LINE",
"-24 610 LINE"
);
}
);
width = 1319;
},
{
components = (
{
name = D;
transform = "{1, 0, 0, 1, 163, 0}";
}
);
layerId = "2503C51C-5A6C-4B2C-A968-78FEA18C2585";
paths = (
{
closed = 1;
nodes = (
"567 719 LINE",
"572 745 LINE",
"80 745 LINE",
"76 719 LINE"
);
}
);
width = 1298;
}
);
leftKerningGroup = H;
rightKerningGroup = O;
rightMetricsKey = D;
unicode = 00D0;
},
{
glyphname = E;
lastChange = "2020-01-24 19:43:57 +0000";
layers = (
{
anchors = (
{
name = bottom;
position = "{518, 0}";
},
{
name = ogonek;
position = "{725, 10}";
},
{
name = top;
position = "{488, 1475}";
},
{
name = topleft;
position = "{20, 1475}";
}
);
layerId = "A1A0948C-E637-4A65-8CCC-05505AD98C44";
paths = (
{
closed = 1;
nodes = (
"836 1447 LINE",
"836 1475 LINE",
"121 1475 LINE",
"121 0 LINE",
"836 0 LINE",
"836 28 LINE",
"154 28 LINE",
"154 726 LINE",
"725 726 LINE",
"725 754 LINE",
"154 754 LINE",
"154 1447 LINE"
);
}
);
width = 1036;
},
{
anchors = (
{
name = bottom;
position = "{580, 0}";
},
{
name = ogonek;
position = "{993, 10}";
},
{
name = top;
position = "{580, 1475}";
},
{
name = topleft;
position = "{20, 1475}";
}
);
layerId = "584F9D0D-8480-40C6-ABEA-8DD6EE64252D";
paths = (
{
closed = 1;
nodes = (
"1044 1185 LINE",
"1044 1475 LINE",
"87 1475 LINE",
"87 0 LINE",
"1044 0 LINE",
"1044 290 LINE",
"493 290 LINE",
"493 595 LINE",
"933 595 LINE",
"933 885 LINE",
"493 885 LINE",
"493 1185 LINE"
);
}
);
width = 1159;
},
{
anchors = (
{
name = bottom;
position = "{467.132, 0}";
},
{
name = ogonek;
position = "{847, 10}";
},
{
name = top;
position = "{761, 1475}";
},
{
name = topleft;
position = "{220.653, 1475}";
}
);
layerId = "3FDD6C00-F7FD-4E85-84B0-0136AF7D7529";
paths = (
{
closed = 1;
nodes = (
"1179 1185 LINE",
"1241 1475 LINE",
"284 1475 LINE",
"-30 0 LINE",
"927 0 LINE",
"989 290 LINE",
"438 290 LINE",
"503 595 LINE",
"943 595 LINE",
"1004 885 LINE",
"564 885 LINE",
"628 1185 LINE"
);
}
);
width = 1159;
},
{
anchors = (
{
name = bottom;
position = "{395.132, 0}";
},
{
name = ogonek;
position = "{566, 10}";
},
{
name = top;
position = "{708.653, 1475}";
},
{
name = topleft;
position = "{220.653, 1475}";
}
);
layerId = "2503C51C-5A6C-4B2C-A968-78FEA18C2585";
paths = (
{
closed = 1;
nodes = (
"1027 1447 LINE",
"1033 1475 LINE",
"318 1475 LINE",
"4 0 LINE",
"719 0 LINE",
"725 28 LINE",
"43 28 LINE",
"192 726 LINE",
"763 726 LINE",
"769 754 LINE",
"198 754 LINE",
"345 1447 LINE"
);
}
);
width = 1036;
}
);
leftKerningGroup = H;
note = E;
rightKerningGroup = E;
unicode = 0045;
},
{
glyphname = F;
lastChange = "2020-01-24 14:18:16 +0000";
layers = (
{
anchors = (
{
name = bottom;
position = "{563, 0}";
},
{
name = top;
position = "{563, 1475}";
}
);
layerId = "A1A0948C-E637-4A65-8CCC-05505AD98C44";
paths = (
{
closed = 1;
nodes = (
"856 1447 LINE",
"856 1475 LINE",
"161 1475 LINE",
"161 0 LINE",
"194 0 LINE",
"194 720 LINE",
"767 720 LINE",
"767 748 LINE",
"194 748 LINE",
"194 1447 LINE"
);
}
);
width = 1045;
},
{
anchors = (
{
name = bottom;
position = "{587, 0}";
},
{
name = top;
position = "{587, 1475}";
}
);
layerId = "584F9D0D-8480-40C6-ABEA-8DD6EE64252D";
paths = (
{
closed = 1;
nodes = (
"1073 1185 LINE",
"1073 1475 LINE",
"97 1475 LINE",
"97 0 LINE",
"499 0 LINE",
"499 588 LINE",
"984 588 LINE",
"984 879 LINE",
"499 879 LINE",
"499 1185 LINE"
);
}
);
width = 1174;
},
{
anchors = (
{
name = bottom;
position = "{474.132, 0}";
},
{
name = top;
position = "{787.653, 1475}";
}
);
layerId = "3FDD6C00-F7FD-4E85-84B0-0136AF7D7529";
paths = (
{
closed = 1;
nodes = (
"1193 1185 LINE",
"1250 1475 LINE",
"294 1475 LINE",
"-18 0 LINE",
"383 0 LINE",
"509 588 LINE",
"978 588 LINE",
"1035 879 LINE",
"567 879 LINE",
"638 1185 LINE"
);
}
);
width = 1174;
},
{
anchors = (
{
name = bottom;
position = "{410.132, 0}";
},
{
name = top;
position = "{723.653, 1475}";
}
);
layerId = "2503C51C-5A6C-4B2C-A968-78FEA18C2585";
paths = (
{
closed = 1;
nodes = (
"1036 1447 LINE",
"1042 1475 LINE",
"369 1475 LINE",
"56 0 LINE",
"88 0 LINE",
"241 720 LINE",
"796 720 LINE",
"801 748 LINE",
"245 748 LINE",
"394 1447 LINE"
);
}
);
width = 1045;
}
);
leftKerningGroup = H;
note = F;
rightKerningGroup = F;
unicode = 0046;
},
{
glyphname = G;
lastChange = "2020-01-24 19:39:23 +0000";
layers = (
{
anchors = (
{
name = bottom;
position = "{555, 0}";
},
{
name = top;
position = "{555, 1475}";
}
);
layerId = "A1A0948C-E637-4A65-8CCC-05505AD98C44";
paths = (
{
closed = 1;
nodes = (
"845 -15 OFFCURVE",
"937 138 OFFCURVE",
"961 199 CURVE",
"961 622 LINE",
"604 622 LINE",
"604 593 LINE",
"929 593 LINE",
"929 202 LINE",
"907 146 OFFCURVE",
"814 13 OFFCURVE",
"570 13 CURVE SMOOTH",
"273 13 OFFCURVE",
"108 242 OFFCURVE",
"108 732 CURVE SMOOTH",
"108 1222 OFFCURVE",
"273 1460 OFFCURVE",
"570 1460 CURVE SMOOTH",
"875 1460 OFFCURVE",
"931 1202 OFFCURVE",
"931 1005 CURVE",
"963 1005 LINE",
"963 1220 OFFCURVE",
"900 1489 OFFCURVE",
"570 1489 CURVE SMOOTH",
"255 1489 OFFCURVE",
"74 1252 OFFCURVE",
"74 732 CURVE SMOOTH",
"74 212 OFFCURVE",
"255 -15 OFFCURVE",
"570 -15 CURVE SMOOTH"
);
}
);
width = 1170;
},
{
anchors = (
{
name = bottom;
position = "{697, 0}";
},
{
name = top;
position = "{697, 1475}";
}
);
layerId = "584F9D0D-8480-40C6-ABEA-8DD6EE64252D";
paths = (
{
closed = 1;
nodes = (
"1075 -15 OFFCURVE",
"1280 253 OFFCURVE",
"1308 467 CURVE",
"1308 735 LINE",
"704 735 LINE",
"704 454 LINE",
"921 454 LINE",
"921 459 LINE",
"911 343 OFFCURVE",
"840 275 OFFCURVE",
"703 275 CURVE SMOOTH",
"552 275 OFFCURVE",
"452 385 OFFCURVE",
"452 732 CURVE SMOOTH",
"452 1079 OFFCURVE",
"555 1198 OFFCURVE",
"704 1198 CURVE SMOOTH",
"841 1198 OFFCURVE",
"909 1093 OFFCURVE",
"912 913 CURVE",
"1308 913 LINE",
"1308 1206 OFFCURVE",
"1123 1489 OFFCURVE",
"704 1489 CURVE SMOOTH",
"282 1489 OFFCURVE",
"47 1219 OFFCURVE",
"47 732 CURVE SMOOTH",
"47 245 OFFCURVE",
"278 -15 OFFCURVE",
"703 -15 CURVE SMOOTH"
);
}
);
width = 1393;
},
{
anchors = (
{
name = bottom;
position = "{582.132, 0}";
},
{
name = top;
position = "{895.653, 1475}";
}
);
layerId = "3FDD6C00-F7FD-4E85-84B0-0136AF7D7529";
paths = (
{
closed = 1;
nodes = (
"974 -15 OFFCURVE",
"1221 253 OFFCURVE",
"1290 467 CURVE",
"1348 735 LINE",
"744 735 LINE",
"684 454 LINE",
"901 454 LINE",
"902 459 LINE",
"867 343 OFFCURVE",
"782 275 OFFCURVE",
"645 275 CURVE SMOOTH",
"494 275 OFFCURVE",
"463 381 OFFCURVE",
"463 506 CURVE SMOOTH",
"463 953 OFFCURVE",
"663 1198 OFFCURVE",
"832 1198 CURVE SMOOTH",
"988 1198 OFFCURVE",
"989 1062 OFFCURVE",
"989 913 CURVE",
"1385 913 LINE",
"1385 1206 OFFCURVE",
"1312 1489 OFFCURVE",
"854 1489 CURVE SMOOTH",
"422 1489 OFFCURVE",
"57 1105 OFFCURVE",
"57 506 CURVE SMOOTH",
"57 223 OFFCURVE",
"177 -15 OFFCURVE",
"602 -15 CURVE SMOOTH"
);
}
);
width = 1390;
},
{
anchors = (
{
name = bottom;
position = "{470.132, 0}";
},
{
name = top;
position = "{783.653, 1475}";
}
);
layerId = "2503C51C-5A6C-4B2C-A968-78FEA18C2585";
paths = (
{
closed = 1;
nodes = (
"733 -15 OFFCURVE",
"851 138 OFFCURVE",
"888 199 CURVE",
"978 622 LINE",
"621 622 LINE",
"614 593 LINE",
"939 593 LINE",
"856 202 LINE",
"822 146 OFFCURVE",
"695 13 OFFCURVE",
"451 13 CURVE SMOOTH",
"154 13 OFFCURVE",
"111 250 OFFCURVE",
"111 424 CURVE SMOOTH",
"111 1044 OFFCURVE",
"401 1460 OFFCURVE",
"718 1460 CURVE SMOOTH",
"1009 1460 OFFCURVE",
"1029 1162 OFFCURVE",
"1029 1005 CURVE",
"1061 1005 LINE",
"1061 1180 OFFCURVE",
"1037 1489 OFFCURVE",
"721 1489 CURVE SMOOTH",
"373 1489 OFFCURVE",
"76 1054 OFFCURVE",
"76 422 CURVE SMOOTH",
"76 209 OFFCURVE",
"143 -15 OFFCURVE",
"451 -15 CURVE SMOOTH"
);
}
);
width = 1166;
}
);
leftKerningGroup = O;
note = G;
rightKerningGroup = G;
unicode = 0047;
},
{
glyphname = G.ss01;
lastChange = "2020-01-24 19:38:12 +0000";
layers = (
{
layerId = "A1A0948C-E637-4A65-8CCC-05505AD98C44";
paths = (
{
closed = 1;
nodes = (
"772 -15 OFFCURVE",
"883 122 OFFCURVE",
"908 189 CURVE",
"908 0 LINE",
"940 0 LINE",
"940 653 LINE",
"529 653 LINE",
"529 625 LINE",
"908 625 LINE",
"908 254 LINE",
"876 170 OFFCURVE",
"795 13 OFFCURVE",
"542 13 CURVE SMOOTH",
"250 13 OFFCURVE",
"127 288 OFFCURVE",
"127 738 CURVE SMOOTH",
"127 1188 OFFCURVE",
"250 1460 OFFCURVE",
"548 1460 CURVE SMOOTH",
"864 1460 OFFCURVE",
"911 1211 OFFCURVE",
"911 1005 CURVE",
"943 1005 LINE",
"943 1219 OFFCURVE",
"890 1489 OFFCURVE",
"548 1489 CURVE SMOOTH",
"234 1489 OFFCURVE",
"94 1218 OFFCURVE",
"94 738 CURVE SMOOTH",
"94 258 OFFCURVE",
"234 -15 OFFCURVE",
"543 -15 CURVE SMOOTH"
);
}
);
width = 1170;
},
{
layerId = "584F9D0D-8480-40C6-ABEA-8DD6EE64252D";
paths = (
{
closed = 1;
nodes = (
"846 -15 OFFCURVE",
"972 63 OFFCURVE",
"1011 143 CURVE",
"1032 0 LINE",
"1250 0 LINE",
"1250 769 LINE",
"697 769 LINE",
"697 510 LINE",
"873 510 LINE",
"873 404 LINE",
"856 347 OFFCURVE",
"802 275 OFFCURVE",
"689 275 CURVE SMOOTH",
"566 275 OFFCURVE",
"462 329 OFFCURVE",
"462 732 CURVE SMOOTH",
"462 1113 OFFCURVE",
"561 1198 OFFCURVE",
"684 1198 CURVE SMOOTH",
"803 1198 OFFCURVE",
"864 1115 OFFCURVE",
"864 1003 CURVE",
"1256 1003 LINE",
"1256 1154 OFFCURVE",
"1103 1489 OFFCURVE",
"684 1489 CURVE SMOOTH",
"324 1489 OFFCURVE",
"57 1272 OFFCURVE",
"57 732 CURVE SMOOTH",
"57 192 OFFCURVE",
"324 -15 OFFCURVE",
"679 -15 CURVE SMOOTH"
);
}
);
width = 1393;
},
{
layerId = "3FDD6C00-F7FD-4E85-84B0-0136AF7D7529";
paths = (
{
closed = 1;
nodes = (
"731 -15 OFFCURVE",
"864 63 OFFCURVE",
"920 143 CURVE",
"910 0 LINE",
"1128 0 LINE",
"1292 769 LINE",
"739 769 LINE",
"684 510 LINE",
"860 510 LINE",
"837 404 LINE",
"808 347 OFFCURVE",
"739 275 OFFCURVE",
"626 275 CURVE SMOOTH",
"536 275 OFFCURVE",
"463 304 OFFCURVE",
"463 476 CURVE SMOOTH",
"463 745 OFFCURVE",
"575 1198 OFFCURVE",
"817 1198 CURVE SMOOTH",
"952 1198 OFFCURVE",
"956 1093 OFFCURVE",
"956 1003 CURVE",
"1348 1003 LINE",
"1348 1125 OFFCURVE",
"1328 1489 OFFCURVE",
"849 1489 CURVE SMOOTH",
"346 1489 OFFCURVE",
"65 1023 OFFCURVE",
"65 490 CURVE SMOOTH",
"65 135 OFFCURVE",
"269 -15 OFFCURVE",
"564 -15 CURVE SMOOTH"
);
}
);
width = 1393;
},
{
layerId = "2503C51C-5A6C-4B2C-A968-78FEA18C2585";
paths = (
{
closed = 1;
nodes = (
"656 -15 OFFCURVE",
"792 122 OFFCURVE",
"832 189 CURVE",
"791 0 LINE",
"823 0 LINE",
"962 653 LINE",
"551 653 LINE",
"545 625 LINE",
"924 625 LINE",
"845 254 LINE",
"795 170 OFFCURVE",
"678 13 OFFCURVE",
"428 13 CURVE SMOOTH",
"218 13 OFFCURVE",
"126 155 OFFCURVE",
"126 402 CURVE SMOOTH",
"126 883 OFFCURVE",
"343 1460 OFFCURVE",
"742 1460 CURVE SMOOTH",
"996 1460 OFFCURVE",
"1008 1265 OFFCURVE",
"1008 1005 CURVE",
"1040 1005 LINE",
"1040 1273 OFFCURVE",
"1023 1489 OFFCURVE",
"741 1489 CURVE SMOOTH",
"321 1489 OFFCURVE",
"93 905 OFFCURVE",
"93 402 CURVE SMOOTH",
"93 133 OFFCURVE",
"200 -15 OFFCURVE",
"427 -15 CURVE SMOOTH"
);
}
);
width = 1170;
}
);
leftKerningGroup = O;
rightKerningGroup = H;
},
{
glyphname = H;
lastChange = "2020-01-24 14:19:27 +0000";
layers = (
{
anchors = (
{
name = bottom;
position = "{504, 0}";
},
{
name = center;
position = "{504, 738}";
},
{
name = top;
position = "{504, 1475}";
},
{
name = topleft;
position = "{-20, 1475}";
}
);
layerId = "A1A0948C-E637-4A65-8CCC-05505AD98C44";
paths = (
{
closed = 1;
nodes = (
"845 1475 LINE",
"845 748 LINE",
"156 748 LINE",
"156 1475 LINE",
"123 1475 LINE",
"123 0 LINE",
"156 0 LINE",
"156 719 LINE",
"845 719 LINE",
"845 0 LINE",
"878 0 LINE",
"878 1475 LINE"
);
}
);
width = 1088;
},
{
anchors = (
{
name = bottom;
position = "{689, 0}";
},
{
name = center;
position = "{689, 738}";
},
{
name = top;
position = "{689, 1475}";
},
{
name = topleft;
position = "{20, 1475}";
}
);
layerId = "584F9D0D-8480-40C6-ABEA-8DD6EE64252D";
paths = (
{
closed = 1;
nodes = (
"852 1475 LINE",
"852 879 LINE",
"491 879 LINE",
"491 1475 LINE",
"87 1475 LINE",
"87 0 LINE",
"491 0 LINE",
"491 588 LINE",
"852 588 LINE",
"852 0 LINE",
"1256 0 LINE",
"1256 1475 LINE"
);
}
);
width = 1378;
},
{
anchors = (
{
name = bottom;
position = "{567.132, 0}";
},
{
name = center;
position = "{723.999, 738}";
},
{
name = top;
position = "{880.653, 1475}";
},
{
name = topleft;
position = "{220.653, 1475}";
}
);
layerId = "3FDD6C00-F7FD-4E85-84B0-0136AF7D7529";
paths = (
{
closed = 1;
nodes = (
"1030 1475 LINE",
"901 879 LINE",
"559 879 LINE",
"688 1475 LINE",
"284 1475 LINE",
"-28 0 LINE",
"375 0 LINE",
"502 588 LINE",
"844 588 LINE",
"717 0 LINE",
"1121 0 LINE",
"1433 1475 LINE"
);
}
);
width = 1378;
},
{
anchors = (
{
name = bottom;
position = "{391, 0}";
},
{
name = center;
position = "{548, 738}";
},
{
name = top;
position = "{705, 1475}";
},
{
name = topleft;
position = "{191, 1475}";
}
);
layerId = "2503C51C-5A6C-4B2C-A968-78FEA18C2585";
paths = (
{
closed = 1;
nodes = (
"1022 1475 LINE",
"867 748 LINE",
"198 748 LINE",
"353 1475 LINE",
"320 1475 LINE",
"7 0 LINE",
"40 0 LINE",
"193 719 LINE",
"863 719 LINE",
"710 0 LINE",
"742 0 LINE",
"1055 1475 LINE"
);
}
);
width = 1088;
}
);
leftKerningGroup = H;
note = H;
rightKerningGroup = H;
unicode = 0048;
},
{
glyphname = Hbar;
lastChange = "2020-01-24 19:39:54 +0000";
layers = (
{
components = (
{
name = H;
}
);
layerId = "A1A0948C-E637-4A65-8CCC-05505AD98C44";
paths = (
{
closed = 1;
nodes = (
"931 1143 LINE",
"931 1169 LINE",
"29 1169 LINE",
"29 1143 LINE"
);
}
);
width = 1088;
},
{
components = (
{
name = H;
}
);
layerId = "584F9D0D-8480-40C6-ABEA-8DD6EE64252D";
paths = (
{
closed = 1;
nodes = (
"1332 1040 LINE",
"1332 1285 LINE",
"11 1285 LINE",
"11 1040 LINE"
);
}
);
width = 1378;
},
{
components = (
{
name = H;
}
);
layerId = "3FDD6C00-F7FD-4E85-84B0-0136AF7D7529";
paths = (
{
closed = 1;
nodes = (
"1427 1040 LINE",
"1479 1285 LINE",
"158 1285 LINE",
"106 1040 LINE"
);
}
);
width = 1378;
},
{
components = (
{
name = H;
}
);
layerId = "2503C51C-5A6C-4B2C-A968-78FEA18C2585";
paths = (
{
closed = 1;
nodes = (
"1066 1143 LINE",
"1072 1169 LINE",
"170 1169 LINE",
"164 1143 LINE"
);
}
);
width = 1088;
}
);
leftKerningGroup = H;
rightKerningGroup = H;
unicode = 0126;
},
{
glyphname = I;
lastChange = "2020-01-22 16:57:14 +0000";
layers = (
{
anchors = (
{
name = bottom;
position = "{181, 0}";
},
{
name = ogonek;
position = "{198, 0}";
},
{
name = top;
position = "{182, 1475}";
},
{
name = topleft;
position = "{20, 1475}";
}
);
layerId = "A1A0948C-E637-4A65-8CCC-05505AD98C44";
paths = (
{
closed = 1;
nodes = (
"198 0 LINE",
"198 1475 LINE",
"166 1475 LINE",
"166 0 LINE"
);
}
);
width = 446;
},
{
anchors = (
{
name = bottom;
position = "{332, 0}";
},
{
name = ogonek;
position = "{530, 0}";
},
{
name = top;
position = "{332, 1475}";
},
{
name = topleft;
position = "{20, 1475}";
}
);
layerId = "584F9D0D-8480-40C6-ABEA-8DD6EE64252D";
paths = (
{
closed = 1;
nodes = (
"530 0 LINE",
"530 1475 LINE",
"132 1475 LINE",
"132 0 LINE"
);
}
);
width = 663;
},
{
anchors = (
{
name = bottom;
position = "{215, 0}";
},
{
name = ogonek;
position = "{417, 0}";
},
{
name = top;
position = "{529, 1475}";
},
{
name = topleft;
position = "{220.653, 1475}";
}
);
layerId = "3FDD6C00-F7FD-4E85-84B0-0136AF7D7529";
paths = (
{
closed = 1;
nodes = (
"417 0 LINE",
"729 1475 LINE",
"328 1475 LINE",
"15 0 LINE"
);
}
);
width = 666;
},
{
anchors = (
{
name = bottom;
position = "{68, 0}";
},
{
name = ogonek;
position = "{84, 0}";
},
{
name = top;
position = "{383, 1475}";
},
{
name = topleft;
position = "{220.653, 1475}";
}
);
layerId = "2503C51C-5A6C-4B2C-A968-78FEA18C2585";
paths = (
{
closed = 1;
nodes = (
"84 0 LINE",
"397 1475 LINE",
"365 1475 LINE",
"52 0 LINE"
);
}
);
width = 449;
}
);
leftKerningGroup = H;
note = I;
rightKerningGroup = H;
unicode = 0049;
},
{
glyphname = J;
lastChange = "2020-01-24 14:19:41 +0000";
layers = (
{
anchors = (
{
name = bottom;
position = "{450, 0}";
},
{
name = top;
position = "{450, 1475}";
}
);
layerId = "A1A0948C-E637-4A65-8CCC-05505AD98C44";
paths = (
{
closed = 1;
nodes = (
"716 -15 OFFCURVE",
"805 171 OFFCURVE",
"805 483 CURVE SMOOTH",
"805 1475 LINE",
"773 1475 LINE",
"773 483 LINE SMOOTH",
"773 186 OFFCURVE",
"693 13 OFFCURVE",
"447 13 CURVE SMOOTH",
"197 13 OFFCURVE",
"123 197 OFFCURVE",
"123 472 CURVE SMOOTH",
"123 486 OFFCURVE",
"123 500 OFFCURVE",
"123 514 CURVE",
"92 514 LINE",
"92 498 OFFCURVE",
"92 482 OFFCURVE",
"92 466 CURVE SMOOTH",
"92 166 OFFCURVE",
"181 -15 OFFCURVE",
"447 -15 CURVE SMOOTH"
);
}
);
width = 1067;
},
{
anchors = (
{
name = bottom;
position = "{581, 0}";
},
{
name = top;
position = "{581, 1475}";
}
);
layerId = "584F9D0D-8480-40C6-ABEA-8DD6EE64252D";
paths = (
{
closed = 1;
nodes = (
"1012 -15 OFFCURVE",
"1118 219 OFFCURVE",
"1118 493 CURVE SMOOTH",
"1118 1475 LINE",
"715 1475 LINE",
"715 551 LINE SMOOTH",
"715 418 OFFCURVE",
"710 275 OFFCURVE",
"585 275 CURVE SMOOTH",
"462 275 OFFCURVE",
"447 418 OFFCURVE",
"447 527 CURVE SMOOTH",
"447 540 OFFCURVE",
"447 557 OFFCURVE",
"447 567 CURVE",
"46 567 LINE",
"46 542 OFFCURVE",
"46 517 OFFCURVE",
"46 492 CURVE SMOOTH",
"46 185 OFFCURVE",
"185 -15 OFFCURVE",
"585 -15 CURVE SMOOTH"
);
}
);
width = 1262;
},
{
anchors = (
{
name = bottom;
position = "{511.132, 0}";
},
{
name = top;
position = "{824.653, 1475}";
}
);
layerId = "3FDD6C00-F7FD-4E85-84B0-0136AF7D7529";
paths = (
{
closed = 1;
nodes = (
"901 -15 OFFCURVE",
"1047 219 OFFCURVE",
"1105 493 CURVE SMOOTH",
"1313 1475 LINE",
"910 1475 LINE",
"714 551 LINE SMOOTH",
"686 418 OFFCURVE",
"650 275 OFFCURVE",
"525 275 CURVE SMOOTH",
"447 275 OFFCURVE",
"424 332 OFFCURVE",
"424 402 CURVE SMOOTH",
"424 464 OFFCURVE",
"440 530 OFFCURVE",
"449 567 CURVE",
"48 567 LINE",
"30 495 OFFCURVE",
"11 417 OFFCURVE",
"11 334 CURVE SMOOTH",
"11 119 OFFCURVE",
"148 -15 OFFCURVE",
"474 -15 CURVE SMOOTH"
);
}
);
width = 1262;
},
{
anchors = (
{
name = bottom;
position = "{362, 0}";
},
{
name = top;
position = "{676, 1475}";
}
);
layerId = "2503C51C-5A6C-4B2C-A968-78FEA18C2585";
paths = (
{
closed = 1;
nodes = (
"578 -15 OFFCURVE",
"708 158 OFFCURVE",
"776 481 CURVE SMOOTH",
"986 1475 LINE",
"954 1475 LINE",
"744 485 LINE SMOOTH",
"675 157 OFFCURVE",
"544 13 OFFCURVE",
"322 13 CURVE SMOOTH",
"151 13 OFFCURVE",
"80 102 OFFCURVE",
"80 264 CURVE SMOOTH",
"80 357 OFFCURVE",
"103 456 OFFCURVE",
"117 514 CURVE",
"85 514 LINE",
"73 461 OFFCURVE",
"49 353 OFFCURVE",
"49 263 CURVE SMOOTH",
"49 83 OFFCURVE",
"130 -15 OFFCURVE",
"321 -15 CURVE SMOOTH"
);
}
);
width = 1067;
}
);
leftKerningGroup = J;
note = J;
rightKerningGroup = J;
unicode = 004A;
},
{
glyphname = K;
lastChange = "2020-01-24 14:19:57 +0000";
layers = (
{
anchors = (
{
name = bottom;
position = "{515, 0}";
},
{
name = top;
position = "{515, 1475}";
}
);
layerId = "A1A0948C-E637-4A65-8CCC-05505AD98C44";
paths = (
{
closed = 1;
nodes = (
"838 1475 LINE",
"800 1475 LINE",
"136 621 LINE",
"145 619 LINE",
"145 1475 LINE",
"113 1475 LINE",
"113 0 LINE",
"145 0 LINE",
"145 601 LINE",
"135 575 LINE",
"295 774 LINE",
"277 776 LINE",
"850 0 LINE",
"888 0 LINE",
"298 804 LINE",
"299 778 LINE"
);
}
);
width = 1030;
},
{
anchors = (
{
name = bottom;
position = "{674, 0}";
},
{
name = top;
position = "{674, 1475}";
}
);
layerId = "584F9D0D-8480-40C6-ABEA-8DD6EE64252D";
paths = (
{
closed = 1;
nodes = (
"1326 1475 LINE",
"903 1475 LINE",
"416 769 LINE",
"480 739 LINE",
"480 1475 LINE",
"77 1475 LINE",
"77 0 LINE",
"480 0 LINE",
"480 555 LINE",
"448 304 LINE",
"717 671 LINE",
"544 695 LINE",
"944 0 LINE",
"1382 0 LINE",
"762 1003 LINE",
"750 695 LINE"
);
}
);
width = 1428;
},
{
anchors = (
{
name = bottom;
position = "{601.132, 0}";
},
{
name = top;
position = "{914.653, 1475}";
}
);
layerId = "3FDD6C00-F7FD-4E85-84B0-0136AF7D7529";
paths = (
{
closed = 1;
nodes = (
"1511 1475 LINE",
"1079 1475 LINE",
"435 769 LINE",
"519 739 LINE",
"677 1475 LINE",
"273 1475 LINE",
"-39 0 LINE",
"364 0 LINE",
"481 555 LINE",
"405 304 LINE",
"746 671 LINE",
"599 695 LINE",
"824 0 LINE",
"1245 0 LINE",
"848 1003 LINE",
"783 695 LINE"
);
}
);
width = 1428;
},
{
anchors = (
{
name = bottom;
position = "{392.132, 0}";
},
{
name = top;
position = "{705.653, 1475}";
}
);
layerId = "2503C51C-5A6C-4B2C-A968-78FEA18C2585";
paths = (
{
closed = 1;
nodes = (
"1018 1475 LINE",
"980 1475 LINE",
"144 621 LINE",
"160 619 LINE",
"342 1475 LINE",
"310 1475 LINE",
"-2 0 LINE",
"29 0 LINE",
"156 601 LINE",
"143 575 LINE",
"339 774 LINE",
"325 776 LINE",
"716 0 LINE",
"752 0 LINE",
"348 804 LINE",
"346 778 LINE"
);
}
);
width = 1030;
}
);
leftKerningGroup = H;
note = K;
rightKerningGroup = K;
unicode = 004B;
},
{
glyphname = L;
lastChange = "2020-01-24 14:20:39 +0000";
layers = (
{
anchors = (
{
name = bottom;
position = "{475, 0}";
},
{
name = center;
position = "{475, 738}";
},
{
name = top;
position = "{475, 1475}";
},
{
name = topright;
position = "{770, 1475}";
}
);
layerId = "A1A0948C-E637-4A65-8CCC-05505AD98C44";
paths = (
{
closed = 1;
nodes = (
"770 0 LINE",
"770 28 LINE",
"156 28 LINE",
"156 1475 LINE",
"124 1475 LINE",
"124 0 LINE"
);
}
);
width = 950;
},
{
anchors = (
{
name = bottom;
position = "{565, 0}";
},
{
name = center;
position = "{565, 738}";
},
{
name = top;
position = "{565, 1475}";
},
{
name = topright;
position = "{1010, 1475}";
}
);
layerId = "584F9D0D-8480-40C6-ABEA-8DD6EE64252D";
paths = (
{
closed = 1;
nodes = (
"1017 0 LINE",
"1017 291 LINE",
"491 291 LINE",
"491 1475 LINE",
"87 1475 LINE",
"87 0 LINE"
);
}
);
width = 1129;
},
{
anchors = (
{
name = bottom;
position = "{452.132, 0}";
},
{
name = center;
position = "{608.999, 738}";
},
{
name = top;
position = "{765.653, 1475}";
},
{
name = topright;
position = "{1205, 1475}";
}
);
layerId = "3FDD6C00-F7FD-4E85-84B0-0136AF7D7529";
paths = (
{
closed = 1;
nodes = (
"898 0 LINE",
"960 291 LINE",
"429 291 LINE",
"687 1475 LINE",
"284 1475 LINE",
"-28 0 LINE"
);
}
);
width = 1129;
},
{
anchors = (
{
name = bottom;
position = "{362.132, 0}";
},
{
name = center;
position = "{518.999, 738}";
},
{
name = top;
position = "{675.653, 1475}";
},
{
name = topright;
position = "{970, 1475}";
}
);
layerId = "2503C51C-5A6C-4B2C-A968-78FEA18C2585";
paths = (
{
closed = 1;
nodes = (
"654 0 LINE",
"661 28 LINE",
"44 28 LINE",
"352 1475 LINE",
"321 1475 LINE",
"8 0 LINE"
);
}
);
width = 949;
}
);
leftKerningGroup = H;
note = L;
rightKerningGroup = L;
unicode = 004C;
},
{
glyphname = Lslash;
lastChange = "2020-01-24 19:42:33 +0000";
layers = (
{
components = (
{
name = L;
}
);
layerId = "A1A0948C-E637-4A65-8CCC-05505AD98C44";
paths = (
{
closed = 1;
nodes = (
"401 911 LINE",
"-62 437 LINE",
"-39 417 LINE",
"424 892 LINE"
);
}
);
width = 950;
},
{
components = (
{
name = L;
transform = "{1, 0, 0, 1, 147, 0}";
}
);
layerId = "584F9D0D-8480-40C6-ABEA-8DD6EE64252D";
paths = (
{
closed = 1;
nodes = (
"874 1045 LINE",
"-22 643 LINE",
"108 365 LINE",
"1004 767 LINE"
);
}
);
width = 1276;
},
{
components = (
{
name = L;
transform = "{1, 0, 0, 1, 169, 0}";
}
);
layerId = "3FDD6C00-F7FD-4E85-84B0-0136AF7D7529";
paths = (
{
closed = 1;
nodes = (
"965 1045 LINE",
"0 643 LINE",
"83 365 LINE",
"1045 767 LINE"
);
}
);
width = 1298;
},
{
components = (
{
name = L;
}
);
layerId = "2503C51C-5A6C-4B2C-A968-78FEA18C2585";
paths = (
{
closed = 1;
nodes = (
"411 911 LINE",
"-52 437 LINE",
"-29 417 LINE",
"434 892 LINE"
);
}
);
width = 949;
}
);
leftKerningGroup = H;
rightKerningGroup = L;
rightMetricsKey = L;
unicode = 0141;
},
{
glyphname = M;
lastChange = "2019-12-17 19:59:18 +0000";
layers = (
{
anchors = (
{
name = bottom;
position = "{578, 0}";
},
{
name = top;
position = "{578, 1475}";
}
);
layerId = "A1A0948C-E637-4A65-8CCC-05505AD98C44";
paths = (
{
closed = 1;
nodes = (
"586 28 LINE",
"175 1475 LINE",
"124 1475 LINE",
"124 0 LINE",
"156 0 LINE",
"156 1419 LINE",
"559 0 LINE",
"612 0 LINE",
"1017 1419 LINE",
"1017 0 LINE",
"1049 0 LINE",
"1049 1475 LINE",
"998 1475 LINE"
);
}
);
width = 1290;
},
{
anchors = (
{
name = bottom;
position = "{966, 0}";
},
{
name = top;
position = "{966, 1475}";
}
);
layerId = "584F9D0D-8480-40C6-ABEA-8DD6EE64252D";
paths = (
{
closed = 1;
nodes = (
"960 323 LINE",
"766 1475 LINE",
"95 1475 LINE",
"95 0 LINE",
"499 0 LINE",
"499 1141 LINE",
"718 0 LINE",
"1202 0 LINE",
"1424 1138 LINE",
"1424 0 LINE",
"1827 0 LINE",
"1827 1475 LINE",
"1156 1475 LINE"
);
}
);
width = 1960;
},
{
anchors = (
{
name = bottom;
position = "{846, 0}";
},
{
name = top;
position = "{1154, 1475}";
}
);
layerId = "3FDD6C00-F7FD-4E85-84B0-0136AF7D7529";
paths = (
{
closed = 1;
nodes = (
"871 323 LINE",
"935 1475 LINE",
"271 1475 LINE",
"-43 0 LINE",
"361 0 LINE",
"608 1141 LINE",
"572 0 LINE",
"1056 0 LINE",
"1515 1138 LINE",
"1269 0 LINE",
"1672 0 LINE",
"1986 1475 LINE",
"1307 1475 LINE"
);
}
);
width = 1943;
},
{
anchors = (
{
name = bottom;
position = "{503, 0}";
},
{
name = top;
position = "{754, 1475}";
}
);
layerId = "2503C51C-5A6C-4B2C-A968-78FEA18C2585";
paths = (
{
closed = 1;
nodes = (
"470 28 LINE",
"376 1475 LINE",
"325 1475 LINE",
"11 0 LINE",
"43 0 LINE",
"345 1419 LINE",
"437 0 LINE",
"491 0 LINE",
"1188 1419 LINE",
"886 0 LINE",
"919 0 LINE",
"1233 1475 LINE",
"1179 1475 LINE"
);
}
);
width = 1273;
}
);
leftKerningGroup = M;
note = M;
rightKerningGroup = M;
unicode = 004D;
},
{
glyphname = N;
lastChange = "2020-01-24 14:21:16 +0000";
layers = (
{
anchors = (
{
name = bottom;
position = "{530, 0}";
},
{
name = top;
position = "{530, 1475}";
}
);
layerId = "A1A0948C-E637-4A65-8CCC-05505AD98C44";
paths = (
{
closed = 1;
nodes = (
"145 1456 LINE",
"138 1454 LINE",
"892 0 LINE",
"946 0 LINE",
"946 1475 LINE",
"914 1475 LINE",
"914 17 LINE",
"922 20 LINE",
"165 1475 LINE",
"113 1475 LINE",
"113 0 LINE",
"145 0 LINE"
);
}
);
width = 1155;
},
{
anchors = (
{
name = bottom;
position = "{779, 0}";
},
{
name = top;
position = "{779, 1475}";
}
);
layerId = "584F9D0D-8480-40C6-ABEA-8DD6EE64252D";
paths = (
{
closed = 1;
nodes = (
"490 1395 LINE",
"457 1379 LINE",
"744 0 LINE",
"1425 0 LINE",
"1425 1475 LINE",
"1022 1475 LINE",
"1022 85 LINE",
"1050 101 LINE",
"763 1475 LINE",
"87 1475 LINE",
"87 0 LINE",
"490 0 LINE"
);
}
);
width = 1558;
},
{
anchors = (
{
name = bottom;
position = "{666.132, 0}";
},
{
name = top;
position = "{979.653, 1475}";
}
);
layerId = "3FDD6C00-F7FD-4E85-84B0-0136AF7D7529";
paths = (
{
closed = 1;
nodes = (
"672 1395 LINE",
"635 1379 LINE",
"610 0 LINE",
"1291 0 LINE",
"1605 1475 LINE",
"1202 1475 LINE",
"905 85 LINE",
"936 101 LINE",
"962 1475 LINE",
"285 1475 LINE",
"-29 0 LINE",
"374 0 LINE"
);
}
);
width = 1558;
},
{
anchors = (
{
name = bottom;
position = "{425, 0}";
},
{
name = top;
position = "{739, 1475}";
}
);
layerId = "2503C51C-5A6C-4B2C-A968-78FEA18C2585";
paths = (
{
closed = 1;
nodes = (
"338 1456 LINE",
"331 1454 LINE",
"757 0 LINE",
"811 0 LINE",
"1125 1475 LINE",
"1092 1475 LINE",
"782 17 LINE",
"788 20 LINE",
"362 1475 LINE",
"310 1475 LINE",
"-4 0 LINE",
"28 0 LINE"
);
}
);
width = 1155;
}
);
leftKerningGroup = H;
note = N;
rightKerningGroup = H;
unicode = 004E;
},
{
glyphname = Eng;
lastChange = "2020-01-22 17:01:54 +0000";
layers = (
{
components = (
{
name = N;
}
);
layerId = "A1A0948C-E637-4A65-8CCC-05505AD98C44";
paths = (
{
closed = 1;
nodes = (
"913 -96 LINE SMOOTH",
"913 -224 OFFCURVE",
"890 -409 OFFCURVE",
"658 -409 CURVE SMOOTH",
"617 -409 OFFCURVE",
"578 -402 OFFCURVE",
"560 -396 CURVE",
"560 -424 LINE",
"576 -430 OFFCURVE",
"613 -437 OFFCURVE",
"658 -437 CURVE SMOOTH",
"908 -437 OFFCURVE",
"946 -255 OFFCURVE",
"946 -96 CURVE SMOOTH",
"946 0 LINE",
"913 31 LINE"
);
}
);
width = 1155;
},
{
components = (
{
name = N;
}
);
layerId = "584F9D0D-8480-40C6-ABEA-8DD6EE64252D";
paths = (
{
closed = 1;
nodes = (
"1027 -15 LINE SMOOTH",
"1027 -133 OFFCURVE",
"885 -149 OFFCURVE",
"768 -149 CURVE SMOOTH",
"729 -149 OFFCURVE",
"691 -142 OFFCURVE",
"673 -136 CURVE",
"673 -428 LINE",
"688 -431 OFFCURVE",
"724 -435 OFFCURVE",
"768 -435 CURVE SMOOTH",
"1332 -435 OFFCURVE",
"1425 -241 OFFCURVE",
"1425 -15 CURVE SMOOTH",
"1425 0 LINE",
"1027 44 LINE"
);
}
);
width = 1558;
},
{
components = (
{
name = N;
}
);
layerId = "3FDD6C00-F7FD-4E85-84B0-0136AF7D7529";
paths = (
{
closed = 1;
nodes = (
"891 0 LINE SMOOTH",
"859 -140 OFFCURVE",
"658 -157 OFFCURVE",
"583 -157 CURVE",
"543 -157 OFFCURVE",
"510 -155 OFFCURVE",
"497 -153 CURVE",
"458 -424 LINE",
"483 -429 OFFCURVE",
"532 -435 OFFCURVE",
"573 -435 CURVE SMOOTH",
"1056 -435 OFFCURVE",
"1227 -302 OFFCURVE",
"1284 -33 CURVE SMOOTH",
"1291 0 LINE",
"901 44 LINE"
);
}
);
width = 1540;
},
{
components = (
{
name = N;
}
);
layerId = "2503C51C-5A6C-4B2C-A968-78FEA18C2585";
paths = (
{
closed = 1;
nodes = (
"757 -96 LINE SMOOTH",
"728 -225 OFFCURVE",
"663 -409 OFFCURVE",
"438 -409 CURVE",
"398 -409 OFFCURVE",
"361 -403 OFFCURVE",
"344 -398 CURVE",
"341 -424 LINE",
"355 -430 OFFCURVE",
"389 -437 OFFCURVE",
"434 -437 CURVE",
"675 -437 OFFCURVE",
"756 -268 OFFCURVE",
"791 -98 CURVE SMOOTH",
"811 0 LINE",
"784 23 LINE"
);
}
);
width = 1137;
}
);
leftKerningGroup = Eng;
rightKerningGroup = Eng;
unicode = 014A;
},
{
glyphname = O;
lastChange = "2020-01-24 14:21:58 +0000";
layers = (
{
anchors = (
{
name = bottom;
position = "{552, 0}";
},
{
name = center;
position = "{552, 738}";
},
{
name = ogonek;
position = "{663, 10}";
},
{
name = top;
position = "{552, 1475}";
},
{
name = topleft;
position = "{-24, 1475}";
},
{
name = topright;
position = "{1127, 1475}";
}
);
layerId = "A1A0948C-E637-4A65-8CCC-05505AD98C44";
paths = (
{
closed = 1;
nodes = (
"862 -15 OFFCURVE",
"1031 251 OFFCURVE",
"1031 739 CURVE SMOOTH",
"1031 1228 OFFCURVE",
"860 1489 OFFCURVE",
"552 1489 CURVE SMOOTH",
"245 1489 OFFCURVE",
"73 1228 OFFCURVE",
"73 739 CURVE SMOOTH",
"73 251 OFFCURVE",
"241 -15 OFFCURVE",
"552 -15 CURVE SMOOTH"
);
},
{
closed = 1;
nodes = (
"271 13 OFFCURVE",
"106 279 OFFCURVE",
"106 739 CURVE SMOOTH",
"106 1199 OFFCURVE",
"271 1461 OFFCURVE",
"552 1461 CURVE SMOOTH",
"833 1461 OFFCURVE",
"998 1199 OFFCURVE",
"998 739 CURVE SMOOTH",
"998 280 OFFCURVE",
"836 13 OFFCURVE",
"552 13 CURVE SMOOTH"
);
}
);
width = 1191;
},
{
anchors = (
{
name = bottom;
position = "{702, 0}";
},
{
name = center;
position = "{702, 738}";
},
{
name = ogonek;
position = "{857, 10}";
},
{
name = top;
position = "{702, 1475}";
},
{
name = topleft;
position = "{0, 1475}";
},
{
name = topright;
position = "{1404, 1475}";
}
);
layerId = "584F9D0D-8480-40C6-ABEA-8DD6EE64252D";
paths = (
{
closed = 1;
nodes = (
"1081 -15 OFFCURVE",
"1354 239 OFFCURVE",
"1354 739 CURVE SMOOTH",
"1354 1239 OFFCURVE",
"1089 1489 OFFCURVE",
"702 1489 CURVE SMOOTH",
"316 1489 OFFCURVE",
"50 1239 OFFCURVE",
"50 739 CURVE SMOOTH",
"50 239 OFFCURVE",
"321 -15 OFFCURVE",
"702 -15 CURVE SMOOTH"
);
},
{
closed = 1;
nodes = (
"555 276 OFFCURVE",
"455 359 OFFCURVE",
"455 739 CURVE SMOOTH",
"455 1119 OFFCURVE",
"555 1198 OFFCURVE",
"702 1198 CURVE SMOOTH",
"849 1198 OFFCURVE",
"949 1119 OFFCURVE",
"949 739 CURVE SMOOTH",
"949 360 OFFCURVE",
"850 276 OFFCURVE",
"702 276 CURVE SMOOTH"
);
}
);
width = 1444;
},
{
anchors = (
{
name = bottom;
position = "{579, 0}";
},
{
name = center;
position = "{736, 738}";
},
{
name = ogonek;
position = "{745, 10}";
},
{
name = top;
position = "{893, 1475}";
},
{
name = topleft;
position = "{191, 1475}";
},
{
name = topright;
position = "{1595, 1475}";
}
);
layerId = "3FDD6C00-F7FD-4E85-84B0-0136AF7D7529";
paths = (
{
closed = 1;
nodes = (
"1094 -15 OFFCURVE",
"1413 435 OFFCURVE",
"1413 962 CURVE SMOOTH",
"1413 1313 OFFCURVE",
"1212 1489 OFFCURVE",
"888 1489 CURVE SMOOTH",
"380 1489 OFFCURVE",
"63 1047 OFFCURVE",
"63 518 CURVE SMOOTH",
"63 164 OFFCURVE",
"268 -15 OFFCURVE",
"588 -15 CURVE SMOOTH"
);
},
{
closed = 1;
nodes = (
"529 276 OFFCURVE",
"459 320 OFFCURVE",
"459 488 CURVE SMOOTH",
"459 784 OFFCURVE",
"570 1198 OFFCURVE",
"841 1198 CURVE SMOOTH",
"947 1198 OFFCURVE",
"1018 1157 OFFCURVE",
"1018 990 CURVE SMOOTH",
"1018 695 OFFCURVE",
"902 276 OFFCURVE",
"635 276 CURVE SMOOTH"
);
}
);
width = 1444;
},
{
anchors = (
{
name = bottom;
position = "{434, 0}";
},
{
name = center;
position = "{590, 738}";
},
{
name = ogonek;
position = "{545, 10}";
},
{
name = top;
position = "{747, 1475}";
},
{
name = topleft;
position = "{171, 1475}";
},
{
name = topright;
position = "{1322, 1475}";
}
);
layerId = "2503C51C-5A6C-4B2C-A968-78FEA18C2585";
paths = (
{
closed = 1;
nodes = (
"868 -15 OFFCURVE",
"1105 546 OFFCURVE",
"1105 1041 CURVE SMOOTH",
"1105 1335 OFFCURVE",
"980 1489 OFFCURVE",
"748 1489 CURVE SMOOTH",
"317 1489 OFFCURVE",
"79 930 OFFCURVE",
"79 439 CURVE SMOOTH",
"79 143 OFFCURVE",
"204 -15 OFFCURVE",
"436 -15 CURVE SMOOTH"
);
},
{
closed = 1;
nodes = (
"224 13 OFFCURVE",
"112 166 OFFCURVE",
"112 441 CURVE SMOOTH",
"112 902 OFFCURVE",
"342 1461 OFFCURVE",
"749 1461 CURVE SMOOTH",
"962 1461 OFFCURVE",
"1072 1311 OFFCURVE",
"1072 1038 CURVE SMOOTH",
"1072 572 OFFCURVE",
"848 13 OFFCURVE",
"437 13 CURVE SMOOTH"
);
}
);
width = 1191;
}
);
leftKerningGroup = O;
note = O;
rightKerningGroup = O;
unicode = 004F;
},
{
glyphname = P;
lastChange = "2020-01-24 14:22:11 +0000";
layers = (
{
anchors = (
{
name = bottom;
position = "{513, 0}";
},
{
name = top;
position = "{513, 1475}";
}
);
layerId = "A1A0948C-E637-4A65-8CCC-05505AD98C44";
paths = (
{
closed = 1;
nodes = (
"143 614 LINE",
"436 614 LINE SMOOTH",
"769 614 OFFCURVE",
"906 800 OFFCURVE",
"906 1045 CURVE SMOOTH",
"906 1290 OFFCURVE",
"780 1475 OFFCURVE",
"436 1475 CURVE SMOOTH",
"111 1475 LINE",
"111 0 LINE",
"143 0 LINE"
);
},
{
closed = 1;
nodes = (
"143 1447 LINE",
"427 1447 LINE SMOOTH",
"762 1447 OFFCURVE",
"873 1279 OFFCURVE",
"873 1045 CURVE SMOOTH",
"873 811 OFFCURVE",
"751 642 OFFCURVE",
"427 642 CURVE SMOOTH",
"143 642 LINE"
);
}
);
width = 1025;
},
{
anchors = (
{
name = bottom;
position = "{615, 0}";
},
{
name = top;
position = "{615, 1475}";
}
);
layerId = "584F9D0D-8480-40C6-ABEA-8DD6EE64252D";
paths = (
{
closed = 1;
nodes = (
"478 464 LINE",
"639 464 LINE SMOOTH",
"974 464 OFFCURVE",
"1175 687 OFFCURVE",
"1175 977 CURVE SMOOTH",
"1175 1267 OFFCURVE",
"974 1475 OFFCURVE",
"639 1475 CURVE SMOOTH",
"74 1475 LINE",
"74 0 LINE",
"478 0 LINE"
);
},
{
closed = 1;
nodes = (
"478 1185 LINE",
"588 1185 LINE SMOOTH",
"687 1185 OFFCURVE",
"769 1137 OFFCURVE",
"769 977 CURVE SMOOTH",
"769 817 OFFCURVE",
"687 753 OFFCURVE",
"588 753 CURVE SMOOTH",
"478 753 LINE"
);
}
);
width = 1229;
},
{
anchors = (
{
name = bottom;
position = "{495.132, 0}";
},
{
name = top;
position = "{808.653, 1475}";
}
);
layerId = "3FDD6C00-F7FD-4E85-84B0-0136AF7D7529";
paths = (
{
closed = 1;
nodes = (
"459 464 LINE",
"620 464 LINE SMOOTH",
"986 464 OFFCURVE",
"1273 720 OFFCURVE",
"1273 1076 CURVE SMOOTH",
"1273 1308 OFFCURVE",
"1129 1475 OFFCURVE",
"835 1475 CURVE SMOOTH",
"270 1475 LINE",
"-44 0 LINE",
"360 0 LINE"
);
},
{
closed = 1;
nodes = (
"612 1185 LINE",
"722 1185 LINE SMOOTH",
"805 1185 OFFCURVE",
"865 1144 OFFCURVE",
"865 1041 CURVE SMOOTH",
"865 894 OFFCURVE",
"781 753 OFFCURVE",
"630 753 CURVE SMOOTH",
"520 753 LINE"
);
}
);
width = 1229;
},
{
anchors = (
{
name = bottom;
position = "{393.132, 0}";
},
{
name = top;
position = "{706.653, 1475}";
}
);
layerId = "2503C51C-5A6C-4B2C-A968-78FEA18C2585";
paths = (
{
closed = 1;
nodes = (
"156 614 LINE",
"452 614 LINE SMOOTH",
"796 614 OFFCURVE",
"1021 823 OFFCURVE",
"1021 1157 CURVE SMOOTH",
"1021 1344 OFFCURVE",
"918 1475 OFFCURVE",
"625 1475 CURVE SMOOTH",
"307 1475 LINE",
"-7 0 LINE",
"25 0 LINE"
);
},
{
closed = 1;
nodes = (
"333 1447 LINE",
"617 1447 LINE SMOOTH",
"893 1447 OFFCURVE",
"988 1337 OFFCURVE",
"988 1159 CURVE SMOOTH",
"988 840 OFFCURVE",
"784 642 OFFCURVE",
"452 642 CURVE SMOOTH",
"162 642 LINE"
);
}
);
width = 1025;
}
);
leftKerningGroup = H;
note = P;
rightKerningGroup = P;
unicode = 0050;
},
{
glyphname = Thorn;
lastChange = "2020-01-24 19:45:02 +0000";
layers = (
{
layerId = "A1A0948C-E637-4A65-8CCC-05505AD98C44";
paths = (
{
closed = 1;
nodes = (
"198 0 LINE",
"198 315 LINE",
"539 315 LINE",
"799 315 OFFCURVE",
"908 479 OFFCURVE",
"908 717 CURVE SMOOTH",
"908 725 OFFCURVE",
"908 733 OFFCURVE",
"908 741 CURVE SMOOTH",
"908 979 OFFCURVE",
"799 1143 OFFCURVE",
"539 1143 CURVE",
"198 1143 LINE",
"198 1473 LINE",
"166 1473 LINE",
"166 0 LINE"
);
},
{
closed = 1;
nodes = (
"198 1115 LINE",
"539 1115 LINE",
"765 1115 OFFCURVE",
"878 975 OFFCURVE",
"878 739 CURVE SMOOTH",
"878 732 OFFCURVE",
"878 726 OFFCURVE",
"878 719 CURVE SMOOTH",
"878 483 OFFCURVE",
"765 343 OFFCURVE",
"539 343 CURVE",
"198 343 LINE"
);
}
);
width = 1061;
},
{
layerId = "584F9D0D-8480-40C6-ABEA-8DD6EE64252D";
paths = (
{
closed = 1;
nodes = (
"532 0 LINE",
"532 315 LINE",
"699 315 LINE",
"1033 315 OFFCURVE",
"1199 479 OFFCURVE",
"1199 717 CURVE SMOOTH",
"1199 725 OFFCURVE",
"1199 733 OFFCURVE",
"1199 741 CURVE SMOOTH",
"1199 979 OFFCURVE",
"1033 1143 OFFCURVE",
"699 1143 CURVE",
"532 1143 LINE",
"532 1473 LINE",
"129 1473 LINE",
"129 0 LINE"
);
},
{
closed = 1;
nodes = (
"532 852 LINE",
"677 852 LINE",
"743 852 OFFCURVE",
"798 822 OFFCURVE",
"798 739 CURVE SMOOTH",
"798 732 OFFCURVE",
"798 726 OFFCURVE",
"798 719 CURVE SMOOTH",
"798 636 OFFCURVE",
"743 605 OFFCURVE",
"677 605 CURVE",
"532 605 LINE"
);
}
);
width = 1250;
},
{
layerId = "3FDD6C00-F7FD-4E85-84B0-0136AF7D7529";
paths = (
{
closed = 1;
nodes = (
"419 0 LINE",
"486 315 LINE",
"647 315 LINE",
"979 315 OFFCURVE",
"1177 479 OFFCURVE",
"1227 717 CURVE SMOOTH",
"1238 769 OFFCURVE",
"1243 802 OFFCURVE",
"1243 836 CURVE SMOOTH",
"1243 1023 OFFCURVE",
"1105 1143 OFFCURVE",
"822 1143 CURVE",
"661 1143 LINE",
"731 1473 LINE",
"328 1473 LINE",
"15 0 LINE"
);
},
{
closed = 1;
nodes = (
"604 852 LINE",
"744 852 LINE",
"783 852 OFFCURVE",
"837 835 OFFCURVE",
"837 791 CURVE SMOOTH",
"837 778 OFFCURVE",
"835 763 OFFCURVE",
"826 719 CURVE SMOOTH",
"810 643 OFFCURVE",
"751 605 OFFCURVE",
"682 605 CURVE",
"543 605 LINE"
);
}
);
width = 1230;
},
{
layerId = "2503C51C-5A6C-4B2C-A968-78FEA18C2585";
paths = (
{
closed = 1;
nodes = (
"82 0 LINE",
"147 315 LINE",
"485 315 LINE",
"742 315 OFFCURVE",
"881 477 OFFCURVE",
"931 715 CURVE SMOOTH",
"944 780 OFFCURVE",
"951 827 OFFCURVE",
"951 874 CURVE SMOOTH",
"951 1037 OFFCURVE",
"860 1143 OFFCURVE",
"658 1143 CURVE",
"324 1143 LINE",
"394 1473 LINE",
"363 1473 LINE",
"50 0 LINE"
);
},
{
closed = 1;
nodes = (
"318 1115 LINE",
"656 1115 LINE",
"835 1115 OFFCURVE",
"921 1027 OFFCURVE",
"921 863 CURVE SMOOTH",
"921 823 OFFCURVE",
"916 781 OFFCURVE",
"904 721 CURVE SMOOTH",
"852 485 OFFCURVE",
"711 343 OFFCURVE",
"489 343 CURVE",
"153 343 LINE"
);
}
);
width = 1037;
}
);
leftKerningGroup = H;
note = Thorn;
rightKerningGroup = D;
rightMetricsKey = D;
unicode = 00DE;
},
{
glyphname = Q;
lastChange = "2020-01-24 14:22:42 +0000";
layers = (
{
anchors = (
{
name = bottom;
position = "{547, 0}";
},
{
name = top;
position = "{547, 1475}";
}
);
components = (
{
name = O;
}
);
layerId = "A1A0948C-E637-4A65-8CCC-05505AD98C44";
paths = (
{
closed = 1;
nodes = (
"551 -222 OFFCURVE",
"804 -297 OFFCURVE",
"871 -313 CURVE",
"887 -286 LINE",
"828 -273 OFFCURVE",
"585 -197 OFFCURVE",
"585 0 CURVE",
"551 0 LINE"
);
}
);
width = 1191;
},
{
anchors = (
{
name = bottom;
position = "{706, 0}";
},
{
name = top;
position = "{706, 1475}";
}
);
components = (
{
name = O;
}
);
layerId = "584F9D0D-8480-40C6-ABEA-8DD6EE64252D";
paths = (
{
closed = 1;
nodes = (
"543 -343 OFFCURVE",
"975 -378 OFFCURVE",
"1021 -378 CURVE",
"1133 -111 LINE",
"1093 -107 OFFCURVE",
"883 -85 OFFCURVE",
"883 22 CURVE",
"543 22 LINE"
);
}
);
width = 1444;
},
{
anchors = (
{
name = bottom;
position = "{599, 0}";
},
{
name = top;
position = "{913, 1475}";
}
);
components = (
{
name = O;
}
);
layerId = "3FDD6C00-F7FD-4E85-84B0-0136AF7D7529";
paths = (
{
closed = 1;
nodes = (
"413 -360 OFFCURVE",
"757 -378 OFFCURVE",
"810 -378 CURVE",
"970 -111 LINE",
"931 -107 OFFCURVE",
"754 -84 OFFCURVE",
"754 22 CURVE",
"413 22 LINE"
);
}
);
width = 1444;
},
{
anchors = (
{
name = bottom;
position = "{443, 0}";
},
{
name = top;
position = "{757, 1475}";
}
);
components = (
{
name = O;
}
);
layerId = "2503C51C-5A6C-4B2C-A968-78FEA18C2585";
paths = (
{
closed = 1;
nodes = (
"416 -235 OFFCURVE",
"612 -298 OFFCURVE",
"672 -313 CURVE",
"690 -285 LINE",
"626 -272 OFFCURVE",
"451 -209 OFFCURVE",
"451 -2 CURVE",
"416 2 LINE"
);
}
);
width = 1191;
}
);
leftKerningGroup = O;
note = Q;
rightKerningGroup = O;
unicode = 0051;
},
{
glyphname = R;
lastChange = "2020-01-24 14:22:56 +0000";
layers = (
{
anchors = (
{
name = bottom;
position = "{538, 0}";
},
{
name = top;
position = "{538, 1475}";
}
);
layerId = "A1A0948C-E637-4A65-8CCC-05505AD98C44";
paths = (
{
closed = 1;
nodes = (
"156 0 LINE",
"156 720 LINE",
"563 720 LINE SMOOTH",
"732 720 OFFCURVE",
"836 656 OFFCURVE",
"836 496 CURVE SMOOTH",
"836 374 OFFCURVE",
"836 251 OFFCURVE",
"836 129 CURVE SMOOTH",
"836 69 OFFCURVE",
"843 7 OFFCURVE",
"845 0 CURVE",
"878 0 LINE",
"876 7 OFFCURVE",
"868 70 OFFCURVE",
"868 129 CURVE SMOOTH",
"868 254 OFFCURVE",
"868 378 OFFCURVE",
"868 503 CURVE SMOOTH",
"868 666 OFFCURVE",
"751 727 OFFCURVE",
"657 736 CURVE",
"751 749 OFFCURVE",
"901 872 OFFCURVE",
"901 1116 CURVE SMOOTH",
"901 1377 OFFCURVE",
"785 1475 OFFCURVE",
"553 1475 CURVE SMOOTH",
"124 1475 LINE",
"124 0 LINE"
);
},
{
closed = 1;
nodes = (
"156 1447 LINE",
"546 1447 LINE SMOOTH",
"771 1447 OFFCURVE",
"869 1357 OFFCURVE",
"869 1116 CURVE SMOOTH",
"869 882 OFFCURVE",
"737 748 OFFCURVE",
"563 748 CURVE SMOOTH",
"156 748 LINE"
);
}
);
width = 1076;
},
{
anchors = (
{
name = bottom;
position = "{666, 0}";
},
{
name = top;
position = "{666, 1475}";
}
);
layerId = "584F9D0D-8480-40C6-ABEA-8DD6EE64252D";
paths = (
{
closed = 1;
nodes = (
"491 0 LINE",
"491 562 LINE",
"644 562 LINE SMOOTH",
"762 562 OFFCURVE",
"791 496 OFFCURVE",
"791 389 CURVE SMOOTH",
"791 316 OFFCURVE",
"791 243 OFFCURVE",
"791 170 CURVE SMOOTH",
"791 99 OFFCURVE",
"802 33 OFFCURVE",
"824 0 CURVE",
"1228 0 LINE",
"1204 29 OFFCURVE",
"1193 99 OFFCURVE",
"1193 170 CURVE SMOOTH",
"1193 255 OFFCURVE",
"1193 339 OFFCURVE",
"1193 424 CURVE SMOOTH",
"1193 626 OFFCURVE",
"1086 694 OFFCURVE",
"957 702 CURVE",
"1074 712 OFFCURVE",
"1218 819 OFFCURVE",
"1218 1063 CURVE SMOOTH",
"1218 1328 OFFCURVE",
"1077 1475 OFFCURVE",
"741 1475 CURVE SMOOTH",
"87 1475 LINE",
"87 0 LINE"
);
},
{
closed = 1;
nodes = (
"491 1186 LINE",
"646 1186 LINE SMOOTH",
"753 1186 OFFCURVE",
"803 1113 OFFCURVE",
"803 1027 CURVE SMOOTH",
"803 920 OFFCURVE",
"750 851 OFFCURVE",
"648 851 CURVE SMOOTH",
"491 851 LINE"
);
}
);
width = 1332;
},
{
anchors = (
{
name = bottom;
position = "{546.132, 0}";
},
{
name = top;
position = "{859.653, 1475}";
}
);
layerId = "3FDD6C00-F7FD-4E85-84B0-0136AF7D7529";
paths = (
{
closed = 1;
nodes = (
"373 0 LINE",
"493 562 LINE",
"646 562 LINE SMOOTH",
"735 562 OFFCURVE",
"765 525 OFFCURVE",
"765 461 CURVE SMOOTH",
"765 369 OFFCURVE",
"696 165 OFFCURVE",
"696 62 CURVE SMOOTH",
"696 36 OFFCURVE",
"699 15 OFFCURVE",
"706 0 CURVE",
"1110 0 LINE",
"1102 13 OFFCURVE",
"1098 36 OFFCURVE",
"1098 63 CURVE SMOOTH",
"1098 172 OFFCURVE",
"1176 412 OFFCURVE",
"1176 516 CURVE SMOOTH",
"1176 647 OFFCURVE",
"1094 695 OFFCURVE",
"988 702 CURVE",
"1206 720 OFFCURVE",
"1336 942 OFFCURVE",
"1336 1170 CURVE SMOOTH",
"1336 1361 OFFCURVE",
"1223 1475 OFFCURVE",
"937 1475 CURVE SMOOTH",
"283 1475 LINE",
"-31 0 LINE"
);
},
{
closed = 1;
nodes = (
"625 1186 LINE",
"780 1186 LINE SMOOTH",
"872 1186 OFFCURVE",
"907 1125 OFFCURVE",
"907 1060 CURVE SMOOTH",
"907 948 OFFCURVE",
"829 851 OFFCURVE",
"711 851 CURVE SMOOTH",
"554 851 LINE"
);
}
);
width = 1332;
},
{
anchors = (
{
name = bottom;
position = "{417.132, 0}";
},
{
name = top;
position = "{730.653, 1475}";
}
);
layerId = "2503C51C-5A6C-4B2C-A968-78FEA18C2585";
paths = (
{
closed = 1;
nodes = (
"39 0 LINE",
"192 720 LINE",
"601 720 LINE SMOOTH",
"752 720 OFFCURVE",
"833 674 OFFCURVE",
"833 562 CURVE SMOOTH",
"833 514 OFFCURVE",
"801 368 OFFCURVE",
"746 119 CURVE SMOOTH",
"733 59 OFFCURVE",
"727 7 OFFCURVE",
"727 0 CURVE",
"760 0 LINE",
"760 7 OFFCURVE",
"764 60 OFFCURVE",
"778 119 CURVE SMOOTH",
"813 271 OFFCURVE",
"865 504 OFFCURVE",
"865 563 CURVE SMOOTH",
"865 681 OFFCURVE",
"777 728 OFFCURVE",
"697 736 CURVE",
"897 763 OFFCURVE",
"1032 1023 OFFCURVE",
"1032 1231 CURVE SMOOTH",
"1032 1400 OFFCURVE",
"939 1475 OFFCURVE",
"746 1475 CURVE SMOOTH",
"321 1475 LINE",
"7 0 LINE"
);
},
{
closed = 1;
nodes = (
"347 1447 LINE",
"741 1447 LINE SMOOTH",
"923 1447 OFFCURVE",
"1002 1381 OFFCURVE",
"1002 1234 CURVE SMOOTH",
"1002 983 OFFCURVE",
"838 748 OFFCURVE",
"601 748 CURVE SMOOTH",
"198 748 LINE"
);
}
);
width = 1076;
}
);
leftKerningGroup = H;
note = R;
rightKerningGroup = R;
unicode = 0052;
},
{
glyphname = R.ss01;
lastChange = "2020-01-24 14:32:12 +0000";
layers = (
{
layerId = "A1A0948C-E637-4A65-8CCC-05505AD98C44";
paths = (
{
closed = 1;
nodes = (
"124 1475 LINE",
"124 0 LINE",
"156 0 LINE",
"156 719 LINE",
"618 719 LINE",
"786 719 OFFCURVE",
"922 835 OFFCURVE",
"922 1096 CURVE SMOOTH",
"922 1357 OFFCURVE",
"795 1475 OFFCURVE",
"563 1475 CURVE SMOOTH"
);
},
{
closed = 1;
nodes = (
"156 748 LINE",
"156 1447 LINE",
"546 1447 LINE SMOOTH",
"771 1447 OFFCURVE",
"890 1341 OFFCURVE",
"890 1096 CURVE SMOOTH",
"890 851 OFFCURVE",
"760 748 OFFCURVE",
"618 748 CURVE SMOOTH"
);
},
{
closed = 1;
nodes = (
"850 0 LINE",
"884 0 LINE",
"645 736 LINE",
"611 736 LINE"
);
}
);
width = 1076;
},
{
layerId = "584F9D0D-8480-40C6-ABEA-8DD6EE64252D";
paths = (
{
closed = 1;
nodes = (
"87 1475 LINE",
"87 0 LINE",
"491 0 LINE",
"491 562 LINE",
"649 562 LINE SMOOTH",
"966 562 OFFCURVE",
"1218 663 OFFCURVE",
"1218 1043 CURVE SMOOTH",
"1218 1308 OFFCURVE",
"1077 1475 OFFCURVE",
"741 1475 CURVE SMOOTH"
);
},
{
closed = 1;
nodes = (
"491 852 LINE",
"491 1185 LINE",
"646 1185 LINE SMOOTH",
"753 1185 OFFCURVE",
"802 1113 OFFCURVE",
"802 1027 CURVE SMOOTH",
"802 920 OFFCURVE",
"752 852 OFFCURVE",
"653 852 CURVE SMOOTH"
);
},
{
closed = 1;
nodes = (
"807 0 LINE",
"1219 0 LINE",
"948 693 LINE",
"579 693 LINE"
);
}
);
width = 1332;
},
{
layerId = "3FDD6C00-F7FD-4E85-84B0-0136AF7D7529";
paths = (
{
closed = 1;
nodes = (
"283 1475 LINE",
"-31 0 LINE",
"373 0 LINE",
"493 562 LINE",
"671 562 LINE SMOOTH",
"1072 562 OFFCURVE",
"1332 755 OFFCURVE",
"1332 1145 CURVE SMOOTH",
"1332 1344 OFFCURVE",
"1206 1475 OFFCURVE",
"917 1475 CURVE SMOOTH"
);
},
{
closed = 1;
nodes = (
"554 852 LINE",
"625 1185 LINE",
"780 1185 LINE SMOOTH",
"869 1185 OFFCURVE",
"908 1135 OFFCURVE",
"908 1069 CURVE SMOOTH",
"908 957 OFFCURVE",
"832 852 OFFCURVE",
"716 852 CURVE SMOOTH"
);
},
{
closed = 1;
nodes = (
"689 0 LINE",
"1101 0 LINE",
"978 693 LINE",
"609 693 LINE"
);
}
);
width = 1332;
},
{
layerId = "2503C51C-5A6C-4B2C-A968-78FEA18C2585";
paths = (
{
closed = 1;
nodes = (
"319 1475 LINE",
"5 0 LINE",
"37 0 LINE",
"190 719 LINE",
"652 719 LINE",
"899 719 OFFCURVE",
"1051 968 OFFCURVE",
"1051 1222 CURVE SMOOTH",
"1051 1395 OFFCURVE",
"949 1475 OFFCURVE",
"758 1475 CURVE SMOOTH"
);
},
{
closed = 1;
nodes = (
"196 748 LINE",
"345 1447 LINE",
"743 1447 LINE SMOOTH",
"926 1447 OFFCURVE",
"1019 1377 OFFCURVE",
"1019 1219 CURVE SMOOTH",
"1019 991 OFFCURVE",
"880 748 OFFCURVE",
"652 748 CURVE SMOOTH"
);
},
{
closed = 1;
nodes = (
"733 0 LINE",
"765 0 LINE",
"683 736 LINE",
"651 736 LINE"
);
}
);
width = 1076;
}
);
leftKerningGroup = H;
note = R;
rightKerningGroup = R;
},
{
glyphname = S;
lastChange = "2020-01-24 14:23:30 +0000";
layers = (
{
anchors = (
{
name = bottom;
position = "{532, 0}";
},
{
name = top;
position = "{532, 1475}";
}
);
layerId = "A1A0948C-E637-4A65-8CCC-05505AD98C44";
paths = (
{
closed = 1;
nodes = (
"821 -15 OFFCURVE",
"954 120.333 OFFCURVE",
"954 347 CURVE SMOOTH",
"954 581.667 OFFCURVE",
"818.667 671.667 OFFCURVE",
"560 761 CURVE SMOOTH",
"326 841 OFFCURVE",
"160 934 OFFCURVE",
"160 1155 CURVE SMOOTH",
"160 1353 OFFCURVE",
"288 1462 OFFCURVE",
"524 1462 CURVE SMOOTH",
"805 1462 OFFCURVE",
"909 1360 OFFCURVE",
"909 1081 CURVE SMOOTH",
"909 1044 OFFCURVE",
"909 1007 OFFCURVE",
"909 970 CURVE",
"943 970 LINE",
"943 1007 OFFCURVE",
"943 1044 OFFCURVE",
"943 1081 CURVE SMOOTH",
"943 1374 OFFCURVE",
"830 1491 OFFCURVE",
"523 1491 CURVE SMOOTH",
"269 1491 OFFCURVE",
"127 1372 OFFCURVE",
"127 1148 CURVE SMOOTH",
"127 916 OFFCURVE",
"289 822.333 OFFCURVE",
"557 729 CURVE SMOOTH",
"789 649 OFFCURVE",
"920 565 OFFCURVE",
"920 345 CURVE SMOOTH",
"920 133 OFFCURVE",
"800 13 OFFCURVE",
"532 13 CURVE SMOOTH",
"277 13 OFFCURVE",
"147 115 OFFCURVE",
"147 405 CURVE SMOOTH",
"147 438 OFFCURVE",
"147 471 OFFCURVE",
"147 504 CURVE",
"115 504 LINE",
"115 471 OFFCURVE",
"115 438 OFFCURVE",
"115 405 CURVE SMOOTH",
"115 102.333 OFFCURVE",
"246 -15 OFFCURVE",
"542 -15 CURVE"
);
}
);
width = 1157;
},
{
anchors = (
{
name = bottom;
position = "{669, 0}";
},
{
name = top;
position = "{669, 1475}";
}
);
layerId = "584F9D0D-8480-40C6-ABEA-8DD6EE64252D";
paths = (
{
closed = 1;
nodes = (
"1024.333 -15 OFFCURVE",
"1254 122.667 OFFCURVE",
"1254 412 CURVE SMOOTH",
"1254 668 OFFCURVE",
"1089 766 OFFCURVE",
"807 859 CURVE SMOOTH",
"635 916 OFFCURVE",
"492 979 OFFCURVE",
"492 1075 CURVE SMOOTH",
"492 1156.333 OFFCURVE",
"548 1200 OFFCURVE",
"672 1200 CURVE SMOOTH",
"802.667 1200 OFFCURVE",
"852 1141 OFFCURVE",
"852 1005 CURVE SMOOTH",
"852 998 OFFCURVE",
"852 991 OFFCURVE",
"852 984 CURVE",
"1242 984 LINE",
"1242 1001 OFFCURVE",
"1242 1017 OFFCURVE",
"1242 1034 CURVE SMOOTH",
"1242 1324.667 OFFCURVE",
"1016 1491 OFFCURVE",
"667 1491 CURVE SMOOTH",
"336 1491 OFFCURVE",
"89 1327 OFFCURVE",
"89 1064 CURVE SMOOTH",
"89 798 OFFCURVE",
"290 666 OFFCURVE",
"500 597 CURVE SMOOTH",
"693 533 OFFCURVE",
"848 480 OFFCURVE",
"848 394 CURVE SMOOTH",
"848 307 OFFCURVE",
"784.333 275 OFFCURVE",
"671 275 CURVE SMOOTH",
"535 275 OFFCURVE",
"487 335 OFFCURVE",
"487 459 CURVE SMOOTH",
"487 474 OFFCURVE",
"487 488 OFFCURVE",
"487 503 CURVE",
"86 503 LINE",
"86 486 OFFCURVE",
"86 468 OFFCURVE",
"86 451 CURVE SMOOTH",
"86 152.333 OFFCURVE",
"317.667 -15 OFFCURVE",
"667 -15 CURVE"
);
}
);
width = 1336;
},
{
anchors = (
{
name = bottom;
position = "{541, 0}";
},
{
name = top;
position = "{855, 1475}";
}
);
layerId = "3FDD6C00-F7FD-4E85-84B0-0136AF7D7529";
paths = (
{
closed = 1;
nodes = (
"892 -15 OFFCURVE",
"1224 146 OFFCURVE",
"1224 509 CURVE SMOOTH",
"1224 690 OFFCURVE",
"1103 776 OFFCURVE",
"851 859 CURVE SMOOTH",
"702 908 OFFCURVE",
"590 969 OFFCURVE",
"590 1053 CURVE SMOOTH",
"590 1151 OFFCURVE",
"679 1200 OFFCURVE",
"798 1200 CURVE SMOOTH",
"929 1200 OFFCURVE",
"950 1141 OFFCURVE",
"950 1085 CURVE SMOOTH",
"950 1048 OFFCURVE",
"934 991 OFFCURVE",
"932 984 CURVE",
"1322 984 LINE",
"1330 1014 OFFCURVE",
"1347 1080 OFFCURVE",
"1347 1147 CURVE SMOOTH",
"1347 1329 OFFCURVE",
"1197 1491 OFFCURVE",
"848 1491 CURVE SMOOTH",
"495 1491 OFFCURVE",
"176 1297 OFFCURVE",
"176 971 CURVE SMOOTH",
"176 759 OFFCURVE",
"346 655 OFFCURVE",
"518 597 CURVE SMOOTH",
"698 536 OFFCURVE",
"807 490 OFFCURVE",
"807 419 CURVE SMOOTH",
"807 330 OFFCURVE",
"714 275 OFFCURVE",
"601 275 CURVE SMOOTH",
"465 275 OFFCURVE",
"448 325 OFFCURVE",
"448 390 CURVE SMOOTH",
"448 431 OFFCURVE",
"462 491 OFFCURVE",
"465 503 CURVE",
"64 503 LINE",
"59 486 OFFCURVE",
"39 415 OFFCURVE",
"39 335 CURVE SMOOTH",
"39 129 OFFCURVE",
"186 -15 OFFCURVE",
"535 -15 CURVE"
);
}
);
width = 1336;
},
{
anchors = (
{
name = bottom;
position = "{419, 0}";
},
{
name = top;
position = "{733, 1475}";
}
);
layerId = "2503C51C-5A6C-4B2C-A968-78FEA18C2585";
paths = (
{
closed = 1;
nodes = (
"701 -15 OFFCURVE",
"923 131 OFFCURVE",
"923 447 CURVE SMOOTH",
"923 577 OFFCURVE",
"841 672 OFFCURVE",
"601 761 CURVE SMOOTH",
"387 840 OFFCURVE",
"278 925 OFFCURVE",
"278 1069 CURVE SMOOTH",
"278 1330 OFFCURVE",
"487 1462 OFFCURVE",
"731 1462 CURVE SMOOTH",
"1006 1462 OFFCURVE",
"1042 1322 OFFCURVE",
"1042 1235 CURVE SMOOTH",
"1042 1147 OFFCURVE",
"1010 1017 OFFCURVE",
"998 970 CURVE",
"1032 970 LINE",
"1044 1017 OFFCURVE",
"1076 1151 OFFCURVE",
"1076 1239 CURVE SMOOTH",
"1076 1342 OFFCURVE",
"1031 1491 OFFCURVE",
"732 1491 CURVE SMOOTH",
"473 1491 OFFCURVE",
"244 1353 OFFCURVE",
"244 1066 CURVE SMOOTH",
"244 903 OFFCURVE",
"347 822 OFFCURVE",
"595 729 CURVE SMOOTH",
"810 648 OFFCURVE",
"888 564 OFFCURVE",
"888 438 CURVE SMOOTH",
"888 151 OFFCURVE",
"685 13 OFFCURVE",
"423 13 CURVE SMOOTH",
"161 13 OFFCURVE",
"99 132 OFFCURVE",
"99 258 CURVE SMOOTH",
"99 361 OFFCURVE",
"126 461 OFFCURVE",
"140 504 CURVE",
"107 504 LINE",
"93 461 OFFCURVE",
"66 356 OFFCURVE",
"66 256 CURVE SMOOTH",
"66 117 OFFCURVE",
"126 -15 OFFCURVE",
"422 -15 CURVE"
);
}
);
width = 1157;
}
);
leftKerningGroup = S;
note = S;
rightKerningGroup = S;
unicode = 0053;
},
{
glyphname = Germandbls;
lastChange = "2020-01-24 19:45:52 +0000";
layers = (
{
layerId = "A1A0948C-E637-4A65-8CCC-05505AD98C44";
paths = (
{
closed = 1;
nodes = (
"155 0 LINE",
"155 1447 LINE",
"835 1447 LINE",
"412 894 LINE",
"445 863 LINE",
"473 869 OFFCURVE",
"502 872 OFFCURVE",
"531 872 CURVE SMOOTH",
"731 872 OFFCURVE",
"917 720 OFFCURVE",
"917 449 CURVE SMOOTH",
"917 139 OFFCURVE",
"736 15 OFFCURVE",
"505 15 CURVE SMOOTH",
"438 15 OFFCURVE",
"363 36 OFFCURVE",
"339 47 CURVE",
"325 17 LINE",
"354 5 OFFCURVE",
"427 -13 OFFCURVE",
"507 -13 CURVE SMOOTH",
"766 -13 OFFCURVE",
"951 129 OFFCURVE",
"951 449 CURVE SMOOTH",
"951 732 OFFCURVE",
"759 900 OFFCURVE",
"535 900 CURVE SMOOTH",
"506 900 OFFCURVE",
"477 897 OFFCURVE",
"447 891 CURVE",
"870 1445 LINE",
"870 1475 LINE",
"123 1475 LINE",
"123 0 LINE"
);
}
);
width = 1154;
},
{
layerId = "584F9D0D-8480-40C6-ABEA-8DD6EE64252D";
paths = (
{
closed = 1;
nodes = (
"491 0 LINE",
"491 1185 LINE",
"860 1185 LINE",
"529 962 LINE",
"727 680 LINE",
"733 685 OFFCURVE",
"758 693 OFFCURVE",
"781 693 CURVE SMOOTH",
"891 693 OFFCURVE",
"952 620 OFFCURVE",
"952 486 CURVE SMOOTH",
"952 352 OFFCURVE",
"884 275 OFFCURVE",
"781 275 CURVE SMOOTH",
"694 275 OFFCURVE",
"605 306 OFFCURVE",
"581 317 CURVE",
"581 17 LINE",
"610 5 OFFCURVE",
"683 -13 OFFCURVE",
"783 -13 CURVE SMOOTH",
"1097 -13 OFFCURVE",
"1308 109 OFFCURVE",
"1308 449 CURVE SMOOTH",
"1308 793 OFFCURVE",
"1102 891 OFFCURVE",
"931 891 CURVE SMOOTH",
"911 891 OFFCURVE",
"881 889 OFFCURVE",
"862 885 CURVE",
"1236 1127 LINE",
"1236 1475 LINE",
"87 1475 LINE",
"87 0 LINE"
);
}
);
width = 1390;
},
{
layerId = "2503C51C-5A6C-4B2C-A968-78FEA18C2585";
paths = (
{
closed = 1;
nodes = (
"39 0 LINE",
"346 1447 LINE",
"1024 1447 LINE",
"483 894 LINE",
"512 863 LINE",
"541 869 OFFCURVE",
"578 872 OFFCURVE",
"607 872 CURVE SMOOTH",
"788 872 OFFCURVE",
"907 754 OFFCURVE",
"907 553 CURVE SMOOTH",
"907 249 OFFCURVE",
"711 15 OFFCURVE",
"390 15 CURVE SMOOTH",
"323 15 OFFCURVE",
"254 36 OFFCURVE",
"233 47 CURVE",
"212 17 LINE",
"239 5 OFFCURVE",
"309 -13 OFFCURVE",
"389 -13 CURVE SMOOTH",
"730 -13 OFFCURVE",
"940 225 OFFCURVE",
"940 557 CURVE SMOOTH",
"940 776 OFFCURVE",
"802 900 OFFCURVE",
"608 900 CURVE SMOOTH",
"579 900 OFFCURVE",
"546 897 OFFCURVE",
"520 891 CURVE",
"1061 1445 LINE",
"1067 1475 LINE",
"320 1475 LINE",
"7 0 LINE"
);
}
);
width = 1154;
},
{
layerId = "3FDD6C00-F7FD-4E85-84B0-0136AF7D7529";
paths = (
{
closed = 1;
nodes = (
"375 0 LINE",
"627 1185 LINE",
"976 1185 LINE",
"617 962 LINE",
"755 680 LINE",
"762 685 OFFCURVE",
"789 693 OFFCURVE",
"812 693 CURVE SMOOTH",
"905 693 OFFCURVE",
"943 634 OFFCURVE",
"943 541 CURVE SMOOTH",
"943 394 OFFCURVE",
"861 275 OFFCURVE",
"723 275 CURVE SMOOTH",
"636 275 OFFCURVE",
"554 306 OFFCURVE",
"532 317 CURVE",
"468 17 LINE",
"495 5 OFFCURVE",
"574 -13 OFFCURVE",
"674 -13 CURVE SMOOTH",
"1066 -13 OFFCURVE",
"1298 187 OFFCURVE",
"1298 571 CURVE SMOOTH",
"1298 811 OFFCURVE",
"1172 891 OFFCURVE",
"1024 891 CURVE SMOOTH",
"1004 891 OFFCURVE",
"981 889 OFFCURVE",
"964 885 CURVE",
"1359 1127 LINE",
"1433 1475 LINE",
"284 1475 LINE",
"-29 0 LINE"
);
}
);
width = 1403;
}
);
leftKerningGroup = H;
leftMetricsKey = H;
rightKerningGroup = S;
rightMetricsKey = S;
unicode = 1E9E;
},
{
glyphname = T;
lastChange = "2020-01-24 14:24:20 +0000";
layers = (
{
anchors = (
{
name = bottom;
position = "{498, 0}";
},
{
name = center;
position = "{498, 738}";
},
{
name = top;
position = "{498, 1475}";
}
);
layerId = "A1A0948C-E637-4A65-8CCC-05505AD98C44";
paths = (
{
closed = 1;
nodes = (
"925 1475 LINE",
"72 1475 LINE",
"72 1447 LINE",
"483 1447 LINE",
"483 0 LINE",
"514 0 LINE",
"514 1447 LINE",
"925 1447 LINE"
);
}
);
width = 1122;
},
{
anchors = (
{
name = bottom;
position = "{603, 0}";
},
{
name = center;
position = "{603, 738}";
},
{
name = top;
position = "{603, 1475}";
}
);
layerId = "584F9D0D-8480-40C6-ABEA-8DD6EE64252D";
paths = (
{
closed = 1;
nodes = (
"1149 1475 LINE",
"55 1475 LINE",
"55 1185 LINE",
"400 1185 LINE",
"400 0 LINE",
"803 0 LINE",
"803 1185 LINE",
"1149 1185 LINE"
);
}
);
width = 1227;
},
{
anchors = (
{
name = bottom;
position = "{491, 0}";
},
{
name = center;
position = "{638, 738}";
},
{
name = top;
position = "{795, 1475}";
}
);
layerId = "3FDD6C00-F7FD-4E85-84B0-0136AF7D7529";
paths = (
{
closed = 1;
nodes = (
"1341 1475 LINE",
"246 1475 LINE",
"190 1185 LINE",
"536 1185 LINE",
"280 0 LINE",
"683 0 LINE",
"938 1185 LINE",
"1284 1185 LINE"
);
}
);
width = 1227;
},
{
anchors = (
{
name = bottom;
position = "{380, 0}";
},
{
name = center;
position = "{537, 738}";
},
{
name = top;
position = "{694, 1475}";
}
);
layerId = "2503C51C-5A6C-4B2C-A968-78FEA18C2585";
paths = (
{
closed = 1;
nodes = (
"1122 1475 LINE",
"267 1475 LINE",
"262 1447 LINE",
"673 1447 LINE",
"366 0 LINE",
"398 0 LINE",
"704 1447 LINE",
"1115 1447 LINE"
);
}
);
width = 1122;
}
);
leftKerningGroup = T;
note = T;
rightKerningGroup = T;
unicode = 0054;
},
{
glyphname = Tbar;
lastChange = "2020-01-24 19:46:11 +0000";
layers = (
{
components = (
{
name = T;
}
);
layerId = "A1A0948C-E637-4A65-8CCC-05505AD98C44";
paths = (
{
closed = 1;
nodes = (
"828 970 LINE",
"828 997 LINE",
"165 997 LINE",
"165 970 LINE"
);
}
);
width = 1122;
},
{
components = (
{
name = T;
}
);
layerId = "584F9D0D-8480-40C6-ABEA-8DD6EE64252D";
paths = (
{
closed = 1;
nodes = (
"1045 730 LINE",
"1045 975 LINE",
"143 975 LINE",
"143 730 LINE"
);
}
);
width = 1227;
},
{
components = (
{
name = T;
}
);
layerId = "3FDD6C00-F7FD-4E85-84B0-0136AF7D7529";
paths = (
{
closed = 1;
nodes = (
"1095 730 LINE",
"1140 975 LINE",
"239 975 LINE",
"193 730 LINE"
);
}
);
width = 1227;
},
{
components = (
{
name = T;
}
);
layerId = "2503C51C-5A6C-4B2C-A968-78FEA18C2585";
paths = (
{
closed = 1;
nodes = (
"926 970 LINE",
"932 997 LINE",
"268 997 LINE",
"263 970 LINE"
);
}
);
width = 1122;
}
);
leftKerningGroup = T;
leftMetricsKey = T;
rightKerningGroup = T;
rightMetricsKey = T;
unicode = 0166;
},
{
glyphname = U;
lastChange = "2020-01-24 19:48:01 +0000";
layers = (
{
anchors = (
{
name = bottom;
position = "{543, 0}";
},
{
name = ogonek;
position = "{670, 10}";
},
{
name = top;
position = "{543, 1475}";
},
{
name = topright;
position = "{1120, 1475}";
}
);
layerId = "A1A0948C-E637-4A65-8CCC-05505AD98C44";
paths = (
{
closed = 1;
nodes = (
"974 1475 LINE",
"942 1475 LINE",
"942 566 LINE SMOOTH",
"942 182 OFFCURVE",
"805 13 OFFCURVE",
"544 13 CURVE SMOOTH",
"283 13 OFFCURVE",
"146 182 OFFCURVE",
"146 566 CURVE SMOOTH",
"146 631 OFFCURVE",
"146 707 OFFCURVE",
"146 794 CURVE SMOOTH",
"146 1475 LINE",
"114 1475 LINE",
"114 781 LINE SMOOTH",
"114 695 OFFCURVE",
"114 620 OFFCURVE",
"114 555 CURVE SMOOTH",
"114 162 OFFCURVE",
"262 -15 OFFCURVE",
"544 -15 CURVE SMOOTH",
"826 -15 OFFCURVE",
"974 162 OFFCURVE",
"974 555 CURVE SMOOTH"
);
}
);
width = 1194;
},
{
anchors = (
{
name = bottom;
position = "{641, 0}";
},
{
name = ogonek;
position = "{831, 10}";
},
{
name = top;
position = "{641, 1475}";
},
{
name = topright;
position = "{1282, 1475}";
}
);
layerId = "584F9D0D-8480-40C6-ABEA-8DD6EE64252D";
paths = (
{
closed = 1;
nodes = (
"1195 1475 LINE",
"791 1475 LINE",
"791 505 LINE SMOOTH",
"791 356 OFFCURVE",
"746 275 OFFCURVE",
"640 275 CURVE SMOOTH",
"534 275 OFFCURVE",
"491 356 OFFCURVE",
"491 505 CURVE SMOOTH",
"491 534 OFFCURVE",
"491 567 OFFCURVE",
"491 605 CURVE SMOOTH",
"491 1475 LINE",
"87 1475 LINE",
"87 678 LINE SMOOTH",
"87 623 OFFCURVE",
"87 572 OFFCURVE",
"87 525 CURVE SMOOTH",
"87 158 OFFCURVE",
"290 -15 OFFCURVE",
"640 -15 CURVE SMOOTH",
"990 -15 OFFCURVE",
"1195 158 OFFCURVE",
"1195 525 CURVE SMOOTH"
);
}
);
width = 1323;
},
{
anchors = (
{
name = bottom;
position = "{503, 0}";
},
{
name = ogonek;
position = "{740, 10}";
},
{
name = top;
position = "{817, 1475}";
},
{
name = topright;
position = "{1452, 1475}";
}
);
layerId = "3FDD6C00-F7FD-4E85-84B0-0136AF7D7529";
paths = (
{
closed = 1;
nodes = (
"1380 1475 LINE",
"976 1475 LINE",
"770 505 LINE SMOOTH",
"738 356 OFFCURVE",
"679 275 OFFCURVE",
"573 275 CURVE SMOOTH",
"494 275 OFFCURVE",
"458 320 OFFCURVE",
"458 405 CURVE SMOOTH",
"458 434 OFFCURVE",
"462 467 OFFCURVE",
"470 505 CURVE SMOOTH",
"676 1475 LINE",
"272 1475 LINE",
"70 525 LINE SMOOTH",
"58 470 OFFCURVE",
"53 419 OFFCURVE",
"53 372 CURVE SMOOTH",
"53 110 OFFCURVE",
"234 -15 OFFCURVE",
"531 -15 CURVE SMOOTH",
"881 -15 OFFCURVE",
"1100 158 OFFCURVE",
"1178 525 CURVE SMOOTH"
);
}
);
width = 1311;
},
{
anchors = (
{
name = bottom;
position = "{428, 0}";
},
{
name = ogonek;
position = "{554, 10}";
},
{
name = top;
position = "{742, 1475}";
},
{
name = topright;
position = "{1313, 1475}";
}
);
layerId = "2503C51C-5A6C-4B2C-A968-78FEA18C2585";
paths = (
{
closed = 1;
nodes = (
"1168 1475 LINE",
"1136 1475 LINE",
"943 566 LINE SMOOTH",
"861 182 OFFCURVE",
"689 13 OFFCURVE",
"428 13 CURVE SMOOTH",
"226 13 OFFCURVE",
"119 114 OFFCURVE",
"119 338 CURVE SMOOTH",
"119 403 OFFCURVE",
"128 479 OFFCURVE",
"147 566 CURVE SMOOTH",
"340 1475 LINE",
"308 1475 LINE",
"113 555 LINE SMOOTH",
"95 469 OFFCURVE",
"86 394 OFFCURVE",
"86 329 CURVE SMOOTH",
"86 93 OFFCURVE",
"208 -15 OFFCURVE",
"429 -15 CURVE SMOOTH",
"711 -15 OFFCURVE",
"890 162 OFFCURVE",
"973 555 CURVE SMOOTH"
);
}
);
width = 1182;
}
);
leftKerningGroup = U;
note = U;
rightKerningGroup = U;
unicode = 0055;
},
{
glyphname = V;
lastChange = "2020-01-24 14:24:46 +0000";
layers = (
{
anchors = (
{
name = bottom;
position = "{564, 0}";
},
{
name = top;
position = "{564, 1475}";
}
);
layerId = "A1A0948C-E637-4A65-8CCC-05505AD98C44";
paths = (
{
closed = 1;
nodes = (
"584 -13 LINE",
"1017 1475 LINE",
"985 1475 LINE",
"563 17 LINE",
"572 17 LINE",
"145 1475 LINE",
"113 1475 LINE",
"552 -13 LINE"
);
}
);
width = 1225;
},
{
anchors = (
{
name = bottom;
position = "{723, 0}";
},
{
name = top;
position = "{723, 1475}";
}
);
layerId = "584F9D0D-8480-40C6-ABEA-8DD6EE64252D";
paths = (
{
closed = 1;
nodes = (
"1015 0 LINE",
"1363 1475 LINE",
"916 1475 LINE",
"703 141 LINE",
"738 141 LINE",
"524 1475 LINE",
"77 1475 LINE",
"427 0 LINE"
);
}
);
width = 1452;
},
{
anchors = (
{
name = bottom;
position = "{583, 0}";
},
{
name = top;
position = "{897, 1475}";
}
);
layerId = "3FDD6C00-F7FD-4E85-84B0-0136AF7D7529";
paths = (
{
closed = 1;
nodes = (
"897 0 LINE",
"1559 1475 LINE",
"1102 1475 LINE",
"603 141 LINE",
"638 141 LINE",
"710 1475 LINE",
"273 1475 LINE",
"308 0 LINE"
);
}
);
width = 1452;
},
{
anchors = (
{
name = bottom;
position = "{452, 0}";
},
{
name = top;
position = "{766, 1475}";
}
);
layerId = "2503C51C-5A6C-4B2C-A968-78FEA18C2585";
paths = (
{
closed = 1;
nodes = (
"466 -13 LINE",
"1214 1475 LINE",
"1180 1475 LINE",
"449 17 LINE",
"458 17 LINE",
"342 1475 LINE",
"310 1475 LINE",
"434 -13 LINE"
);
}
);
width = 1225;
}
);
leftKerningGroup = V;
note = V;
rightKerningGroup = V;
unicode = 0056;
},
{
glyphname = W;
lastChange = "2020-01-24 14:25:50 +0000";
layers = (
{
anchors = (
{
name = bottom;
position = "{785, 0}";
},
{
name = top;
position = "{785, 1475}";
}
);
layerId = "A1A0948C-E637-4A65-8CCC-05505AD98C44";
paths = (
{
closed = 1;
nodes = (
"451 0 LINE",
"790 1414 LINE",
"782 1414 LINE",
"1120 0 LINE",
"1149 0 LINE",
"1461 1475 LINE",
"1427 1475 LINE",
"1132 52 LINE",
"1139 52 LINE",
"801 1475 LINE",
"772 1475 LINE",
"431 52 LINE",
"438 52 LINE",
"136 1475 LINE",
"102 1475 LINE",
"421 0 LINE"
);
}
);
width = 1690;
},
{
anchors = (
{
name = bottom;
position = "{998, 0}";
},
{
name = top;
position = "{998, 1475}";
}
);
layerId = "584F9D0D-8480-40C6-ABEA-8DD6EE64252D";
paths = (
{
closed = 1;
nodes = (
"868 0 LINE",
"1026 1213 LINE",
"966 1213 LINE",
"1123 0 LINE",
"1700 0 LINE",
"1914 1475 LINE",
"1499 1475 LINE",
"1381 63 LINE",
"1438 66 LINE",
"1212 1475 LINE",
"779 1475 LINE",
"552 66 LINE",
"609 63 LINE",
"491 1475 LINE",
"76 1475 LINE",
"290 0 LINE"
);
}
);
width = 2036;
},
{
anchors = (
{
name = bottom;
position = "{848, 0}";
},
{
name = top;
position = "{1162, 1475}";
}
);
layerId = "3FDD6C00-F7FD-4E85-84B0-0136AF7D7529";
paths = (
{
closed = 1;
nodes = (
"717 0 LINE",
"1137 1213 LINE",
"1076 1213 LINE",
"973 0 LINE",
"1550 0 LINE",
"2078 1475 LINE",
"1653 1475 LINE",
"1245 63 LINE",
"1294 66 LINE",
"1368 1475 LINE",
"935 1475 LINE",
"408 66 LINE",
"473 63 LINE",
"645 1475 LINE",
"239 1475 LINE",
"140 0 LINE"
);
}
);
width = 2021;
},
{
anchors = (
{
name = bottom;
position = "{658, 0}";
},
{
name = top;
position = "{972, 1475}";
}
);
layerId = "2503C51C-5A6C-4B2C-A968-78FEA18C2585";
paths = (
{
closed = 1;
nodes = (
"326 0 LINE",
"968 1414 LINE",
"958 1414 LINE",
"994 0 LINE",
"1024 0 LINE",
"1649 1475 LINE",
"1612 1475 LINE",
"1014 52 LINE",
"1022 52 LINE",
"989 1475 LINE",
"959 1475 LINE",
"315 52 LINE",
"325 52 LINE",
"324 1475 LINE",
"290 1475 LINE",
"296 0 LINE"
);
}
);
width = 1681;
}
);
leftKerningGroup = W;
note = W;
rightKerningGroup = W;
unicode = 0057;
},
{
glyphname = X;
lastChange = "2020-01-24 14:26:48 +0000";
layers = (
{
anchors = (
{
name = bottom;
position = "{558, 0}";
},
{
name = top;
position = "{558, 1475}";
}
);
layerId = "A1A0948C-E637-4A65-8CCC-05505AD98C44";
paths = (
{
closed = 1;
nodes = (
"102 0 LINE",
"136 0 LINE",
"563 717 LINE",
"550 717 LINE",
"977 0 LINE",
"1011 0 LINE",
"569 743 LINE",
"569 717 LINE",
"996 1475 LINE",
"962 1475 LINE",
"550 743 LINE",
"563 743 LINE",
"148 1475 LINE",
"114 1475 LINE",
"544 717 LINE",
"544 743 LINE"
);
}
);
width = 1196;
},
{
anchors = (
{
name = bottom;
position = "{738, 0}";
},
{
name = top;
position = "{738, 1475}";
}
);
layerId = "584F9D0D-8480-40C6-ABEA-8DD6EE64252D";
paths = (
{
closed = 1;
nodes = (
"66 0 LINE",
"519 0 LINE",
"808 625 LINE",
"668 625 LINE",
"957 0 LINE",
"1411 0 LINE",
"916 892 LINE",
"919 566 LINE",
"1397 1475 LINE",
"943 1475 LINE",
"675 833 LINE",
"802 833 LINE",
"531 1475 LINE",
"78 1475 LINE",
"560 566 LINE",
"564 892 LINE"
);
}
);
width = 1478;
},
{
anchors = (
{
name = bottom;
position = "{609, 0}";
},
{
name = top;
position = "{923, 1475}";
}
);
layerId = "3FDD6C00-F7FD-4E85-84B0-0136AF7D7529";
paths = (
{
closed = 1;
nodes = (
"-55 0 LINE",
"406 0 LINE",
"843 625 LINE",
"681 625 LINE",
"828 0 LINE",
"1275 0 LINE",
"975 892 LINE",
"922 566 LINE",
"1583 1475 LINE",
"1122 1475 LINE",
"701 833 LINE",
"849 833 LINE",
"726 1475 LINE",
"279 1475 LINE",
"563 566 LINE",
"622 892 LINE"
);
}
);
width = 1478;
},
{
anchors = (
{
name = bottom;
position = "{427, 0}";
},
{
name = top;
position = "{741, 1475}";
}
);
layerId = "2503C51C-5A6C-4B2C-A968-78FEA18C2585";
paths = (
{
closed = 1;
nodes = (
"-16 0 LINE",
"25 0 LINE",
"592 717 LINE",
"577 717 LINE",
"845 0 LINE",
"875 0 LINE",
"600 743 LINE",
"597 717 LINE",
"1177 1475 LINE",
"1139 1475 LINE",
"581 743 LINE",
"597 743 LINE",
"345 1475 LINE",
"311 1475 LINE",
"574 717 LINE",
"577 745 LINE"
);
}
);
width = 1196;
}
);
leftKerningGroup = X;
note = X;
rightKerningGroup = X;
unicode = 0058;
},
{
glyphname = Y;
lastChange = "2020-01-24 14:26:57 +0000";
layers = (
{
anchors = (
{
name = bottom;
position = "{466, 0}";
},
{
name = top;
position = "{466, 1475}";
},
{
name = topleft;
position = "{20, 1475}";
}
);
layerId = "A1A0948C-E637-4A65-8CCC-05505AD98C44";
paths = (
{
closed = 1;
nodes = (
"834 1475 LINE",
"460 546 LINE",
"473 546 LINE",
"99 1475 LINE",
"65 1475 LINE",
"451 517 LINE",
"451 0 LINE",
"482 0 LINE",
"482 517 LINE",
"868 1475 LINE"
);
}
);
width = 1018;
},
{
anchors = (
{
name = bottom;
position = "{683, 0}";
},
{
name = top;
position = "{683, 1475}";
},
{
name = topleft;
position = "{20, 1475}";
}
);
layerId = "584F9D0D-8480-40C6-ABEA-8DD6EE64252D";
paths = (
{
closed = 1;
nodes = (
"911 1475 LINE",
"622 692 LINE",
"740 692 LINE",
"451 1475 LINE",
"24 1475 LINE",
"479 505 LINE",
"479 0 LINE",
"881 0 LINE",
"881 505 LINE",
"1339 1475 LINE"
);
}
);
width = 1386;
},
{
anchors = (
{
name = bottom;
position = "{580.132, 0}";
},
{
name = top;
position = "{893.653, 1475}";
},
{
name = topleft;
position = "{220.653, 1475}";
}
);
layerId = "3FDD6C00-F7FD-4E85-84B0-0136AF7D7529";
paths = (
{
closed = 1;
nodes = (
"1099 1475 LINE",
"640 692 LINE",
"758 692 LINE",
"639 1475 LINE",
"222 1475 LINE",
"471 505 LINE",
"363 0 LINE",
"765 0 LINE",
"874 505 LINE",
"1537 1475 LINE"
);
}
);
width = 1386;
},
{
anchors = (
{
name = bottom;
position = "{396.132, 0}";
},
{
name = top;
position = "{709.653, 1475}";
},
{
name = topleft;
position = "{220.653, 1475}";
}
);
layerId = "2503C51C-5A6C-4B2C-A968-78FEA18C2585";
paths = (
{
closed = 1;
nodes = (
"1077 1475 LINE",
"506 546 LINE",
"519 546 LINE",
"342 1475 LINE",
"311 1475 LINE",
"493 517 LINE",
"383 0 LINE",
"414 0 LINE",
"524 517 LINE",
"1114 1475 LINE"
);
}
);
width = 1018;
}
);
leftKerningGroup = Y;
note = Y;
rightKerningGroup = Y;
unicode = 0059;
},
{
glyphname = Z;
lastChange = "2020-01-24 14:29:02 +0000";
layers = (
{
anchors = (
{
name = bottom;
position = "{509, 11}";
},
{
name = center;
position = "{509, 738}";
},
{
name = top;
position = "{509, 1475}";
}
);
layerId = "A1A0948C-E637-4A65-8CCC-05505AD98C44";
paths = (
{
closed = 1;
nodes = (
"150 31 LINE",
"910 1449 LINE",
"910 1475 LINE",
"159 1475 LINE",
"159 1447 LINE",
"877 1447 LINE",
"876 1448 LINE",
"113 28 LINE",
"113 0 LINE",
"900 0 LINE",
"900 28 LINE",
"150 28 LINE"
);
}
);
width = 1118;
},
{
anchors = (
{
name = bottom;
position = "{613, 0}";
},
{
name = center;
position = "{613, 738}";
},
{
name = top;
position = "{613, 1475}";
}
);
layerId = "584F9D0D-8480-40C6-ABEA-8DD6EE64252D";
paths = (
{
closed = 1;
nodes = (
"528 293 LINE",
"1135 1231 LINE",
"1135 1475 LINE",
"122 1475 LINE",
"122 1185 LINE",
"688 1185 LINE",
"686 1187 LINE",
"77 247 LINE",
"77 0 LINE",
"1126 0 LINE",
"1126 291 LINE",
"528 291 LINE"
);
}
);
width = 1225;
},
{
anchors = (
{
name = bottom;
position = "{500.132, 0}";
},
{
name = center;
position = "{656.999, 738}";
},
{
name = top;
position = "{813.653, 1475}";
}
);
layerId = "3FDD6C00-F7FD-4E85-84B0-0136AF7D7529";
paths = (
{
closed = 1;
nodes = (
"475 288 LINE",
"1281 1231 LINE",
"1333 1475 LINE",
"320 1475 LINE",
"258 1185 LINE",
"824 1185 LINE",
"816 1187 LINE",
"14 247 LINE",
"-39 0 LINE",
"1010 0 LINE",
"1072 291 LINE",
"474 291 LINE"
);
}
);
width = 1225;
},
{
anchors = (
{
name = bottom;
position = "{406, 0}";
},
{
name = center;
position = "{563, 738}";
},
{
name = top;
position = "{720, 1475}";
}
);
layerId = "2503C51C-5A6C-4B2C-A968-78FEA18C2585";
paths = (
{
closed = 1;
nodes = (
"39 27 LINE",
"1101 1449 LINE",
"1107 1475 LINE",
"356 1475 LINE",
"350 1447 LINE",
"1068 1447 LINE",
"1065 1448 LINE",
"2 28 LINE",
"-4 0 LINE",
"783 0 LINE",
"789 28 LINE",
"39 28 LINE"
);
}
);
width = 1118;
}
);
leftKerningGroup = Z;
note = Z;
rightKerningGroup = Z;
unicode = 005A;
},
{
glyphname = a;
lastChange = "2020-01-24 14:42:32 +0000";
layers = (
{
anchors = (
{
name = bottom;
position = "{537, 0}";
},
{
name = ogonek;
position = "{966, 0}";
},
{
name = top;
position = "{557, 1062}";
}
);
layerId = "A1A0948C-E637-4A65-8CCC-05505AD98C44";
paths = (
{
closed = 1;
nodes = (
"958 24 OFFCURVE",
"948 61 OFFCURVE",
"941 103 CURVE SMOOTH",
"934 137 OFFCURVE",
"930 175 OFFCURVE",
"930 214 CURVE SMOOTH",
"930 681 LINE",
"930 710 OFFCURVE",
"930 738 OFFCURVE",
"930 763 CURVE SMOOTH",
"930 965 OFFCURVE",
"801 1073 OFFCURVE",
"562 1073 CURVE SMOOTH",
"293 1073 OFFCURVE",
"147 942 OFFCURVE",
"147 721 CURVE",
"180 721 LINE",
"180 921 OFFCURVE",
"312 1045 OFFCURVE",
"562 1045 CURVE SMOOTH",
"805 1045 OFFCURVE",
"898 929 OFFCURVE",
"898 763 CURVE SMOOTH",
"898 738 OFFCURVE",
"898 712 OFFCURVE",
"898 684 CURVE",
"898 212 LINE SMOOTH",
"898 172 OFFCURVE",
"903 133 OFFCURVE",
"909 98 CURVE SMOOTH",
"916 58 OFFCURVE",
"926 23 OFFCURVE",
"933 0 CURVE",
"966 0 LINE"
);
},
{
closed = 1;
nodes = (
"754 -15 OFFCURVE",
"929 124 OFFCURVE",
"929 332 CURVE",
"898 348 LINE",
"898 149 OFFCURVE",
"743 13 OFFCURVE",
"501 13 CURVE SMOOTH",
"269 13 OFFCURVE",
"156 123 OFFCURVE",
"156 278 CURVE SMOOTH",
"156 437 OFFCURVE",
"255 554 OFFCURVE",
"524 569 CURVE SMOOTH",
"767 583 OFFCURVE",
"928 625 OFFCURVE",
"929 709 CURVE",
"898 726 LINE",
"898 653 OFFCURVE",
"801 615 OFFCURVE",
"512 597 CURVE SMOOTH",
"229 579 OFFCURVE",
"123 451 OFFCURVE",
"123 280 CURVE SMOOTH",
"123 99 OFFCURVE",
"252 -15 OFFCURVE",
"498 -15 CURVE SMOOTH"
);
}
);
width = 1156;
},
{
anchors = (
{
name = bottom;
position = "{624, 0}";
},
{
name = ogonek;
position = "{1279, 0}";
},
{
name = top;
position = "{665, 1062}";
}
);
layerId = "584F9D0D-8480-40C6-ABEA-8DD6EE64252D";
paths = (
{
closed = 1;
nodes = (
"1264 13 OFFCURVE",
"1245 50 OFFCURVE",
"1230 100 CURVE SMOOTH",
"1217 146 OFFCURVE",
"1207 202 OFFCURVE",
"1207 261 CURVE SMOOTH",
"1207 590 LINE SMOOTH",
"1207 620 OFFCURVE",
"1207 648 OFFCURVE",
"1207 674 CURVE SMOOTH",
"1207 956 OFFCURVE",
"956 1074 OFFCURVE",
"663 1074 CURVE SMOOTH",
"353 1074 OFFCURVE",
"95 943 OFFCURVE",
"95 675 CURVE",
"492 675 LINE",
"492 749 OFFCURVE",
"553 790 OFFCURVE",
"660 790 CURVE SMOOTH",
"759 790 OFFCURVE",
"803 749 OFFCURVE",
"803 700 CURVE SMOOTH",
"803 695 OFFCURVE",
"803 689 OFFCURVE",
"803 684 CURVE SMOOTH",
"803 219 LINE SMOOTH",
"803 180 OFFCURVE",
"815 131 OFFCURVE",
"830 88 CURVE SMOOTH",
"845 47 OFFCURVE",
"863 12 OFFCURVE",
"875 0 CURVE",
"1279 0 LINE"
);
},
{
closed = 1;
nodes = (
"686 -14 OFFCURVE",
"933 103 OFFCURVE",
"933 345 CURVE",
"810 518 LINE",
"810 333 OFFCURVE",
"692 272 OFFCURVE",
"589 272 CURVE SMOOTH",
"517 272 OFFCURVE",
"475 288 OFFCURVE",
"475 333 CURVE SMOOTH",
"475 378 OFFCURVE",
"519 388 OFFCURVE",
"611 400 CURVE SMOOTH",
"756 419 OFFCURVE",
"972 498 OFFCURVE",
"972 565 CURVE",
"803 690 LINE",
"803 643 OFFCURVE",
"725 626 OFFCURVE",
"550 609 CURVE SMOOTH",
"324 587 OFFCURVE",
"71 523 OFFCURVE",
"71 288 CURVE SMOOTH",
"71 88 OFFCURVE",
"221 -14 OFFCURVE",
"449 -14 CURVE SMOOTH"
);
}
);
width = 1377;
},
{
anchors = (
{
name = bottom;
position = "{533, 0}";
},
{
name = ogonek;
position = "{1167, 0}";
},
{
name = top;
position = "{798, 1062}";
}
);
layerId = "3FDD6C00-F7FD-4E85-84B0-0136AF7D7529";
paths = (
{
closed = 1;
nodes = (
"1154 24 OFFCURVE",
"1139 77 OFFCURVE",
"1139 148 CURVE SMOOTH",
"1139 182 OFFCURVE",
"1142 220 OFFCURVE",
"1151 261 CURVE SMOOTH",
"1239 674 LINE SMOOTH",
"1245 704 OFFCURVE",
"1248 732 OFFCURVE",
"1248 758 CURVE SMOOTH",
"1248 980 OFFCURVE",
"1022 1074 OFFCURVE",
"760 1074 CURVE SMOOTH",
"450 1074 OFFCURVE",
"184 943 OFFCURVE",
"127 675 CURVE",
"524 675 LINE",
"540 749 OFFCURVE",
"609 790 OFFCURVE",
"716 790 CURVE SMOOTH",
"804 790 OFFCURVE",
"842 757 OFFCURVE",
"842 716 CURVE SMOOTH",
"842 711 OFFCURVE",
"841 705 OFFCURVE",
"840 700 CURVE SMOOTH",
"738 219 LINE SMOOTH",
"734 201 OFFCURVE",
"733 182 OFFCURVE",
"733 162 CURVE SMOOTH",
"733 96 OFFCURVE",
"750 26 OFFCURVE",
"763 0 CURVE",
"1167 0 LINE"
);
},
{
closed = 1;
nodes = (
"571 -14 OFFCURVE",
"843 103 OFFCURVE",
"895 345 CURVE",
"808 518 LINE",
"769 333 OFFCURVE",
"638 272 OFFCURVE",
"535 272 CURVE SMOOTH",
"470 272 OFFCURVE",
"433 284 OFFCURVE",
"433 324 CURVE SMOOTH",
"433 379 OFFCURVE",
"500 389 OFFCURVE",
"584 400 CURVE SMOOTH",
"733 419 OFFCURVE",
"966 498 OFFCURVE",
"980 565 CURVE",
"838 690 LINE",
"828 643 OFFCURVE",
"736 628 OFFCURVE",
"558 609 CURVE SMOOTH",
"272 579 OFFCURVE",
"21 504 OFFCURVE",
"21 249 CURVE SMOOTH",
"21 106 OFFCURVE",
"106 -14 OFFCURVE",
"334 -14 CURVE SMOOTH"
);
}
);
width = 1377;
},
{
anchors = (
{
name = bottom;
position = "{458, 0}";
},
{
name = ogonek;
position = "{853, 0}";
},
{
name = top;
position = "{693, 1062}";
}
);
layerId = "2503C51C-5A6C-4B2C-A968-78FEA18C2585";
paths = (
{
closed = 1;
nodes = (
"851 19 OFFCURVE",
"849 47 OFFCURVE",
"849 79 CURVE SMOOTH",
"849 119 OFFCURVE",
"852 166 OFFCURVE",
"862 214 CURVE SMOOTH",
"979 763 LINE SMOOTH",
"985 792 OFFCURVE",
"988 820 OFFCURVE",
"988 845 CURVE SMOOTH",
"988 994 OFFCURVE",
"881 1073 OFFCURVE",
"677 1073 CURVE SMOOTH",
"408 1073 OFFCURVE",
"234 942 OFFCURVE",
"187 721 CURVE",
"220 721 LINE",
"262 921 OFFCURVE",
"427 1045 OFFCURVE",
"677 1045 CURVE SMOOTH",
"879 1045 OFFCURVE",
"956 965 OFFCURVE",
"956 842 CURVE SMOOTH",
"956 817 OFFCURVE",
"953 791 OFFCURVE",
"947 763 CURVE SMOOTH",
"830 212 LINE SMOOTH",
"819 163 OFFCURVE",
"816 116 OFFCURVE",
"816 76 CURVE SMOOTH",
"816 45 OFFCURVE",
"818 19 OFFCURVE",
"820 0 CURVE",
"853 0 LINE"
);
},
{
closed = 1;
nodes = (
"644 -15 OFFCURVE",
"842 124 OFFCURVE",
"886 332 CURVE",
"860 348 LINE",
"817 149 OFFCURVE",
"632 13 OFFCURVE",
"390 13 CURVE SMOOTH",
"178 13 OFFCURVE",
"102 101 OFFCURVE",
"102 250 CURVE SMOOTH",
"102 441 OFFCURVE",
"259 555 OFFCURVE",
"532 569 CURVE SMOOTH",
"777 582 OFFCURVE",
"947 620 OFFCURVE",
"966 709 CURVE",
"940 726 LINE",
"924 653 OFFCURVE",
"818 615 OFFCURVE",
"525 597 CURVE SMOOTH",
"239 579 OFFCURVE",
"69 461 OFFCURVE",
"69 250 CURVE SMOOTH",
"69 75 OFFCURVE",
"162 -15 OFFCURVE",
"388 -15 CURVE SMOOTH"
);
}
);
width = 1156;
}
);
leftKerningGroup = a;
note = a;
rightKerningGroup = n;
unicode = 0061;
},
{
glyphname = a.ss01;
lastChange = "2020-01-24 19:50:14 +0000";
layers = (
{
anchors = (
{
name = bottom;
position = "{555, 0}";
},
{
name = ogonek;
position = "{894, 0}";
},
{
name = top;
position = "{555, 1062}";
}
);
layerId = "A1A0948C-E637-4A65-8CCC-05505AD98C44";
paths = (
{
closed = 1;
nodes = (
"719 -15 OFFCURVE",
"892 164 OFFCURVE",
"892 383 CURVE",
"862 383 LINE",
"862 186 OFFCURVE",
"693 13 OFFCURVE",
"497 13 CURVE SMOOTH",
"255 13 OFFCURVE",
"122 204 OFFCURVE",
"122 534 CURVE SMOOTH",
"122 862 OFFCURVE",
"255 1045 OFFCURVE",
"497 1045 CURVE SMOOTH",
"693 1045 OFFCURVE",
"862 872 OFFCURVE",
"862 675 CURVE",
"892 675 LINE",
"892 894 OFFCURVE",
"719 1073 OFFCURVE",
"499 1073 CURVE SMOOTH",
"239 1073 OFFCURVE",
"89 881 OFFCURVE",
"89 534 CURVE SMOOTH",
"89 177 OFFCURVE",
"240 -15 OFFCURVE",
"499 -15 CURVE SMOOTH"
);
},
{
closed = 1;
nodes = (
"894 1062 LINE",
"862 1062 LINE",
"862 0 LINE",
"894 0 LINE"
);
}
);
width = 1110;
},
{
anchors = (
{
name = bottom;
position = "{677, 0}";
},
{
name = ogonek;
position = "{1245, 0}";
},
{
name = top;
position = "{677, 1062}";
}
);
layerId = "584F9D0D-8480-40C6-ABEA-8DD6EE64252D";
paths = (
{
closed = 1;
nodes = (
"763 -15 OFFCURVE",
"1004 202 OFFCURVE",
"1004 497 CURVE",
"842 497 LINE",
"842 374 OFFCURVE",
"740 306 OFFCURVE",
"654 306 CURVE SMOOTH",
"563 306 OFFCURVE",
"482 375 OFFCURVE",
"482 542 CURVE SMOOTH",
"482 709 OFFCURVE",
"563 769 OFFCURVE",
"654 769 CURVE SMOOTH",
"738 769 OFFCURVE",
"842 706 OFFCURVE",
"842 583 CURVE",
"1004 583 LINE",
"1004 878 OFFCURVE",
"763 1073 OFFCURVE",
"518 1073 CURVE SMOOTH",
"261 1073 OFFCURVE",
"56 894 OFFCURVE",
"56 542 CURVE SMOOTH",
"56 170 OFFCURVE",
"251 -15 OFFCURVE",
"518 -15 CURVE SMOOTH"
);
},
{
closed = 1;
nodes = (
"1245 1062 LINE",
"842 1062 LINE",
"842 0 LINE",
"1245 0 LINE"
);
}
);
width = 1393;
},
{
anchors = (
{
name = bottom;
position = "{529, 0}";
},
{
name = ogonek;
position = "{1124, 0}";
},
{
name = top;
position = "{755, 1062}";
}
);
layerId = "3FDD6C00-F7FD-4E85-84B0-0136AF7D7529";
paths = (
{
closed = 1;
nodes = (
"679 -15 OFFCURVE",
"926 202 OFFCURVE",
"987 497 CURVE",
"826 497 LINE",
"798 374 OFFCURVE",
"681 306 OFFCURVE",
"598 306 CURVE SMOOTH",
"526 306 OFFCURVE",
"475 343 OFFCURVE",
"475 453 CURVE SMOOTH",
"475 611 OFFCURVE",
"556 769 OFFCURVE",
"705 769 CURVE SMOOTH",
"787 769 OFFCURVE",
"847 706 OFFCURVE",
"847 583 CURVE",
"1009 583 LINE",
"1009 878 OFFCURVE",
"851 1073 OFFCURVE",
"609 1073 CURVE SMOOTH",
"264 1073 OFFCURVE",
"46 764 OFFCURVE",
"46 410 CURVE SMOOTH",
"46 139 OFFCURVE",
"208 -15 OFFCURVE",
"437 -15 CURVE SMOOTH"
);
},
{
closed = 1;
nodes = (
"1349 1062 LINE",
"946 1062 LINE",
"721 0 LINE",
"1124 0 LINE"
);
}
);
width = 1384;
},
{
anchors = (
{
name = bottom;
position = "{421, 0}";
},
{
name = ogonek;
position = "{780, 0}";
},
{
name = top;
position = "{647, 1062}";
}
);
layerId = "2503C51C-5A6C-4B2C-A968-78FEA18C2585";
paths = (
{
closed = 1;
nodes = (
"610 -15 OFFCURVE",
"812 164 OFFCURVE",
"859 383 CURVE",
"829 383 LINE",
"787 186 OFFCURVE",
"581 13 OFFCURVE",
"385 13 CURVE SMOOTH",
"195 13 OFFCURVE",
"99 130 OFFCURVE",
"99 340 CURVE SMOOTH",
"99 691 OFFCURVE",
"280 1045 OFFCURVE",
"605 1045 CURVE SMOOTH",
"800 1045 OFFCURVE",
"894 879 OFFCURVE",
"894 677 CURVE",
"924 705 LINE",
"924 889 OFFCURVE",
"824 1073 OFFCURVE",
"607 1073 CURVE SMOOTH",
"261 1073 OFFCURVE",
"65 711 OFFCURVE",
"65 334 CURVE SMOOTH",
"65 103 OFFCURVE",
"180 -15 OFFCURVE",
"386 -15 CURVE SMOOTH"
);
},
{
closed = 1;
nodes = (
"1005 1062 LINE",
"973 1062 LINE",
"748 0 LINE",
"780 0 LINE"
);
}
);
width = 1107;
}
);
leftKerningGroup = o;
leftMetricsKey = o;
rightKerningGroup = l;
rightMetricsKey = l;
},
{
glyphname = ae;
lastChange = "2020-01-22 16:24:38 +0000";
layers = (
{
components = (
{
name = e;
transform = "{1, 0, 0, 1, 802, 0}";
}
);
layerId = "A1A0948C-E637-4A65-8CCC-05505AD98C44";
paths = (
{
closed = 1;
nodes = (
"930 526 LINE",
"930 555 OFFCURVE",
"930 738 OFFCURVE",
"930 763 CURVE SMOOTH",
"930 965 OFFCURVE",
"801 1073 OFFCURVE",
"562 1073 CURVE SMOOTH",
"293 1073 OFFCURVE",
"147 942 OFFCURVE",
"147 721 CURVE",
"180 721 LINE",
"180 921 OFFCURVE",
"312 1045 OFFCURVE",
"562 1045 CURVE SMOOTH",
"805 1045 OFFCURVE",
"898 929 OFFCURVE",
"898 763 CURVE SMOOTH",
"898 738 OFFCURVE",
"898 570 OFFCURVE",
"898 542 CURVE"
);
},
{
closed = 1;
nodes = (
"765 -15 OFFCURVE",
"930 110 OFFCURVE",
"930 526 CURVE",
"898 542 LINE",
"898 114 OFFCURVE",
"743 13 OFFCURVE",
"501 13 CURVE SMOOTH",
"269 13 OFFCURVE",
"156 123 OFFCURVE",
"156 278 CURVE SMOOTH",
"156 437 OFFCURVE",
"255 554 OFFCURVE",
"524 569 CURVE SMOOTH",
"767 583 OFFCURVE",
"928 625 OFFCURVE",
"929 709 CURVE",
"898 726 LINE",
"898 653 OFFCURVE",
"801 615 OFFCURVE",
"512 597 CURVE SMOOTH",
"229 579 OFFCURVE",
"123 451 OFFCURVE",
"123 280 CURVE SMOOTH",
"123 99 OFFCURVE",
"252 -15 OFFCURVE",
"498 -15 CURVE SMOOTH"
);
}
);
width = 1910;
},
{
components = (
{
name = e;
transform = "{1, 0, 0, 1, 750, 0}";
}
);
layerId = "584F9D0D-8480-40C6-ABEA-8DD6EE64252D";
paths = (
{
closed = 1;
nodes = (
"1207 590 LINE",
"1207 611 OFFCURVE",
"1207 648 OFFCURVE",
"1207 674 CURVE SMOOTH",
"1207 956 OFFCURVE",
"956 1074 OFFCURVE",
"663 1074 CURVE SMOOTH",
"353 1074 OFFCURVE",
"95 943 OFFCURVE",
"95 675 CURVE",
"492 675 LINE",
"492 749 OFFCURVE",
"553 790 OFFCURVE",
"660 790 CURVE SMOOTH",
"759 790 OFFCURVE",
"803 749 OFFCURVE",
"803 700 CURVE SMOOTH",
"803 695 OFFCURVE",
"803 600 OFFCURVE",
"803 561 CURVE"
);
},
{
closed = 1;
nodes = (
"769 -14 OFFCURVE",
"1052 65 OFFCURVE",
"1052 345 CURVE",
"810 518 LINE",
"810 333 OFFCURVE",
"692 272 OFFCURVE",
"589 272 CURVE SMOOTH",
"517 272 OFFCURVE",
"475 288 OFFCURVE",
"475 333 CURVE SMOOTH",
"475 378 OFFCURVE",
"519 388 OFFCURVE",
"611 400 CURVE SMOOTH",
"756 419 OFFCURVE",
"972 498 OFFCURVE",
"972 565 CURVE",
"803 690 LINE",
"803 643 OFFCURVE",
"725 626 OFFCURVE",
"550 609 CURVE SMOOTH",
"324 587 OFFCURVE",
"71 523 OFFCURVE",
"71 288 CURVE SMOOTH",
"71 45 OFFCURVE",
"304 -14 OFFCURVE",
"532 -14 CURVE SMOOTH"
);
}
);
width = 2091;
},
{
components = (
{
name = e;
transform = "{1, 0, 0, 1, 740, 0}";
}
);
layerId = "3FDD6C00-F7FD-4E85-84B0-0136AF7D7529";
paths = (
{
closed = 1;
nodes = (
"1207 492 LINE",
"1213 522 OFFCURVE",
"1248 732 OFFCURVE",
"1248 758 CURVE SMOOTH",
"1248 980 OFFCURVE",
"1022 1074 OFFCURVE",
"760 1074 CURVE SMOOTH",
"450 1074 OFFCURVE",
"184 943 OFFCURVE",
"127 675 CURVE",
"524 675 LINE",
"540 749 OFFCURVE",
"609 790 OFFCURVE",
"716 790 CURVE SMOOTH",
"804 790 OFFCURVE",
"842 757 OFFCURVE",
"842 716 CURVE SMOOTH",
"842 711 OFFCURVE",
"809 523 OFFCURVE",
"808 518 CURVE"
);
},
{
closed = 1;
nodes = (
"717 -14 OFFCURVE",
"1008 72 OFFCURVE",
"1069 345 CURVE",
"808 518 LINE",
"769 333 OFFCURVE",
"638 272 OFFCURVE",
"535 272 CURVE SMOOTH",
"470 272 OFFCURVE",
"433 284 OFFCURVE",
"433 324 CURVE SMOOTH",
"433 379 OFFCURVE",
"500 389 OFFCURVE",
"584 400 CURVE SMOOTH",
"733 419 OFFCURVE",
"966 498 OFFCURVE",
"980 565 CURVE",
"838 690 LINE",
"828 643 OFFCURVE",
"736 628 OFFCURVE",
"558 609 CURVE SMOOTH",
"272 579 OFFCURVE",
"21 504 OFFCURVE",
"21 249 CURVE SMOOTH",
"21 106 OFFCURVE",
"177 -14 OFFCURVE",
"405 -14 CURVE SMOOTH"
);
}
);
width = 2081;
},
{
components = (
{
name = e;
transform = "{1, 0, 0, 1, 804, 0}";
}
);
layerId = "2503C51C-5A6C-4B2C-A968-78FEA18C2585";
paths = (
{
closed = 1;
nodes = (
"929 523 LINE",
"937 552 OFFCURVE",
"988 746 OFFCURVE",
"988 845 CURVE SMOOTH",
"988 994 OFFCURVE",
"881 1073 OFFCURVE",
"677 1073 CURVE SMOOTH",
"408 1073 OFFCURVE",
"234 942 OFFCURVE",
"187 721 CURVE",
"220 721 LINE",
"262 921 OFFCURVE",
"427 1045 OFFCURVE",
"677 1045 CURVE SMOOTH",
"879 1045 OFFCURVE",
"956 965 OFFCURVE",
"956 842 CURVE SMOOTH",
"956 743 OFFCURVE",
"904 551 OFFCURVE",
"896 523 CURVE"
);
},
{
closed = 1;
nodes = (
"654 -15 OFFCURVE",
"850 149 OFFCURVE",
"929 523 CURVE",
"896 523 LINE",
"818 158 OFFCURVE",
"632 13 OFFCURVE",
"390 13 CURVE SMOOTH",
"178 13 OFFCURVE",
"102 101 OFFCURVE",
"102 250 CURVE SMOOTH",
"102 441 OFFCURVE",
"259 555 OFFCURVE",
"532 569 CURVE SMOOTH",
"777 582 OFFCURVE",
"951 620 OFFCURVE",
"970 709 CURVE",
"944 726 LINE",
"928 653 OFFCURVE",
"818 615 OFFCURVE",
"525 597 CURVE SMOOTH",
"239 579 OFFCURVE",
"69 461 OFFCURVE",
"69 250 CURVE SMOOTH",
"69 75 OFFCURVE",
"162 -15 OFFCURVE",
"388 -15 CURVE SMOOTH"
);
}
);
width = 1912;
}
);
leftKerningGroup = a;
leftMetricsKey = a;
rightKerningGroup = e;
rightMetricsKey = e;
unicode = 00E6;
},
{
glyphname = b;
lastChange = "2020-01-24 14:45:57 +0000";
layers = (
{
anchors = (
{
name = bottom;
position = "{577, 0}";
},
{
name = top;
position = "{577, 1563}";
}
);
layerId = "A1A0948C-E637-4A65-8CCC-05505AD98C44";
paths = (
{
closed = 1;
nodes = (
"812 -15 OFFCURVE",
"967 177 OFFCURVE",
"967 534 CURVE SMOOTH",
"967 881 OFFCURVE",
"813 1073 OFFCURVE",
"553 1073 CURVE SMOOTH",
"333 1073 OFFCURVE",
"153 896 OFFCURVE",
"153 675 CURVE",
"183 675 LINE",
"183 872 OFFCURVE",
"357 1045 OFFCURVE",
"553 1045 CURVE SMOOTH",
"793 1045 OFFCURVE",
"933 862 OFFCURVE",
"933 534 CURVE SMOOTH",
"933 204 OFFCURVE",
"793 13 OFFCURVE",
"553 13 CURVE SMOOTH",
"357 13 OFFCURVE",
"183 186 OFFCURVE",
"183 383 CURVE",
"153 383 LINE",
"153 162 OFFCURVE",
"333 -15 OFFCURVE",
"553 -15 CURVE SMOOTH"
);
},
{
closed = 1;
nodes = (
"183 0 LINE",
"183 1563 LINE",
"151 1563 LINE",
"151 0 LINE"
);
}
);
width = 1153;
},
{
anchors = (
{
name = bottom;
position = "{692, 0}";
},
{
name = top;
position = "{692, 1563}";
}
);
layerId = "584F9D0D-8480-40C6-ABEA-8DD6EE64252D";
paths = (
{
closed = 1;
nodes = (
"1088 -15 OFFCURVE",
"1293 170 OFFCURVE",
"1293 542 CURVE SMOOTH",
"1293 894 OFFCURVE",
"1078 1073 OFFCURVE",
"821 1073 CURVE SMOOTH",
"556 1073 OFFCURVE",
"355 878 OFFCURVE",
"355 583 CURVE",
"507 583 LINE",
"507 706 OFFCURVE",
"611 769 OFFCURVE",
"695 769 CURVE SMOOTH",
"786 769 OFFCURVE",
"877 709 OFFCURVE",
"877 542 CURVE SMOOTH",
"877 375 OFFCURVE",
"786 306 OFFCURVE",
"695 306 CURVE SMOOTH",
"609 306 OFFCURVE",
"507 374 OFFCURVE",
"507 497 CURVE",
"355 497 LINE",
"355 202 OFFCURVE",
"556 -15 OFFCURVE",
"821 -15 CURVE SMOOTH"
);
},
{
closed = 1;
nodes = (
"507 0 LINE",
"507 1563 LINE",
"103 1563 LINE",
"103 0 LINE"
);
}
);
width = 1383;
},
{
anchors = (
{
name = bottom;
position = "{575.132, 0}";
},
{
name = top;
position = "{907.358, 1563}";
}
);
layerId = "3FDD6C00-F7FD-4E85-84B0-0136AF7D7529";
paths = (
{
closed = 1;
nodes = (
"960 -15 OFFCURVE",
"1303 214 OFFCURVE",
"1303 694 CURVE SMOOTH",
"1303 916 OFFCURVE",
"1182 1073 OFFCURVE",
"925 1073 CURVE SMOOTH",
"660 1073 OFFCURVE",
"417 878 OFFCURVE",
"354 583 CURVE",
"506 583 LINE",
"533 706 OFFCURVE",
"646 769 OFFCURVE",
"730 769 CURVE SMOOTH",
"821 769 OFFCURVE",
"877 711 OFFCURVE",
"877 615 CURVE SMOOTH",
"877 399 OFFCURVE",
"737 306 OFFCURVE",
"646 306 CURVE SMOOTH",
"570 306 OFFCURVE",
"488 322 OFFCURVE",
"488 498 CURVE",
"336 498 LINE",
"336 203 OFFCURVE",
"397 -15 OFFCURVE",
"693 -15 CURVE SMOOTH"
);
},
{
closed = 1;
nodes = (
"382 0 LINE",
"715 1563 LINE",
"311 1563 LINE",
"-22 0 LINE"
);
}
);
width = 1383;
},
{
anchors = (
{
name = bottom;
position = "{455.132, 0}";
},
{
name = top;
position = "{787.358, 1563}";
}
);
layerId = "2503C51C-5A6C-4B2C-A968-78FEA18C2585";
paths = (
{
closed = 1;
nodes = (
"709 -15 OFFCURVE",
"979 257 OFFCURVE",
"979 712 CURVE SMOOTH",
"979 882 OFFCURVE",
"922 1073 OFFCURVE",
"662 1073 CURVE SMOOTH",
"438 1073 OFFCURVE",
"217 896 OFFCURVE",
"170 675 CURVE",
"201 675 LINE",
"243 872 OFFCURVE",
"460 1045 OFFCURVE",
"656 1045 CURVE SMOOTH",
"896 1045 OFFCURVE",
"945 869 OFFCURVE",
"945 712 CURVE SMOOTH",
"945 285 OFFCURVE",
"691 13 OFFCURVE",
"432 13 CURVE SMOOTH",
"156 13 OFFCURVE",
"139 263 OFFCURVE",
"139 383 CURVE",
"108 383 LINE",
"108 230 OFFCURVE",
"140 -15 OFFCURVE",
"430 -15 CURVE SMOOTH"
);
},
{
closed = 1;
nodes = (
"58 0 LINE",
"391 1563 LINE",
"359 1563 LINE",
"26 0 LINE"
);
}
);
width = 1153;
}
);
leftKerningGroup = h;
note = b;
rightKerningGroup = o;
unicode = 0062;
},
{
glyphname = c;
lastChange = "2020-01-24 19:51:22 +0000";
layers = (
{
anchors = (
{
name = bottom;
position = "{520, 0}";
},
{
name = top;
position = "{510, 1062}";
}
);
layerId = "A1A0948C-E637-4A65-8CCC-05505AD98C44";
paths = (
{
closed = 1;
nodes = (
"787 -15 OFFCURVE",
"929 200 OFFCURVE",
"929 315 CURVE",
"897 315 LINE",
"897 213 OFFCURVE",
"766 13 OFFCURVE",
"527 13 CURVE SMOOTH",
"290 13 OFFCURVE",
"103 194 OFFCURVE",
"103 529 CURVE SMOOTH",
"103 865 OFFCURVE",
"291 1045 OFFCURVE",
"527 1045 CURVE SMOOTH",
"761 1045 OFFCURVE",
"897 845 OFFCURVE",
"897 743 CURVE",
"929 743 LINE",
"929 858 OFFCURVE",
"787 1073 OFFCURVE",
"527 1073 CURVE SMOOTH",
"267 1073 OFFCURVE",
"70 882 OFFCURVE",
"70 529 CURVE SMOOTH",
"70 176 OFFCURVE",
"267 -15 OFFCURVE",
"527 -15 CURVE SMOOTH"
);
}
);
width = 1060;
},
{
anchors = (
{
name = bottom;
position = "{610, 0}";
},
{
name = top;
position = "{611, 1073}";
}
);
layerId = "584F9D0D-8480-40C6-ABEA-8DD6EE64252D";
paths = (
{
closed = 1;
nodes = (
"1027 -15 OFFCURVE",
"1178 230 OFFCURVE",
"1178 424 CURVE",
"782 424 LINE",
"777 354 OFFCURVE",
"736 275 OFFCURVE",
"643 275 CURVE SMOOTH",
"552 275 OFFCURVE",
"475 367 OFFCURVE",
"475 536 CURVE SMOOTH",
"475 705 OFFCURVE",
"548 783 OFFCURVE",
"643 783 CURVE SMOOTH",
"735 783 OFFCURVE",
"777 710 OFFCURVE",
"782 640 CURVE",
"1178 640 LINE",
"1178 834 OFFCURVE",
"1027 1073 OFFCURVE",
"641 1073 CURVE SMOOTH",
"268 1073 OFFCURVE",
"66 851 OFFCURVE",
"66 536 CURVE SMOOTH",
"66 221 OFFCURVE",
"268 -15 OFFCURVE",
"641 -15 CURVE SMOOTH"
);
}
);
width = 1280;
},
{
anchors = (
{
name = bottom;
position = "{527.132, 0}";
},
{
name = top;
position = "{752.868, 1062}";
}
);
layerId = "3FDD6C00-F7FD-4E85-84B0-0136AF7D7529";
paths = (
{
closed = 1;
nodes = (
"934 -15 OFFCURVE",
"1133 240 OFFCURVE",
"1155 424 CURVE",
"759 424 LINE",
"749 354 OFFCURVE",
"681 275 OFFCURVE",
"588 275 CURVE SMOOTH",
"497 275 OFFCURVE",
"464 364 OFFCURVE",
"464 447 CURVE SMOOTH",
"464 672 OFFCURVE",
"587 783 OFFCURVE",
"692 783 CURVE SMOOTH",
"789 783 OFFCURVE",
"805 690 OFFCURVE",
"805 640 CURVE",
"1201 640 LINE",
"1201 784 OFFCURVE",
"1133 1073 OFFCURVE",
"706 1073 CURVE SMOOTH",
"333 1073 OFFCURVE",
"53 828 OFFCURVE",
"53 430 CURVE SMOOTH",
"53 187 OFFCURVE",
"204 -15 OFFCURVE",
"548 -15 CURVE SMOOTH"
);
}
);
width = 1280;
},
{
anchors = (
{
name = bottom;
position = "{416.132, 0}";
},
{
name = top;
position = "{641.868, 1062}";
}
);
layerId = "2503C51C-5A6C-4B2C-A968-78FEA18C2585";
paths = (
{
closed = 1;
nodes = (
"700 -15 OFFCURVE",
"872 190 OFFCURVE",
"898 315 CURVE",
"866 315 LINE",
"840 203 OFFCURVE",
"686 13 OFFCURVE",
"429 13 CURVE SMOOTH",
"202 13 OFFCURVE",
"93 176 OFFCURVE",
"93 373 CURVE SMOOTH",
"93 810 OFFCURVE",
"405 1045 OFFCURVE",
"651 1045 CURVE SMOOTH",
"893 1045 OFFCURVE",
"956 855 OFFCURVE",
"956 743 CURVE",
"988 743 LINE",
"988 868 OFFCURVE",
"912 1073 OFFCURVE",
"652 1073 CURVE SMOOTH",
"376 1073 OFFCURVE",
"60 818 OFFCURVE",
"60 372 CURVE SMOOTH",
"60 158 OFFCURVE",
"182 -15 OFFCURVE",
"430 -15 CURVE SMOOTH"
);
}
);
width = 1060;
}
);
leftKerningGroup = o;
note = c;
rightKerningGroup = o;
unicode = 0063;
},
{
glyphname = d;
lastChange = "2020-01-24 19:51:47 +0000";
layers = (
{
anchors = (
{
name = bottom;
position = "{503, 0}";
},
{
name = center;
position = "{897, 1295}";
},
{
name = top;
position = "{503, 1563}";
},
{
name = topright;
position = "{1035, 1062}";
}
);
layerId = "A1A0948C-E637-4A65-8CCC-05505AD98C44";
paths = (
{
closed = 1;
nodes = (
"737 -15 OFFCURVE",
"912 162 OFFCURVE",
"912 383 CURVE",
"882 383 LINE",
"882 186 OFFCURVE",
"713 13 OFFCURVE",
"517 13 CURVE SMOOTH",
"277 13 OFFCURVE",
"132 204 OFFCURVE",
"132 534 CURVE SMOOTH",
"132 862 OFFCURVE",
"277 1045 OFFCURVE",
"517 1045 CURVE SMOOTH",
"713 1045 OFFCURVE",
"882 872 OFFCURVE",
"882 675 CURVE",
"912 675 LINE",
"912 896 OFFCURVE",
"737 1073 OFFCURVE",
"517 1073 CURVE SMOOTH",
"257 1073 OFFCURVE",
"98 881 OFFCURVE",
"98 534 CURVE SMOOTH",
"98 177 OFFCURVE",
"258 -15 OFFCURVE",
"517 -15 CURVE SMOOTH"
);
},
{
closed = 1;
nodes = (
"914 1563 LINE",
"882 1563 LINE",
"882 0 LINE",
"914 0 LINE"
);
}
);
width = 1105;
},
{
anchors = (
{
name = bottom;
position = "{597, 0}";
},
{
name = center;
position = "{1032, 1298}";
},
{
name = top;
position = "{597, 1563}";
},
{
name = topright;
position = "{1333, 1062}";
}
);
layerId = "584F9D0D-8480-40C6-ABEA-8DD6EE64252D";
paths = (
{
closed = 1;
nodes = (
"781 -15 OFFCURVE",
"982 202 OFFCURVE",
"982 497 CURVE",
"830 497 LINE",
"830 374 OFFCURVE",
"728 306 OFFCURVE",
"642 306 CURVE SMOOTH",
"551 306 OFFCURVE",
"460 375 OFFCURVE",
"460 542 CURVE SMOOTH",
"460 709 OFFCURVE",
"551 769 OFFCURVE",
"642 769 CURVE SMOOTH",
"726 769 OFFCURVE",
"830 706 OFFCURVE",
"830 583 CURVE",
"982 583 LINE",
"982 878 OFFCURVE",
"781 1073 OFFCURVE",
"516 1073 CURVE SMOOTH",
"259 1073 OFFCURVE",
"44 894 OFFCURVE",
"44 542 CURVE SMOOTH",
"44 170 OFFCURVE",
"249 -15 OFFCURVE",
"516 -15 CURVE SMOOTH"
);
},
{
closed = 1;
nodes = (
"1234 1563 LINE",
"830 1563 LINE",
"830 0 LINE",
"1234 0 LINE"
);
}
);
width = 1353;
},
{
anchors = (
{
name = bottom;
position = "{487, 17}";
},
{
name = center;
position = "{1173, 1298}";
},
{
name = top;
position = "{819, 1580}";
},
{
name = topright;
position = "{1432.868, 1062}";
}
);
layerId = "3FDD6C00-F7FD-4E85-84B0-0136AF7D7529";
paths = (
{
closed = 1;
nodes = (
"652 -15 OFFCURVE",
"899 202 OFFCURVE",
"962 497 CURVE",
"810 497 LINE",
"784 374 OFFCURVE",
"668 306 OFFCURVE",
"582 306 CURVE SMOOTH",
"491 306 OFFCURVE",
"431 379 OFFCURVE",
"431 467 CURVE SMOOTH",
"431 689 OFFCURVE",
"589 769 OFFCURVE",
"680 769 CURVE SMOOTH",
"764 769 OFFCURVE",
"828 714 OFFCURVE",
"828 581 CURVE",
"980 581 LINE",
"980 864 OFFCURVE",
"904 1073 OFFCURVE",
"599 1073 CURVE SMOOTH",
"342 1073 OFFCURVE",
"13 846 OFFCURVE",
"13 384 CURVE SMOOTH",
"13 173 OFFCURVE",
"120 -15 OFFCURVE",
"387 -15 CURVE SMOOTH"
);
},
{
closed = 1;
nodes = (
"1441 1563 LINE",
"1037 1563 LINE",
"704 0 LINE",
"1108 0 LINE"
);
}
);
width = 1353;
},
{
anchors = (
{
name = bottom;
position = "{373, 0}";
},
{
name = center;
position = "{1037, 1295}";
},
{
name = top;
position = "{705, 1563}";
},
{
name = topright;
position = "{1164, 1062}";
}
);
layerId = "2503C51C-5A6C-4B2C-A968-78FEA18C2585";
paths = (
{
closed = 1;
nodes = (
"593 -15 OFFCURVE",
"806 162 OFFCURVE",
"853 383 CURVE",
"823 383 LINE",
"781 186 OFFCURVE",
"570 13 OFFCURVE",
"374 13 CURVE SMOOTH",
"134 13 OFFCURVE",
"82 197 OFFCURVE",
"82 344 CURVE SMOOTH",
"82 813 OFFCURVE",
"365 1045 OFFCURVE",
"605 1045 CURVE SMOOTH",
"801 1045 OFFCURVE",
"885 872 OFFCURVE",
"885 675 CURVE",
"915 675 LINE",
"915 896 OFFCURVE",
"825 1073 OFFCURVE",
"605 1073 CURVE SMOOTH",
"345 1073 OFFCURVE",
"48 832 OFFCURVE",
"48 344 CURVE SMOOTH",
"48 169 OFFCURVE",
"114 -15 OFFCURVE",
"373 -15 CURVE SMOOTH"
);
},
{
closed = 1;
nodes = (
"1106 1563 LINE",
"1074 1563 LINE",
"741 0 LINE",
"773 0 LINE"
);
}
);
width = 1105;
}
);
leftKerningGroup = o;
note = d;
rightKerningGroup = l;
unicode = 0064;
},
{
glyphname = eth;
lastChange = "2020-01-26 15:12:57 +0000";
layers = (
{
components = (
{
name = o;
}
);
layerId = "A1A0948C-E637-4A65-8CCC-05505AD98C44";
paths = (
{
closed = 1;
nodes = (
"525 1339 LINE",
"746 1509 LINE",
"719 1530 LINE",
"498 1360 LINE"
);
},
{
closed = 1;
nodes = (
"963 533 LINE",
"963 1182 OFFCURVE",
"816 1446 OFFCURVE",
"390 1554 CURVE",
"362 1530 LINE",
"780 1437 OFFCURVE",
"932 1173 OFFCURVE",
"932 533 CURVE"
);
}
);
width = 1154;
},
{
components = (
{
name = o;
}
);
layerId = "584F9D0D-8480-40C6-ABEA-8DD6EE64252D";
paths = (
{
closed = 1;
nodes = (
"589 1103 LINE",
"977 1468 LINE",
"762 1591 LINE",
"372 1222 LINE"
);
},
{
closed = 1;
nodes = (
"1228 530 LINE",
"1228 1179 OFFCURVE",
"898 1475 OFFCURVE",
"461 1576 CURVE",
"292 1394 LINE",
"632 1306 OFFCURVE",
"830 1173 OFFCURVE",
"832 530 CURVE"
);
}
);
width = 1347;
},
{
components = (
{
name = o;
}
);
layerId = "3FDD6C00-F7FD-4E85-84B0-0136AF7D7529";
paths = (
{
closed = 1;
nodes = (
"659 1103 LINE",
"1047 1468 LINE",
"832 1591 LINE",
"442 1222 LINE"
);
},
{
closed = 1;
nodes = (
"1241 662 LINE",
"1241 1227 OFFCURVE",
"968 1475 OFFCURVE",
"531 1576 CURVE",
"362 1394 LINE",
"702 1306 OFFCURVE",
"872 1191 OFFCURVE",
"872 662 CURVE"
);
}
);
width = 1362;
},
{
components = (
{
name = o;
}
);
layerId = "2503C51C-5A6C-4B2C-A968-78FEA18C2585";
paths = (
{
closed = 1;
nodes = (
"656 1339 LINE",
"877 1509 LINE",
"850 1530 LINE",
"629 1360 LINE"
);
},
{
closed = 1;
nodes = (
"977 696 LINE",
"977 1193 OFFCURVE",
"873 1479 OFFCURVE",
"557 1554 CURVE",
"534 1531 LINE",
"849 1456 OFFCURVE",
"944 1178 OFFCURVE",
"944 696 CURVE"
);
}
);
width = 1182;
}
);
leftKerningGroup = o;
leftMetricsKey = o;
rightKerningGroup = d;
rightMetricsKey = d;
unicode = 00F0;
},
{
glyphname = dcroat;
lastChange = "2019-12-17 19:59:18 +0000";
layers = (
{
components = (
{
name = d;
transform = "{1, 0, 0, 1, -101, 0}";
}
);
layerId = "A1A0948C-E637-4A65-8CCC-05505AD98C44";
paths = (
{
closed = 1;
nodes = (
"1098 1362 LINE",
"1098 1388 LINE",
"610 1388 LINE",
"610 1362 LINE"
);
}
);
width = 1045;
},
{
components = (
{
name = d;
transform = "{1, 0, 0, 1, -101, 0}";
}
);
layerId = "584F9D0D-8480-40C6-ABEA-8DD6EE64252D";
paths = (
{
closed = 1;
nodes = (
"1312 1187 LINE",
"1312 1432 LINE",
"411 1432 LINE",
"411 1187 LINE"
);
}
);
width = 1243;
},
{
components = (
{
name = d;
transform = "{1, 0, 0, 1, -87, 0}";
}
);
layerId = "3FDD6C00-F7FD-4E85-84B0-0136AF7D7529";
paths = (
{
closed = 1;
nodes = (
"1493 1187 LINE",
"1548 1432 LINE",
"648 1432 LINE",
"592 1187 LINE"
);
}
);
width = 1243;
},
{
components = (
{
name = d;
transform = "{1, 0, 0, 1, -82, 0}";
}
);
layerId = "2503C51C-5A6C-4B2C-A968-78FEA18C2585";
paths = (
{
closed = 1;
nodes = (
"1265 1362 LINE",
"1267 1388 LINE",
"779 1388 LINE",
"776 1362 LINE"
);
}
);
width = 1045;
}
);
leftKerningGroup = o;
rightKerningGroup = l;
unicode = 0111;
},
{
glyphname = e;
lastChange = "2020-01-24 14:48:27 +0000";
layers = (
{
anchors = (
{
name = bottom;
position = "{527, -4}";
},
{
name = ogonek;
position = "{699, 22}";
},
{
name = top;
position = "{507, 1062}";
}
);
layerId = "A1A0948C-E637-4A65-8CCC-05505AD98C44";
paths = (
{
closed = 1;
nodes = (
"938 512 LINE",
"938 521 OFFCURVE",
"938 535 OFFCURVE",
"938 544 CURVE SMOOTH",
"938 798 OFFCURVE",
"827 1073 OFFCURVE",
"538 1073 CURVE SMOOTH",
"230 1073 OFFCURVE",
"97 807 OFFCURVE",
"97 527 CURVE SMOOTH",
"97 220 OFFCURVE",
"231 -15 OFFCURVE",
"527 -15 CURVE SMOOTH",
"821 -15 OFFCURVE",
"934 194 OFFCURVE",
"934 302 CURVE",
"902 302 LINE",
"902 212 OFFCURVE",
"800 13 OFFCURVE",
"527 13 CURVE SMOOTH",
"248 13 OFFCURVE",
"130 254 OFFCURVE",
"130 527 CURVE SMOOTH",
"130 773 OFFCURVE",
"242 1045 OFFCURVE",
"538 1045 CURVE SMOOTH",
"799 1045 OFFCURVE",
"906 776 OFFCURVE",
"906 554 CURVE SMOOTH",
"906 548 OFFCURVE",
"906 546 OFFCURVE",
"906 538 CURVE",
"920 543 LINE",
"120 543 LINE",
"120 512 LINE"
);
}
);
width = 1108;
},
{
anchors = (
{
name = bottom;
position = "{681, 0}";
},
{
name = ogonek;
position = "{900, 22}";
},
{
name = top;
position = "{679, 1062}";
}
);
layerId = "584F9D0D-8480-40C6-ABEA-8DD6EE64252D";
paths = (
{
closed = 1;
nodes = (
"1281 415 LINE",
"1282 432 OFFCURVE",
"1283 456 OFFCURVE",
"1283 506 CURVE SMOOTH",
"1283 871 OFFCURVE",
"1055 1073 OFFCURVE",
"679 1073 CURVE SMOOTH",
"304 1073 OFFCURVE",
"65 843 OFFCURVE",
"65 529 CURVE SMOOTH",
"65 202 OFFCURVE",
"294 -15 OFFCURVE",
"679 -15 CURVE SMOOTH",
"1050 -15 OFFCURVE",
"1265 178 OFFCURVE",
"1275 346 CURVE",
"877 346 LINE",
"873 317 OFFCURVE",
"827 267 OFFCURVE",
"689 267 CURVE SMOOTH",
"526 267 OFFCURVE",
"469 371 OFFCURVE",
"469 529 CURVE SMOOTH",
"469 687 OFFCURVE",
"525 800 OFFCURVE",
"683 800 CURVE SMOOTH",
"815 800 OFFCURVE",
"867 731 OFFCURVE",
"877 633 CURVE SMOOTH",
"878 623 OFFCURVE",
"878 609 OFFCURVE",
"878 599 CURVE",
"909 661 LINE",
"367 661 LINE",
"367 415 LINE"
);
}
);
width = 1341;
},
{
anchors = (
{
name = bottom;
position = "{564, 0}";
},
{
name = ogonek;
position = "{776, 22}";
},
{
name = top;
position = "{789, 1062}";
}
);
layerId = "3FDD6C00-F7FD-4E85-84B0-0136AF7D7529";
paths = (
{
closed = 1;
nodes = (
"1257 415 LINE",
"1262 426 OFFCURVE",
"1296 533 OFFCURVE",
"1296 660 CURVE SMOOTH",
"1296 876 OFFCURVE",
"1142 1073 OFFCURVE",
"766 1073 CURVE SMOOTH",
"391 1073 OFFCURVE",
"50 851 OFFCURVE",
"50 414 CURVE SMOOTH",
"50 199 OFFCURVE",
"207 -15 OFFCURVE",
"592 -15 CURVE SMOOTH",
"963 -15 OFFCURVE",
"1190 178 OFFCURVE",
"1236 346 CURVE",
"838 346 LINE",
"828 317 OFFCURVE",
"771 267 OFFCURVE",
"633 267 CURVE SMOOTH",
"470 267 OFFCURVE",
"457 372 OFFCURVE",
"457 441 CURVE SMOOTH",
"457 659 OFFCURVE",
"583 800 OFFCURVE",
"741 800 CURVE SMOOTH",
"873 800 OFFCURVE",
"901 733 OFFCURVE",
"901 661 CURVE SMOOTH",
"901 651 OFFCURVE",
"895 609 OFFCURVE",
"893 599 CURVE",
"937 661 LINE",
"395 661 LINE",
"343 415 LINE"
);
}
);
width = 1341;
},
{
anchors = (
{
name = bottom;
position = "{392, 0}";
},
{
name = ogonek;
position = "{587, 22}";
},
{
name = top;
position = "{617, 1062}";
}
);
layerId = "2503C51C-5A6C-4B2C-A968-78FEA18C2585";
paths = (
{
closed = 1;
nodes = (
"934 512 LINE",
"937 520 OFFCURVE",
"962 617 OFFCURVE",
"962 729 CURVE SMOOTH",
"962 796 OFFCURVE",
"943 1073 OFFCURVE",
"654 1073 CURVE SMOOTH",
"346 1073 OFFCURVE",
"75 756 OFFCURVE",
"75 346 CURVE SMOOTH",
"75 222 OFFCURVE",
"115 -15 OFFCURVE",
"411 -15 CURVE SMOOTH",
"705 -15 OFFCURVE",
"863 194 OFFCURVE",
"886 302 CURVE",
"854 302 LINE",
"835 212 OFFCURVE",
"682 13 OFFCURVE",
"409 13 CURVE SMOOTH",
"133 13 OFFCURVE",
"108 248 OFFCURVE",
"108 355 CURVE SMOOTH",
"108 731 OFFCURVE",
"359 1045 OFFCURVE",
"653 1045 CURVE SMOOTH",
"915 1045 OFFCURVE",
"927 791 OFFCURVE",
"927 714 CURVE SMOOTH",
"927 628 OFFCURVE",
"908 546 OFFCURVE",
"905 538 CURVE",
"923 543 LINE",
"114 543 LINE",
"107 512 LINE"
);
}
);
width = 1108;
}
);
leftKerningGroup = o;
note = e;
rightKerningGroup = o;
unicode = 0065;
},
{
glyphname = f;
lastChange = "2020-01-24 14:51:09 +0000";
layers = (
{
anchors = (
{
name = bottom;
position = "{409, 0}";
},
{
name = top;
position = "{409, 1563}";
}
);
layerId = "A1A0948C-E637-4A65-8CCC-05505AD98C44";
paths = (
{
closed = 1;
nodes = (
"346 0 LINE",
"346 1034 LINE",
"658 1034 LINE",
"658 1062 LINE",
"346 1062 LINE",
"346 1230 LINE SMOOTH",
"346 1373 OFFCURVE",
"371 1549 OFFCURVE",
"579 1549 CURVE SMOOTH",
"618 1549 OFFCURVE",
"655 1542 OFFCURVE",
"672 1536 CURVE",
"672 1564 LINE",
"658 1570 OFFCURVE",
"622 1577 OFFCURVE",
"579 1577 CURVE SMOOTH",
"331 1577 OFFCURVE",
"313 1356 OFFCURVE",
"313 1230 CURVE SMOOTH",
"313 1062 LINE",
"60 1062 LINE",
"60 1034 LINE",
"313 1034 LINE",
"313 0 LINE"
);
}
);
width = 817;
},
{
anchors = (
{
name = bottom;
position = "{505, 0}";
},
{
name = top;
position = "{505, 1563}";
}
);
layerId = "584F9D0D-8480-40C6-ABEA-8DD6EE64252D";
paths = (
{
closed = 1;
nodes = (
"678 0 LINE",
"678 772 LINE",
"947 772 LINE",
"947 1062 LINE",
"678 1062 LINE",
"678 1089 LINE SMOOTH",
"678 1214 OFFCURVE",
"724 1277 OFFCURVE",
"861 1277 CURVE SMOOTH",
"900 1277 OFFCURVE",
"937 1273 OFFCURVE",
"954 1270 CURVE",
"954 1561 LINE",
"938 1564 OFFCURVE",
"898 1567 OFFCURVE",
"854 1567 CURVE SMOOTH",
"621 1567 OFFCURVE",
"276 1519 OFFCURVE",
"276 1093 CURVE SMOOTH",
"276 1062 LINE",
"42 1062 LINE",
"42 772 LINE",
"276 772 LINE",
"276 0 LINE"
);
}
);
width = 1010;
},
{
anchors = (
{
name = bottom;
position = "{356, 0}";
},
{
name = top;
position = "{718.358, 1563}";
}
);
layerId = "3FDD6C00-F7FD-4E85-84B0-0136AF7D7529";
paths = (
{
closed = 1;
nodes = (
"553 0 LINE",
"722 772 LINE",
"986 772 LINE",
"1042 1062 LINE",
"778 1062 LINE",
"786 1090 LINE SMOOTH",
"825 1227 OFFCURVE",
"889 1277 OFFCURVE",
"1009 1277 CURVE SMOOTH",
"1047 1277 OFFCURVE",
"1082 1273 OFFCURVE",
"1098 1270 CURVE",
"1155 1561 LINE",
"1139 1564 OFFCURVE",
"1100 1567 OFFCURVE",
"1057 1567 CURVE SMOOTH",
"830 1567 OFFCURVE",
"475 1518 OFFCURVE",
"382 1094 CURVE SMOOTH",
"375 1062 LINE",
"145 1062 LINE",
"89 772 LINE",
"320 772 LINE",
"150 0 LINE"
);
}
);
width = 1010;
},
{
anchors = (
{
name = bottom;
position = "{211, 0}";
},
{
name = top;
position = "{623.358, 1563}";
}
);
layerId = "2503C51C-5A6C-4B2C-A968-78FEA18C2585";
paths = (
{
closed = 1;
nodes = (
"230 0 LINE",
"451 1034 LINE",
"757 1034 LINE",
"763 1062 LINE",
"456 1062 LINE",
"492 1230 LINE SMOOTH",
"526 1389 OFFCURVE",
"600 1549 OFFCURVE",
"790 1549 CURVE SMOOTH",
"828 1549 OFFCURVE",
"862 1542 OFFCURVE",
"878 1536 CURVE",
"883 1564 LINE",
"870 1570 OFFCURVE",
"837 1577 OFFCURVE",
"795 1577 CURVE SMOOTH",
"576 1577 OFFCURVE",
"498 1403 OFFCURVE",
"461 1230 CURVE SMOOTH",
"425 1062 LINE",
"174 1062 LINE",
"169 1034 LINE",
"419 1034 LINE",
"199 0 LINE"
);
}
);
width = 817;
}
);
leftKerningGroup = t;
leftMetricsKey = t;
note = f;
rightKerningGroup = f;
unicode = 0066;
},
{
glyphname = g;
lastChange = "2020-01-24 14:51:17 +0000";
layers = (
{
anchors = (
{
name = bottom;
position = "{527, -437}";
},
{
name = top;
position = "{527, 1062}";
}
);
layerId = "A1A0948C-E637-4A65-8CCC-05505AD98C44";
paths = (
{
closed = 1;
nodes = (
"358 33 LINE SMOOTH",
"231 43 OFFCURVE",
"182 85 OFFCURVE",
"182 150 CURVE SMOOTH",
"182 225 OFFCURVE",
"249 262 OFFCURVE",
"322 271 CURVE",
"299 295 LINE",
"223 286 OFFCURVE",
"149 231 OFFCURVE",
"149 150 CURVE SMOOTH",
"149 64 OFFCURVE",
"225 15 OFFCURVE",
"348 5 CURVE SMOOTH",
"704 -24 LINE SMOOTH",
"839 -35 OFFCURVE",
"926 -78 OFFCURVE",
"926 -191 CURVE SMOOTH",
"926 -303 OFFCURVE",
"814 -419 OFFCURVE",
"524 -419 CURVE SMOOTH",
"287 -419 OFFCURVE",
"141 -337 OFFCURVE",
"141 -195 CURVE SMOOTH",
"141 -163 OFFCURVE",
"151 -122 OFFCURVE",
"170 -81 CURVE",
"139 -74 LINE",
"119 -118 OFFCURVE",
"108 -159 OFFCURVE",
"108 -197 CURVE SMOOTH",
"108 -343 OFFCURVE",
"245 -447 OFFCURVE",
"517 -447 CURVE SMOOTH",
"833 -447 OFFCURVE",
"959 -327 OFFCURVE",
"959 -191 CURVE SMOOTH",
"959 -63 OFFCURVE",
"861 -8 OFFCURVE",
"714 4 CURVE SMOOTH"
);
},
{
closed = 1;
nodes = (
"898 801 LINE",
"908 793 LINE",
"887 915 OFFCURVE",
"771 1073 OFFCURVE",
"524 1073 CURVE SMOOTH",
"272 1073 OFFCURVE",
"110 902 OFFCURVE",
"110 646 CURVE SMOOTH",
"110 400 OFFCURVE",
"252 221 OFFCURVE",
"521 221 CURVE SMOOTH",
"781 221 OFFCURVE",
"932 366 OFFCURVE",
"932 644 CURVE SMOOTH",
"932 1062 LINE",
"898 1062 LINE"
);
},
{
closed = 1;
nodes = (
"276 249 OFFCURVE",
"143 422 OFFCURVE",
"143 646 CURVE SMOOTH",
"143 873 OFFCURVE",
"293 1045 OFFCURVE",
"523 1045 CURVE SMOOTH",
"765 1045 OFFCURVE",
"899 879 OFFCURVE",
"899 650 CURVE SMOOTH",
"899 388 OFFCURVE",
"767 249 OFFCURVE",
"521 249 CURVE SMOOTH"
);
}
);
width = 1093;
},
{
anchors = (
{
name = bottom;
position = "{635, -437}";
},
{
name = top;
position = "{635, 1062}";
}
);
layerId = "584F9D0D-8480-40C6-ABEA-8DD6EE64252D";
paths = (
{
closed = 1;
nodes = (
"511 218 LINE SMOOTH",
"417 231 OFFCURVE",
"386 251 OFFCURVE",
"386 281 CURVE SMOOTH",
"386 307 OFFCURVE",
"432 340 OFFCURVE",
"456 343 CURVE",
"272 426 LINE",
"206 408 OFFCURVE",
"101 332 OFFCURVE",
"101 210 CURVE SMOOTH",
"101 78 OFFCURVE",
"215 5 OFFCURVE",
"371 -21 CURVE SMOOTH",
"718 -80 LINE SMOOTH",
"794 -93 OFFCURVE",
"842 -110 OFFCURVE",
"842 -152 CURVE SMOOTH",
"842 -189 OFFCURVE",
"781 -220 OFFCURVE",
"640 -220 CURVE SMOOTH",
"499 -220 OFFCURVE",
"418 -189 OFFCURVE",
"418 -152 CURVE SMOOTH",
"418 -141 OFFCURVE",
"420 -132 OFFCURVE",
"421 -129 CURVE",
"87 -61 LINE",
"68 -90 OFFCURVE",
"57 -120 OFFCURVE",
"57 -165 CURVE SMOOTH",
"57 -328 OFFCURVE",
"259 -463 OFFCURVE",
"640 -463 CURVE SMOOTH",
"1018 -463 OFFCURVE",
"1226 -325 OFFCURVE",
"1226 -117 CURVE SMOOTH",
"1226 78 OFFCURVE",
"1061 140 OFFCURVE",
"904 162 CURVE SMOOTH"
);
},
{
closed = 1;
nodes = (
"930 820 LINE",
"1012 842 LINE",
"1010 957 OFFCURVE",
"850 1082 OFFCURVE",
"600 1082 CURVE SMOOTH",
"304 1082 OFFCURVE",
"85 939 OFFCURVE",
"85 686 CURVE SMOOTH",
"85 431 OFFCURVE",
"315 279 OFFCURVE",
"634 279 CURVE SMOOTH",
"945 279 OFFCURVE",
"1092 434 OFFCURVE",
"1169 667 CURVE SMOOTH",
"1300 1062 LINE",
"971 1062 LINE"
);
},
{
closed = 1;
nodes = (
"531 555 OFFCURVE",
"479 597 OFFCURVE",
"479 678 CURVE SMOOTH",
"479 759 OFFCURVE",
"532 804 OFFCURVE",
"632 804 CURVE SMOOTH",
"732 804 OFFCURVE",
"784 759 OFFCURVE",
"784 678 CURVE SMOOTH",
"784 597 OFFCURVE",
"733 555 OFFCURVE",
"632 555 CURVE SMOOTH"
);
}
);
width = 1330;
},
{
anchors = (
{
name = bottom;
position = "{412, -437}";
},
{
name = top;
position = "{751, 1062}";
}
);
layerId = "3FDD6C00-F7FD-4E85-84B0-0136AF7D7529";
paths = (
{
closed = 1;
nodes = (
"461 218 LINE SMOOTH",
"369 232 OFFCURVE",
"348 251 OFFCURVE",
"348 273 CURVE SMOOTH",
"348 307 OFFCURVE",
"407 340 OFFCURVE",
"432 343 CURVE",
"266 426 LINE",
"196 408 OFFCURVE",
"44 313 OFFCURVE",
"44 168 CURVE SMOOTH",
"44 72 OFFCURVE",
"119 6 OFFCURVE",
"270 -21 CURVE SMOOTH",
"604 -80 LINE SMOOTH",
"677 -93 OFFCURVE",
"714 -109 OFFCURVE",
"714 -141 CURVE SMOOTH",
"714 -190 OFFCURVE",
"637 -220 OFFCURVE",
"496 -220 CURVE SMOOTH",
"355 -220 OFFCURVE",
"289 -190 OFFCURVE",
"289 -158 CURVE SMOOTH",
"289 -143 OFFCURVE",
"295 -132 OFFCURVE",
"297 -129 CURVE",
"-23 -61 LINE",
"-48 -90 OFFCURVE",
"-80 -140 OFFCURVE",
"-80 -204 CURVE SMOOTH",
"-80 -331 OFFCURVE",
"64 -463 OFFCURVE",
"445 -463 CURVE SMOOTH",
"823 -463 OFFCURVE",
"1112 -312 OFFCURVE",
"1112 -55 CURVE SMOOTH",
"1112 76 OFFCURVE",
"994 140 OFFCURVE",
"842 162 CURVE SMOOTH"
);
},
{
closed = 1;
nodes = (
"1008 820 LINE",
"1094 842 LINE",
"1094 957 OFFCURVE",
"973 1082 OFFCURVE",
"723 1082 CURVE SMOOTH",
"427 1082 OFFCURVE",
"125 901 OFFCURVE",
"125 612 CURVE SMOOTH",
"125 405 OFFCURVE",
"288 279 OFFCURVE",
"607 279 CURVE SMOOTH",
"918 279 OFFCURVE",
"1087 434 OFFCURVE",
"1214 667 CURVE SMOOTH",
"1429 1062 LINE",
"1100 1062 LINE"
);
},
{
closed = 1;
nodes = (
"552 555 OFFCURVE",
"522 595 OFFCURVE",
"522 648 CURVE SMOOTH",
"522 743 OFFCURVE",
"606 804 OFFCURVE",
"706 804 CURVE SMOOTH",
"806 804 OFFCURVE",
"835 761 OFFCURVE",
"835 712 CURVE SMOOTH",
"835 610 OFFCURVE",
"754 555 OFFCURVE",
"653 555 CURVE SMOOTH"
);
}
);
width = 1330;
},
{
anchors = (
{
name = bottom;
position = "{323, -437}";
},
{
name = top;
position = "{642, 1062}";
}
);
layerId = "2503C51C-5A6C-4B2C-A968-78FEA18C2585";
paths = (
{
closed = 1;
nodes = (
"233 33 LINE SMOOTH",
"109 43 OFFCURVE",
"80 83 OFFCURVE",
"80 127 CURVE SMOOTH",
"80 231 OFFCURVE",
"183 262 OFFCURVE",
"258 271 CURVE",
"230 295 LINE",
"144 286 OFFCURVE",
"46 226 OFFCURVE",
"46 125 CURVE SMOOTH",
"46 63 OFFCURVE",
"97 15 OFFCURVE",
"218 5 CURVE SMOOTH",
"567 -24 LINE SMOOTH",
"700 -35 OFFCURVE",
"759 -76 OFFCURVE",
"759 -151 CURVE SMOOTH",
"759 -303 OFFCURVE",
"584 -419 OFFCURVE",
"292 -419 CURVE SMOOTH",
"57 -419 OFFCURVE",
"-37 -338 OFFCURVE",
"-37 -241 CURVE SMOOTH",
"-37 -168 OFFCURVE",
"-3 -112 OFFCURVE",
"24 -81 CURVE",
"-8 -74 LINE",
"-38 -108 OFFCURVE",
"-70 -164 OFFCURVE",
"-70 -242 CURVE SMOOTH",
"-70 -349 OFFCURVE",
"18 -447 OFFCURVE",
"290 -447 CURVE SMOOTH",
"606 -447 OFFCURVE",
"792 -322 OFFCURVE",
"792 -146 CURVE SMOOTH",
"792 -61 OFFCURVE",
"728 -8 OFFCURVE",
"583 4 CURVE SMOOTH"
);
},
{
closed = 1;
nodes = (
"936 801 LINE",
"943 793 LINE",
"948 915 OFFCURVE",
"850 1073 OFFCURVE",
"617 1073 CURVE SMOOTH",
"361 1073 OFFCURVE",
"103 878 OFFCURVE",
"103 534 CURVE SMOOTH",
"103 384 OFFCURVE",
"176 221 OFFCURVE",
"436 221 CURVE SMOOTH",
"703 221 OFFCURVE",
"878 366 OFFCURVE",
"937 644 CURVE SMOOTH",
"1026 1062 LINE",
"992 1062 LINE"
);
},
{
closed = 1;
nodes = (
"195 249 OFFCURVE",
"137 403 OFFCURVE",
"137 535 CURVE SMOOTH",
"137 863 OFFCURVE",
"385 1045 OFFCURVE",
"616 1045 CURVE SMOOTH",
"810 1045 OFFCURVE",
"917 927 OFFCURVE",
"917 753 CURVE SMOOTH",
"917 469 OFFCURVE",
"742 249 OFFCURVE",
"437 249 CURVE SMOOTH"
);
}
);
width = 1093;
}
);
leftKerningGroup = g;
note = g;
rightKerningGroup = g;
unicode = 0067;
},
{
glyphname = g.ss01;
lastChange = "2020-01-24 19:58:18 +0000";
layers = (
{
anchors = (
{
name = bottom;
position = "{539, -437}";
},
{
name = top;
position = "{539, 1062}";
}
);
components = (
{
name = a.ss01;
transform = "{1, 0, 0, 1, 34, 0}";
}
);
layerId = "A1A0948C-E637-4A65-8CCC-05505AD98C44";
paths = (
{
closed = 1;
nodes = (
"896 0 LINE",
"896 -313 OFFCURVE",
"723 -419 OFFCURVE",
"533 -419 CURVE SMOOTH",
"336 -419 OFFCURVE",
"192 -314 OFFCURVE",
"192 -104 CURVE",
"192 -102 OFFCURVE",
"192 -99 OFFCURVE",
"192 -97 CURVE",
"160 -97 LINE",
"160 -99 OFFCURVE",
"160 -102 OFFCURVE",
"160 -104 CURVE",
"160 -344 OFFCURVE",
"326 -447 OFFCURVE",
"533 -447 CURVE SMOOTH",
"718 -447 OFFCURVE",
"928 -350 OFFCURVE",
"928 0 CURVE"
);
}
);
width = 1118;
},
{
anchors = (
{
name = bottom;
position = "{679, -437}";
},
{
name = top;
position = "{679, 1062}";
}
);
components = (
{
name = a.ss01;
transform = "{1, 0, 0, 1, 15, 0}";
}
);
layerId = "584F9D0D-8480-40C6-ABEA-8DD6EE64252D";
paths = (
{
closed = 1;
nodes = (
"857 0 LINE",
"857 -154 OFFCURVE",
"787 -190 OFFCURVE",
"683 -190 CURVE SMOOTH",
"579 -190 OFFCURVE",
"510 -157 OFFCURVE",
"510 -85 CURVE",
"510 -80 OFFCURVE",
"510 -76 OFFCURVE",
"510 -71 CURVE",
"107 -71 LINE",
"107 -76 OFFCURVE",
"107 -80 OFFCURVE",
"107 -85 CURVE",
"107 -364 OFFCURVE",
"405 -457 OFFCURVE",
"684 -457 CURVE SMOOTH",
"963 -457 OFFCURVE",
"1260 -369 OFFCURVE",
"1260 0 CURVE"
);
}
);
width = 1358;
},
{
anchors = (
{
name = bottom;
position = "{471.245, -437}";
},
{
name = top;
position = "{789.868, 1062}";
}
);
components = (
{
name = a.ss01;
transform = "{1, 0, 0, 1, 20, 0}";
}
);
layerId = "3FDD6C00-F7FD-4E85-84B0-0136AF7D7529";
paths = (
{
closed = 1;
nodes = (
"741 0 LINE",
"708 -154 OFFCURVE",
"630 -190 OFFCURVE",
"526 -190 CURVE SMOOTH",
"433 -190 OFFCURVE",
"373 -164 OFFCURVE",
"373 -106 CURVE SMOOTH",
"373 -88 OFFCURVE",
"376 -77 OFFCURVE",
"378 -71 CURVE",
"-25 -71 LINE",
"-29 -88 OFFCURVE",
"-35 -114 OFFCURVE",
"-35 -154 CURVE SMOOTH",
"-35 -380 OFFCURVE",
"236 -457 OFFCURVE",
"490 -457 CURVE SMOOTH",
"769 -457 OFFCURVE",
"1065 -369 OFFCURVE",
"1144 0 CURVE"
);
}
);
width = 1354;
},
{
anchors = (
{
name = bottom;
position = "{355.245, -437}";
},
{
name = top;
position = "{673.868, 1062}";
}
);
components = (
{
name = a.ss01;
transform = "{1, 0, 0, 1, 38, 0}";
}
);
layerId = "2503C51C-5A6C-4B2C-A968-78FEA18C2585";
paths = (
{
closed = 1;
nodes = (
"786 0 LINE",
"719 -313 OFFCURVE",
"523 -419 OFFCURVE",
"333 -419 CURVE SMOOTH",
"163 -419 OFFCURVE",
"50 -341 OFFCURVE",
"50 -185 CURVE SMOOTH",
"50 -154 OFFCURVE",
"58 -107 OFFCURVE",
"61 -97 CURVE",
"29 -97 LINE",
"26 -107 OFFCURVE",
"17 -156 OFFCURVE",
"17 -193 CURVE SMOOTH",
"17 -370 OFFCURVE",
"154 -447 OFFCURVE",
"333 -447 CURVE SMOOTH",
"518 -447 OFFCURVE",
"743 -350 OFFCURVE",
"818 0 CURVE"
);
}
);
width = 1121;
}
);
leftKerningGroup = o;
leftMetricsKey = a;
rightKerningGroup = l;
rightMetricsKey = a;
},
{
glyphname = h;
lastChange = "2020-01-24 14:51:29 +0000";
layers = (
{
anchors = (
{
name = bottom;
position = "{556, 0}";
},
{
name = center;
position = "{146, 1295}";
},
{
name = top;
position = "{556, 1563}";
}
);
layerId = "A1A0948C-E637-4A65-8CCC-05505AD98C44";
paths = (
{
closed = 1;
nodes = (
"905 0 LINE",
"905 400 LINE",
"905 476 OFFCURVE",
"905 569 OFFCURVE",
"905 641 CURVE",
"905 911 OFFCURVE",
"818 1073 OFFCURVE",
"567 1073 CURVE SMOOTH",
"306 1073 OFFCURVE",
"133 887 OFFCURVE",
"133 699 CURVE",
"163 693 LINE",
"163 870 OFFCURVE",
"339 1045 OFFCURVE",
"566 1045 CURVE SMOOTH",
"788 1045 OFFCURVE",
"873 897 OFFCURVE",
"873 652 CURVE",
"873 582 OFFCURVE",
"873 481 OFFCURVE",
"873 413 CURVE",
"873 0 LINE"
);
},
{
closed = 1;
nodes = (
"163 0 LINE",
"163 1563 LINE",
"131 1563 LINE",
"131 0 LINE"
);
}
);
width = 1111;
},
{
anchors = (
{
name = bottom;
position = "{653, 0}";
},
{
name = center;
position = "{297, 1298}";
},
{
name = top;
position = "{653, 1563}";
}
);
layerId = "584F9D0D-8480-40C6-ABEA-8DD6EE64252D";
paths = (
{
closed = 1;
nodes = (
"1216 0 LINE",
"1216 340 LINE",
"1216 485 OFFCURVE",
"1216 583 OFFCURVE",
"1216 651 CURVE",
"1216 924 OFFCURVE",
"1103 1073 OFFCURVE",
"840 1073 CURVE SMOOTH",
"574 1073 OFFCURVE",
"419 903 OFFCURVE",
"419 612 CURVE",
"497 542 LINE",
"497 680 OFFCURVE",
"545 761 OFFCURVE",
"664 761 CURVE SMOOTH",
"786 761 OFFCURVE",
"813 677 OFFCURVE",
"813 542 CURVE",
"813 506 OFFCURVE",
"813 407 OFFCURVE",
"813 376 CURVE",
"813 0 LINE"
);
},
{
closed = 1;
nodes = (
"497 0 LINE",
"497 1563 LINE",
"94 1563 LINE",
"94 0 LINE"
);
}
);
width = 1306;
},
{
anchors = (
{
name = bottom;
position = "{535.132, 0}";
},
{
name = center;
position = "{447, 1298}";
},
{
name = top;
position = "{867.358, 1563}";
}
);
layerId = "3FDD6C00-F7FD-4E85-84B0-0136AF7D7529";
paths = (
{
closed = 1;
nodes = (
"1100 0 LINE",
"1206 497 LINE",
"1237 642 OFFCURVE",
"1257 740 OFFCURVE",
"1257 808 CURVE SMOOTH",
"1257 921 OFFCURVE",
"1216 1073 OFFCURVE",
"952 1073 CURVE SMOOTH",
"686 1073 OFFCURVE",
"495 903 OFFCURVE",
"433 612 CURVE",
"496 542 LINE",
"525 680 OFFCURVE",
"591 761 OFFCURVE",
"710 761 CURVE SMOOTH",
"803 761 OFFCURVE",
"826 712 OFFCURVE",
"826 651 CURVE SMOOTH",
"826 615 OFFCURVE",
"807 516 OFFCURVE",
"800 485 CURVE",
"697 0 LINE"
);
},
{
closed = 1;
nodes = (
"381 0 LINE",
"713 1563 LINE",
"310 1563 LINE",
"-22 0 LINE"
);
}
);
width = 1306;
},
{
anchors = (
{
name = bottom;
position = "{438.132, 0}";
},
{
name = center;
position = "{307, 1295}";
},
{
name = top;
position = "{770.358, 1563}";
}
);
layerId = "2503C51C-5A6C-4B2C-A968-78FEA18C2585";
paths = (
{
closed = 1;
nodes = (
"789 0 LINE",
"910 572 LINE",
"926 648 OFFCURVE",
"945 740 OFFCURVE",
"945 812 CURVE SMOOTH",
"945 893 OFFCURVE",
"938 1073 OFFCURVE",
"679 1073 CURVE SMOOTH",
"418 1073 OFFCURVE",
"204 887 OFFCURVE",
"164 699 CURVE",
"194 693 LINE",
"232 870 OFFCURVE",
"450 1045 OFFCURVE",
"677 1045 CURVE SMOOTH",
"900 1045 OFFCURVE",
"911 888 OFFCURVE",
"911 812 CURVE SMOOTH",
"911 742 OFFCURVE",
"893 642 OFFCURVE",
"879 573 CURVE",
"757 0 LINE"
);
},
{
closed = 1;
nodes = (
"47 0 LINE",
"379 1563 LINE",
"347 1563 LINE",
"15 0 LINE"
);
}
);
width = 1111;
}
);
leftKerningGroup = h;
note = h;
rightKerningGroup = n;
unicode = 0068;
},
{
glyphname = hbar;
lastChange = "2020-01-24 19:59:32 +0000";
layers = (
{
components = (
{
name = h;
}
);
layerId = "A1A0948C-E637-4A65-8CCC-05505AD98C44";
paths = (
{
closed = 1;
nodes = (
"425 1362 LINE",
"425 1388 LINE",
"-66 1388 LINE",
"-66 1362 LINE"
);
}
);
width = 1111;
},
{
components = (
{
name = h;
}
);
layerId = "584F9D0D-8480-40C6-ABEA-8DD6EE64252D";
paths = (
{
closed = 1;
nodes = (
"877 1187 LINE",
"877 1432 LINE",
"-24 1432 LINE",
"-24 1187 LINE"
);
}
);
width = 1306;
},
{
components = (
{
name = h;
}
);
layerId = "3FDD6C00-F7FD-4E85-84B0-0136AF7D7529";
paths = (
{
closed = 1;
nodes = (
"1024 1187 LINE",
"1069 1432 LINE",
"168 1432 LINE",
"122 1187 LINE"
);
}
);
width = 1306;
},
{
components = (
{
name = h;
}
);
layerId = "2503C51C-5A6C-4B2C-A968-78FEA18C2585";
paths = (
{
closed = 1;
nodes = (
"595 1362 LINE",
"601 1388 LINE",
"110 1388 LINE",
"105 1362 LINE"
);
}
);
width = 1111;
}
);
leftKerningGroup = h;
rightKerningGroup = n;
unicode = 0127;
},
{
glyphname = i;
lastChange = "2020-01-24 14:51:36 +0000";
layers = (
{
anchors = (
{
name = bottom;
position = "{181, 0}";
}
);
layerId = "A1A0948C-E637-4A65-8CCC-05505AD98C44";
paths = (
{
closed = 1;
nodes = (
"198 0 LINE",
"198 1062 LINE",
"166 1062 LINE",
"166 0 LINE"
);
},
{
closed = 1;
nodes = (
"209 1377 OFFCURVE",
"232 1400 OFFCURVE",
"232 1429 CURVE SMOOTH",
"232 1457 OFFCURVE",
"209 1480 OFFCURVE",
"181 1480 CURVE SMOOTH",
"152 1480 OFFCURVE",
"129 1457 OFFCURVE",
"129 1429 CURVE SMOOTH",
"129 1400 OFFCURVE",
"152 1377 OFFCURVE",
"181 1377 CURVE SMOOTH"
);
}
);
width = 435;
},
{
anchors = (
{
name = bottom;
position = "{366, 0}";
}
);
layerId = "584F9D0D-8480-40C6-ABEA-8DD6EE64252D";
paths = (
{
closed = 1;
nodes = (
"568 0 LINE",
"568 1062 LINE",
"169 1062 LINE",
"169 0 LINE"
);
},
{
closed = 1;
nodes = (
"495 1154 OFFCURVE",
"606 1222 OFFCURVE",
"606 1344 CURVE SMOOTH",
"606 1467 OFFCURVE",
"495 1534 OFFCURVE",
"368 1534 CURVE SMOOTH",
"240 1534 OFFCURVE",
"130 1467 OFFCURVE",
"130 1344 CURVE SMOOTH",
"130 1222 OFFCURVE",
"240 1154 OFFCURVE",
"368 1154 CURVE SMOOTH"
);
}
);
width = 747;
},
{
anchors = (
{
name = bottom;
position = "{242, 0}";
}
);
layerId = "3FDD6C00-F7FD-4E85-84B0-0136AF7D7529";
paths = (
{
closed = 1;
nodes = (
"443 0 LINE",
"668 1062 LINE",
"267 1062 LINE",
"42 0 LINE"
);
},
{
closed = 1;
nodes = (
"633 1154 OFFCURVE",
"773 1234 OFFCURVE",
"773 1375 CURVE SMOOTH",
"773 1478 OFFCURVE",
"689 1534 OFFCURVE",
"573 1534 CURVE SMOOTH",
"428 1534 OFFCURVE",
"292 1450 OFFCURVE",
"292 1311 CURVE SMOOTH",
"292 1210 OFFCURVE",
"377.005 1154 OFFCURVE",
"493 1154 CURVE SMOOTH"
);
}
);
width = 747;
},
{
anchors = (
{
name = bottom;
position = "{54, 0}";
}
);
layerId = "2503C51C-5A6C-4B2C-A968-78FEA18C2585";
paths = (
{
closed = 1;
nodes = (
"70 0 LINE",
"295 1062 LINE",
"263 1062 LINE",
"38 0 LINE"
);
},
{
closed = 1;
nodes = (
"381 1377 OFFCURVE",
"410 1404 OFFCURVE",
"410 1439 CURVE SMOOTH",
"410 1462 OFFCURVE",
"392 1480 OFFCURVE",
"367 1480 CURVE SMOOTH",
"337 1480 OFFCURVE",
"305 1457 OFFCURVE",
"305 1417 CURVE SMOOTH",
"305 1394 OFFCURVE",
"324 1377 OFFCURVE",
"349 1377 CURVE SMOOTH"
);
}
);
width = 435;
}
);
leftKerningGroup = i;
note = i;
rightKerningGroup = i;
unicode = 0069;
},
{
glyphname = idotless;
lastChange = "2020-01-22 16:58:51 +0000";
layers = (
{
anchors = (
{
name = bottom;
position = "{199, 0}";
},
{
name = ogonek;
position = "{215, 0}";
},
{
name = top;
position = "{199, 1062}";
}
);
layerId = "A1A0948C-E637-4A65-8CCC-05505AD98C44";
paths = (
{
closed = 1;
nodes = (
"215 0 LINE",
"215 1062 LINE",
"183 1062 LINE",
"183 0 LINE"
);
}
);
width = 459;
},
{
anchors = (
{
name = bottom;
position = "{352, 0}";
},
{
name = ogonek;
position = "{553, 0}";
},
{
name = top;
position = "{352, 1062}";
}
);
layerId = "584F9D0D-8480-40C6-ABEA-8DD6EE64252D";
paths = (
{
closed = 1;
nodes = (
"553 0 LINE",
"553 1062 LINE",
"151 1062 LINE",
"151 0 LINE"
);
}
);
width = 683;
},
{
anchors = (
{
name = bottom;
position = "{229.132, 0}";
},
{
name = ogonek;
position = "{437, 0}";
},
{
name = top;
position = "{454.868, 1062}";
}
);
layerId = "3FDD6C00-F7FD-4E85-84B0-0136AF7D7529";
paths = (
{
closed = 1;
nodes = (
"437 0 LINE",
"663 1062 LINE",
"260 1062 LINE",
"35 0 LINE"
);
}
);
width = 684;
},
{
anchors = (
{
name = bottom;
position = "{88, 0}";
},
{
name = ogonek;
position = "{104, 0}";
},
{
name = top;
position = "{313, 1062}";
}
);
layerId = "2503C51C-5A6C-4B2C-A968-78FEA18C2585";
paths = (
{
closed = 1;
nodes = (
"104 0 LINE",
"330 1062 LINE",
"297 1062 LINE",
"72 0 LINE"
);
}
);
width = 462;
}
);
leftKerningGroup = idotless;
rightKerningGroup = idotless;
unicode = 0131;
},
{
glyphname = j;
lastChange = "2020-01-24 14:51:46 +0000";
layers = (
{
layerId = "A1A0948C-E637-4A65-8CCC-05505AD98C44";
paths = (
{
closed = 1;
nodes = (
"271 -435 OFFCURVE",
"324 -278 OFFCURVE",
"326 -103 CURVE",
"326 1062 LINE",
"295 1062 LINE",
"295 -96 LINE SMOOTH",
"295 -237 OFFCURVE",
"259 -407 OFFCURVE",
"34 -407 CURVE SMOOTH",
"-8 -407 OFFCURVE",
"-46 -398 OFFCURVE",
"-64 -391 CURVE",
"-64 -422 LINE",
"-48 -428 OFFCURVE",
"-11 -435 OFFCURVE",
"34 -435 CURVE SMOOTH"
);
},
{
closed = 1;
nodes = (
"342 1377 OFFCURVE",
"365 1400 OFFCURVE",
"365 1429 CURVE SMOOTH",
"365 1457 OFFCURVE",
"342 1480 OFFCURVE",
"314 1480 CURVE SMOOTH",
"285 1480 OFFCURVE",
"262 1457 OFFCURVE",
"262 1429 CURVE SMOOTH",
"262 1400 OFFCURVE",
"285 1377 OFFCURVE",
"314 1377 CURVE SMOOTH"
);
}
);
width = 569;
},
{
layerId = "584F9D0D-8480-40C6-ABEA-8DD6EE64252D";
paths = (
{
closed = 1;
nodes = (
"492 -464 OFFCURVE",
"571 -263 OFFCURVE",
"573 -88 CURVE",
"573 1062 LINE",
"171 1062 LINE",
"171 -81 LINE SMOOTH",
"171 -121 OFFCURVE",
"134 -173 OFFCURVE",
"19 -173 CURVE SMOOTH",
"-23 -173 OFFCURVE",
"-74 -168 OFFCURVE",
"-101 -165 CURVE",
"-101 -460 LINE",
"-73 -462 OFFCURVE",
"-21 -464 OFFCURVE",
"19 -464 CURVE SMOOTH"
);
},
{
closed = 1;
nodes = (
"502 1154 OFFCURVE",
"613 1222 OFFCURVE",
"613 1344 CURVE SMOOTH",
"613 1467 OFFCURVE",
"502 1534 OFFCURVE",
"375 1534 CURVE SMOOTH",
"247 1534 OFFCURVE",
"137 1467 OFFCURVE",
"137 1344 CURVE SMOOTH",
"137 1222 OFFCURVE",
"247 1154 OFFCURVE",
"375 1154 CURVE SMOOTH"
);
}
);
width = 718;
},
{
layerId = "3FDD6C00-F7FD-4E85-84B0-0136AF7D7529";
paths = (
{
closed = 1;
nodes = (
"260 -435 OFFCURVE",
"377 -234 OFFCURVE",
"416 -59 CURVE",
"656 1062 LINE",
"252 1062 LINE",
"14 -52 LINE SMOOTH",
"3 -103 OFFCURVE",
"-44 -144 OFFCURVE",
"-140 -144 CURVE SMOOTH",
"-179 -144 OFFCURVE",
"-225 -140 OFFCURVE",
"-250 -136 CURVE",
"-308 -431 LINE",
"-281 -433 OFFCURVE",
"-233 -435 OFFCURVE",
"-196 -435 CURVE SMOOTH"
);
},
{
closed = 1;
nodes = (
"633 1154 OFFCURVE",
"773 1234 OFFCURVE",
"773 1375 CURVE SMOOTH",
"773 1478 OFFCURVE",
"689 1534 OFFCURVE",
"573 1534 CURVE SMOOTH",
"428 1534 OFFCURVE",
"292 1450 OFFCURVE",
"292 1311 CURVE SMOOTH",
"292 1210 OFFCURVE",
"377.005 1154 OFFCURVE",
"493 1154 CURVE SMOOTH"
);
}
);
width = 718;
},
{
layerId = "2503C51C-5A6C-4B2C-A968-78FEA18C2585";
paths = (
{
closed = 1;
nodes = (
"42 -435 OFFCURVE",
"120 -276 OFFCURVE",
"157 -103 CURVE SMOOTH",
"405 1062 LINE",
"373 1062 LINE",
"127 -94 LINE SMOOTH",
"97 -236 OFFCURVE",
"28 -407 OFFCURVE",
"-176 -407 CURVE SMOOTH",
"-214 -407 OFFCURVE",
"-249 -399 OFFCURVE",
"-264 -393 CURVE",
"-267 -422 LINE",
"-254 -428 OFFCURVE",
"-221 -435 OFFCURVE",
"-179 -435 CURVE"
);
},
{
closed = 1;
nodes = (
"494 1377 OFFCURVE",
"523 1404 OFFCURVE",
"523 1439 CURVE SMOOTH",
"523 1462 OFFCURVE",
"505 1480 OFFCURVE",
"480 1480 CURVE SMOOTH",
"450 1480 OFFCURVE",
"418 1457 OFFCURVE",
"418 1417 CURVE SMOOTH",
"418 1394 OFFCURVE",
"437 1377 OFFCURVE",
"462 1377 CURVE SMOOTH"
);
}
);
width = 569;
}
);
leftKerningGroup = j;
note = j;
rightKerningGroup = j;
unicode = 006A;
},
{
glyphname = k;
lastChange = "2020-01-24 14:51:53 +0000";
layers = (
{
anchors = (
{
name = bottom;
position = "{477, 0}";
},
{
name = top;
position = "{477, 1563}";
}
);
layerId = "A1A0948C-E637-4A65-8CCC-05505AD98C44";
paths = (
{
closed = 1;
nodes = (
"167 0 LINE",
"167 531 LINE",
"155 507 LINE",
"306 627 LINE",
"283 630 LINE",
"813 0 LINE",
"858 0 LINE",
"311 653 LINE",
"308 630 LINE",
"840 1062 LINE",
"792 1062 LINE",
"152 549 LINE",
"167 542 LINE",
"167 1563 LINE",
"135 1563 LINE",
"135 0 LINE"
);
}
);
width = 954;
},
{
anchors = (
{
name = bottom;
position = "{650, 0}";
},
{
name = top;
position = "{650, 1563}";
}
);
layerId = "584F9D0D-8480-40C6-ABEA-8DD6EE64252D";
paths = (
{
closed = 1;
nodes = (
"480 0 LINE",
"480 514 LINE",
"433 365 LINE",
"620 520 LINE",
"509 505 LINE",
"835 0 LINE",
"1256 0 LINE",
"754 734 LINE",
"697 587 LINE",
"1274 1062 LINE",
"787 1062 LINE",
"391 738 LINE",
"480 710 LINE",
"480 1563 LINE",
"98 1563 LINE",
"98 0 LINE"
);
}
);
width = 1299;
},
{
anchors = (
{
name = bottom;
position = "{529.132, 0}";
},
{
name = top;
position = "{861.358, 1563}";
}
);
layerId = "3FDD6C00-F7FD-4E85-84B0-0136AF7D7529";
paths = (
{
closed = 1;
nodes = (
"354 0 LINE",
"463 514 LINE",
"387 365 LINE",
"603 520 LINE",
"502 505 LINE",
"706 0 LINE",
"1114 0 LINE",
"780 734 LINE",
"694 587 LINE",
"1358 1062 LINE",
"864 1062 LINE",
"396 738 LINE",
"502 710 LINE",
"686 1563 LINE",
"304 1563 LINE",
"-28 0 LINE"
);
}
);
width = 1299;
},
{
anchors = (
{
name = bottom;
position = "{356.132, 0}";
},
{
name = top;
position = "{688.358, 1563}";
}
);
layerId = "2503C51C-5A6C-4B2C-A968-78FEA18C2585";
paths = (
{
closed = 1;
nodes = (
"51 0 LINE",
"164 531 LINE",
"148 507 LINE",
"321 627 LINE",
"305 630 LINE",
"688 0 LINE",
"727 0 LINE",
"332 653 LINE",
"323 630 LINE",
"935 1062 LINE",
"883 1062 LINE",
"149 549 LINE",
"166 542 LINE",
"383 1563 LINE",
"351 1563 LINE",
"19 0 LINE"
);
}
);
width = 954;
}
);
leftKerningGroup = h;
note = k;
rightKerningGroup = k;
unicode = 006B;
},
{
glyphname = l;
lastChange = "2020-01-24 14:52:04 +0000";
layers = (
{
anchors = (
{
name = bottom;
position = "{140, 0}";
},
{
name = center;
position = "{140, 782}";
},
{
name = top;
position = "{140, 1563}";
},
{
name = topright;
position = "{301, 1563}";
}
);
layerId = "A1A0948C-E637-4A65-8CCC-05505AD98C44";
paths = (
{
closed = 1;
nodes = (
"127 1563 LINE",
"127 0 LINE",
"152 0 LINE",
"152 1563 LINE"
);
}
);
width = 368;
},
{
anchors = (
{
name = bottom;
position = "{314, 0}";
},
{
name = center;
position = "{314, 782}";
},
{
name = top;
position = "{314, 1563}";
},
{
name = topright;
position = "{625, 1563}";
}
);
layerId = "584F9D0D-8480-40C6-ABEA-8DD6EE64252D";
paths = (
{
closed = 1;
nodes = (
"121 1563 LINE",
"121 0 LINE",
"518 0 LINE",
"518 1563 LINE"
);
}
);
width = 666;
},
{
anchors = (
{
name = bottom;
position = "{200, 0}";
},
{
name = center;
position = "{366, 782}";
},
{
name = top;
position = "{532, 1563}";
},
{
name = topright;
position = "{845, 1563}";
}
);
layerId = "3FDD6C00-F7FD-4E85-84B0-0136AF7D7529";
paths = (
{
closed = 1;
nodes = (
"337 1563 LINE",
"5 0 LINE",
"406 0 LINE",
"738 1563 LINE"
);
}
);
width = 666;
},
{
anchors = (
{
name = bottom;
position = "{28, 0}";
},
{
name = center;
position = "{194, 782}";
},
{
name = top;
position = "{360, 1563}";
},
{
name = topright;
position = "{524, 1563}";
}
);
layerId = "2503C51C-5A6C-4B2C-A968-78FEA18C2585";
paths = (
{
closed = 1;
nodes = (
"343 1563 LINE",
"11 0 LINE",
"41 0 LINE",
"373 1563 LINE"
);
}
);
width = 368;
}
);
leftKerningGroup = h;
note = l;
rightKerningGroup = l;
unicode = 006C;
},
{
glyphname = l.ss01;
lastChange = "2020-01-26 15:05:56 +0000";
layers = (
{
layerId = "A1A0948C-E637-4A65-8CCC-05505AD98C44";
paths = (
{
closed = 1;
nodes = (
"350 -7 OFFCURVE",
"382 -3 OFFCURVE",
"397 0 CURVE",
"397 28 LINE",
"382 25 OFFCURVE",
"350 21 OFFCURVE",
"318 21 CURVE SMOOTH",
"238 21 OFFCURVE",
"155 42 OFFCURVE",
"155 186 CURVE SMOOTH",
"155 203 OFFCURVE",
"155 222 OFFCURVE",
"155 244 CURVE SMOOTH",
"155 1563 LINE",
"127 1563 LINE",
"127 252 LINE SMOOTH",
"127 228 OFFCURVE",
"127 207 OFFCURVE",
"127 188 CURVE SMOOTH",
"127 22 OFFCURVE",
"229 -7 OFFCURVE",
"317 -7 CURVE SMOOTH"
);
}
);
width = 525;
},
{
layerId = "584F9D0D-8480-40C6-ABEA-8DD6EE64252D";
paths = (
{
closed = 1;
nodes = (
"655 -20 OFFCURVE",
"722 -9 OFFCURVE",
"761 0 CURVE",
"761 292 LINE",
"734 286 OFFCURVE",
"682 278 OFFCURVE",
"637 278 CURVE SMOOTH",
"565 278 OFFCURVE",
"525 297 OFFCURVE",
"525 388 CURVE SMOOTH",
"525 400 OFFCURVE",
"525 414 OFFCURVE",
"525 430 CURVE SMOOTH",
"525 1563 LINE",
"121 1563 LINE",
"121 415 LINE",
"121 382 OFFCURVE",
"121 353 OFFCURVE",
"121 326 CURVE SMOOTH",
"121 28 OFFCURVE",
"375 -20 OFFCURVE",
"566 -20 CURVE SMOOTH"
);
}
);
width = 821;
},
{
layerId = "3FDD6C00-F7FD-4E85-84B0-0136AF7D7529";
paths = (
{
closed = 1;
nodes = (
"535 -20 OFFCURVE",
"604 -9 OFFCURVE",
"645 0 CURVE",
"707 292 LINE",
"679 286 OFFCURVE",
"625 278 OFFCURVE",
"580 278 CURVE SMOOTH",
"521 278 OFFCURVE",
"486 291 OFFCURVE",
"486 346 CURVE SMOOTH",
"486 358 OFFCURVE",
"488 372 OFFCURVE",
"491 388 CURVE SMOOTH",
"741 1563 LINE",
"337 1563 LINE",
"74 326 LINE SMOOTH",
"67 293 OFFCURVE",
"64 264 OFFCURVE",
"64 237 CURVE SMOOTH",
"64 18 OFFCURVE",
"276 -20 OFFCURVE",
"446 -20 CURVE SMOOTH"
);
}
);
width = 828;
},
{
layerId = "2503C51C-5A6C-4B2C-A968-78FEA18C2585";
paths = (
{
closed = 1;
nodes = (
"232 -7 OFFCURVE",
"265 -3 OFFCURVE",
"281 0 CURVE",
"287 28 LINE",
"271 25 OFFCURVE",
"238 21 OFFCURVE",
"206 21 CURVE SMOOTH",
"138 21 OFFCURVE",
"71 36 OFFCURVE",
"71 128 CURVE SMOOTH",
"71 145 OFFCURVE",
"73 164 OFFCURVE",
"78 186 CURVE SMOOTH",
"371 1563 LINE",
"343 1563 LINE",
"51 188 LINE SMOOTH",
"46 164 OFFCURVE",
"44 143 OFFCURVE",
"44 124 CURVE SMOOTH",
"44 14 OFFCURVE",
"124 -7 OFFCURVE",
"199 -7 CURVE SMOOTH"
);
}
);
width = 521;
}
);
leftKerningGroup = l;
leftMetricsKey = l;
rightKerningGroup = t;
rightMetricsKey = t;
},
{
glyphname = lslash;
lastChange = "2019-12-17 19:59:18 +0000";
layers = (
{
components = (
{
name = l;
transform = "{1, 0, 0, 1, 19, 0}";
}
);
layerId = "A1A0948C-E637-4A65-8CCC-05505AD98C44";
paths = (
{
closed = 1;
nodes = (
"59 599 LINE",
"416 863 LINE",
"394 887 LINE",
"37 623 LINE"
);
}
);
width = 487;
},
{
components = (
{
name = l;
transform = "{1, 0, 0, 1, 69, 0}";
}
);
layerId = "584F9D0D-8480-40C6-ABEA-8DD6EE64252D";
paths = (
{
closed = 1;
nodes = (
"113 457 LINE",
"862 802 LINE",
"764 1010 LINE",
"15 664 LINE"
);
}
);
width = 800;
},
{
components = (
{
name = l;
transform = "{1, 0, 0, 1, 94, 0}";
}
);
layerId = "3FDD6C00-F7FD-4E85-84B0-0136AF7D7529";
paths = (
{
closed = 1;
nodes = (
"107 457 LINE",
"910 802 LINE",
"844 1010 LINE",
"42 664 LINE"
);
}
);
width = 800;
},
{
components = (
{
name = l;
transform = "{1, 0, 0, 1, 42, 0}";
}
);
layerId = "2503C51C-5A6C-4B2C-A968-78FEA18C2585";
paths = (
{
closed = 1;
nodes = (
"70 599 LINE",
"474 863 LINE",
"455 887 LINE",
"52 623 LINE"
);
}
);
width = 487;
}
);
leftKerningGroup = lslash;
rightKerningGroup = lslash;
unicode = 0142;
},
{
glyphname = m;
lastChange = "2020-01-24 14:52:27 +0000";
layers = (
{
anchors = (
{
name = bottom;
position = "{765, 0}";
},
{
name = top;
position = "{765, 1062}";
}
);
layerId = "A1A0948C-E637-4A65-8CCC-05505AD98C44";
paths = (
{
closed = 1;
nodes = (
"777 0 LINE",
"777 523 LINE SMOOTH",
"777 602 OFFCURVE",
"777 673 OFFCURVE",
"777 723 CURVE SMOOTH",
"777 945 OFFCURVE",
"702 1073 OFFCURVE",
"483 1073 CURVE SMOOTH",
"243 1073 OFFCURVE",
"104 883 OFFCURVE",
"104 675 CURVE",
"134 662 LINE",
"134 788 OFFCURVE",
"215 1045 OFFCURVE",
"484 1045 CURVE SMOOTH",
"735 1045 OFFCURVE",
"745 822 OFFCURVE",
"745 719 CURVE SMOOTH",
"745 677 OFFCURVE",
"745 614 OFFCURVE",
"745 526 CURVE SMOOTH",
"745 0 LINE"
);
},
{
closed = 1;
nodes = (
"134 0 LINE",
"134 1062 LINE",
"102 1062 LINE",
"102 0 LINE"
);
},
{
closed = 1;
nodes = (
"1419 0 LINE",
"1419 551 LINE SMOOTH",
"1419 624 OFFCURVE",
"1419 699 OFFCURVE",
"1419 750 CURVE SMOOTH",
"1419 970 OFFCURVE",
"1318 1073 OFFCURVE",
"1119 1073 CURVE SMOOTH",
"877 1073 OFFCURVE",
"747 885 OFFCURVE",
"747 696 CURVE",
"777 687 LINE",
"777 787 OFFCURVE",
"847 1045 OFFCURVE",
"1120 1045 CURVE SMOOTH",
"1387 1045 OFFCURVE",
"1387 818 OFFCURVE",
"1387 726 CURVE SMOOTH",
"1387 681 OFFCURVE",
"1387 627 OFFCURVE",
"1387 528 CURVE SMOOTH",
"1387 0 LINE"
);
}
);
width = 1629;
},
{
anchors = (
{
name = bottom;
position = "{945, 0}";
},
{
name = top;
position = "{945, 1062}";
}
);
layerId = "584F9D0D-8480-40C6-ABEA-8DD6EE64252D";
paths = (
{
closed = 1;
nodes = (
"1133 0 LINE",
"1133 330 LINE",
"1133 485 OFFCURVE",
"1133 591 OFFCURVE",
"1133 651 CURVE SMOOTH",
"1133 878 OFFCURVE",
"1072 1073 OFFCURVE",
"792 1073 CURVE SMOOTH",
"539 1073 OFFCURVE",
"389 903 OFFCURVE",
"389 612 CURVE",
"466 522 LINE",
"466 659 OFFCURVE",
"504 761 OFFCURVE",
"608 761 CURVE SMOOTH",
"723 761 OFFCURVE",
"733 650 OFFCURVE",
"733 542 CURVE SMOOTH",
"733 504 OFFCURVE",
"733 447 OFFCURVE",
"733 373 CURVE",
"733 0 LINE"
);
},
{
closed = 1;
nodes = (
"466 0 LINE",
"466 1062 LINE",
"63 1062 LINE",
"63 0 LINE"
);
},
{
closed = 1;
nodes = (
"1801 0 LINE",
"1801 333 LINE",
"1801 489 OFFCURVE",
"1801 588 OFFCURVE",
"1801 651 CURVE SMOOTH",
"1801 878 OFFCURVE",
"1737 1073 OFFCURVE",
"1458 1073 CURVE SMOOTH",
"1205 1073 OFFCURVE",
"1056 903 OFFCURVE",
"1056 612 CURVE",
"1133 522 LINE",
"1133 659 OFFCURVE",
"1170 761 OFFCURVE",
"1274 761 CURVE SMOOTH",
"1383 761 OFFCURVE",
"1398 666 OFFCURVE",
"1398 542 CURVE SMOOTH",
"1398 505 OFFCURVE",
"1398 446 OFFCURVE",
"1398 371 CURVE",
"1398 0 LINE"
);
}
);
width = 1904;
},
{
anchors = (
{
name = bottom;
position = "{836.132, 0}";
},
{
name = top;
position = "{1061.868, 1062}";
}
);
layerId = "3FDD6C00-F7FD-4E85-84B0-0136AF7D7529";
paths = (
{
closed = 1;
nodes = (
"1018 0 LINE",
"1122 488 LINE",
"1154 643 OFFCURVE",
"1174 749 OFFCURVE",
"1174 809 CURVE SMOOTH",
"1174 962 OFFCURVE",
"1107 1073 OFFCURVE",
"895 1073 CURVE SMOOTH",
"642 1073 OFFCURVE",
"466 903 OFFCURVE",
"404 612 CURVE",
"462 522 LINE",
"491 659 OFFCURVE",
"551 761 OFFCURVE",
"655 761 CURVE SMOOTH",
"728 761 OFFCURVE",
"749 717 OFFCURVE",
"749 657 CURVE SMOOTH",
"749 619 OFFCURVE",
"739 562 OFFCURVE",
"722 488 CURVE",
"618 0 LINE"
);
},
{
closed = 1;
nodes = (
"351 0 LINE",
"577 1062 LINE",
"174 1062 LINE",
"-52 0 LINE"
);
},
{
closed = 1;
nodes = (
"1686 0 LINE",
"1790 488 LINE",
"1822 644 OFFCURVE",
"1842 743 OFFCURVE",
"1842 806 CURVE SMOOTH",
"1842 960 OFFCURVE",
"1774 1073 OFFCURVE",
"1561 1073 CURVE SMOOTH",
"1308 1073 OFFCURVE",
"1133 903 OFFCURVE",
"1071 612 CURVE",
"1129 522 LINE",
"1158 659 OFFCURVE",
"1217 761 OFFCURVE",
"1321 761 CURVE SMOOTH",
"1392 761 OFFCURVE",
"1415 721 OFFCURVE",
"1415 659 CURVE SMOOTH",
"1415 622 OFFCURVE",
"1404 563 OFFCURVE",
"1387 488 CURVE",
"1283 0 LINE"
);
}
);
width = 1904;
},
{
anchors = (
{
name = bottom;
position = "{648, 0}";
},
{
name = top;
position = "{874, 1062}";
}
);
layerId = "2503C51C-5A6C-4B2C-A968-78FEA18C2585";
paths = (
{
closed = 1;
nodes = (
"664 0 LINE",
"803 653 LINE SMOOTH",
"820 732 OFFCURVE",
"834 803 OFFCURVE",
"834 853 CURVE SMOOTH",
"834 994 OFFCURVE",
"762 1073 OFFCURVE",
"590 1073 CURVE SMOOTH",
"350 1073 OFFCURVE",
"180 883 OFFCURVE",
"135 675 CURVE",
"162 662 LINE",
"188 788 OFFCURVE",
"324 1045 OFFCURVE",
"593 1045 CURVE SMOOTH",
"762 1045 OFFCURVE",
"803 944 OFFCURVE",
"803 846 CURVE SMOOTH",
"803 804 OFFCURVE",
"790 741 OFFCURVE",
"771 653 CURVE SMOOTH",
"632 0 LINE"
);
},
{
closed = 1;
nodes = (
"21 0 LINE",
"247 1062 LINE",
"215 1062 LINE",
"-11 0 LINE"
);
},
{
closed = 1;
nodes = (
"1306 0 LINE",
"1445 653 LINE SMOOTH",
"1461 726 OFFCURVE",
"1475 791 OFFCURVE",
"1475 852 CURVE SMOOTH",
"1475 1002 OFFCURVE",
"1391 1073 OFFCURVE",
"1226 1073 CURVE SMOOTH",
"984 1073 OFFCURVE",
"822 885 OFFCURVE",
"782 696 CURVE",
"810 687 LINE",
"831 787 OFFCURVE",
"956 1045 OFFCURVE",
"1229 1045 CURVE SMOOTH",
"1406 1045 OFFCURVE",
"1443 945 OFFCURVE",
"1443 851 CURVE SMOOTH",
"1443 806 OFFCURVE",
"1434 752 OFFCURVE",
"1413 653 CURVE SMOOTH",
"1274 0 LINE"
);
}
);
width = 1629;
}
);
leftKerningGroup = n;
note = m;
rightKerningGroup = n;
unicode = 006D;
},
{
glyphname = n;
lastChange = "2020-01-24 14:52:52 +0000";
layers = (
{
anchors = (
{
name = bottom;
position = "{532, 0}";
},
{
name = top;
position = "{532, 1062}";
}
);
layerId = "A1A0948C-E637-4A65-8CCC-05505AD98C44";
paths = (
{
closed = 1;
nodes = (
"903 0 LINE",
"903 563 LINE SMOOTH",
"903 596 OFFCURVE",
"903 657 OFFCURVE",
"903 707 CURVE SMOOTH",
"903 947 OFFCURVE",
"792 1073 OFFCURVE",
"561 1073 CURVE SMOOTH",
"358 1073 OFFCURVE",
"134 927 OFFCURVE",
"134 701 CURVE",
"163 690 LINE",
"163 898 OFFCURVE",
"367 1045 OFFCURVE",
"564 1045 CURVE SMOOTH",
"787 1045 OFFCURVE",
"871 906 OFFCURVE",
"871 707 CURVE SMOOTH",
"871 668 OFFCURVE",
"871 639 OFFCURVE",
"871 566 CURVE SMOOTH",
"871 0 LINE"
);
},
{
closed = 1;
nodes = (
"163 0 LINE",
"163 1062 LINE",
"131 1062 LINE",
"131 0 LINE"
);
}
);
width = 1103;
},
{
anchors = (
{
name = bottom;
position = "{651, 0}";
},
{
name = top;
position = "{651, 1062}";
}
);
layerId = "584F9D0D-8480-40C6-ABEA-8DD6EE64252D";
paths = (
{
closed = 1;
nodes = (
"1216 0 LINE",
"1216 375 LINE SMOOTH",
"1216 480 OFFCURVE",
"1216 577 OFFCURVE",
"1216 651 CURVE SMOOTH",
"1216 903 OFFCURVE",
"1120 1073 OFFCURVE",
"849 1073 CURVE SMOOTH",
"593 1073 OFFCURVE",
"420 903 OFFCURVE",
"419 612 CURVE",
"497 542 LINE",
"497 679 OFFCURVE",
"547 761 OFFCURVE",
"664 761 CURVE SMOOTH",
"799 761 OFFCURVE",
"813 651 OFFCURVE",
"813 542 CURVE SMOOTH",
"813 511 OFFCURVE",
"813 455 OFFCURVE",
"813 413 CURVE SMOOTH",
"813 0 LINE"
);
},
{
closed = 1;
nodes = (
"497 0 LINE",
"497 1062 LINE",
"94 1062 LINE",
"94 0 LINE"
);
}
);
width = 1321;
},
{
anchors = (
{
name = bottom;
position = "{548.132, 0}";
},
{
name = top;
position = "{773.868, 1062}";
}
);
layerId = "3FDD6C00-F7FD-4E85-84B0-0136AF7D7529";
paths = (
{
closed = 1;
nodes = (
"1099 0 LINE",
"1209 517 LINE SMOOTH",
"1232 622 OFFCURVE",
"1253 719 OFFCURVE",
"1253 793 CURVE SMOOTH",
"1253 965 OFFCURVE",
"1166 1073 OFFCURVE",
"950 1073 CURVE SMOOTH",
"694 1073 OFFCURVE",
"495 903 OFFCURVE",
"432 612 CURVE",
"495 542 LINE",
"524 679 OFFCURVE",
"592 761 OFFCURVE",
"709 761 CURVE SMOOTH",
"799 761 OFFCURVE",
"827 711 OFFCURVE",
"827 646 CURVE SMOOTH",
"827 615 OFFCURVE",
"816 559 OFFCURVE",
"806 517 CURVE SMOOTH",
"696 0 LINE"
);
},
{
closed = 1;
nodes = (
"380 0 LINE",
"606 1062 LINE",
"203 1062 LINE",
"-23 0 LINE"
);
}
);
width = 1321;
},
{
anchors = (
{
name = bottom;
position = "{419, 0}";
},
{
name = top;
position = "{645, 1062}";
}
);
layerId = "2503C51C-5A6C-4B2C-A968-78FEA18C2585";
paths = (
{
closed = 1;
nodes = (
"789 0 LINE",
"934 684 LINE SMOOTH",
"941 717 OFFCURVE",
"953 778 OFFCURVE",
"953 828 CURVE SMOOTH",
"953 989 OFFCURVE",
"860 1073 OFFCURVE",
"672 1073 CURVE SMOOTH",
"469 1073 OFFCURVE",
"222 935 OFFCURVE",
"169 701 CURVE",
"196 690 LINE",
"240 898 OFFCURVE",
"473 1045 OFFCURVE",
"670 1045 CURVE SMOOTH",
"848 1045 OFFCURVE",
"920 964 OFFCURVE",
"920 825 CURVE SMOOTH",
"920 786 OFFCURVE",
"917 757 OFFCURVE",
"902 684 CURVE SMOOTH",
"757 0 LINE"
);
},
{
closed = 1;
nodes = (
"49 0 LINE",
"275 1062 LINE",
"243 1062 LINE",
"17 0 LINE"
);
}
);
width = 1103;
}
);
leftKerningGroup = n;
note = n;
rightKerningGroup = n;
unicode = 006E;
},
{
glyphname = eng;
lastChange = "2020-01-24 15:16:38 +0000";
layers = (
{
components = (
{
name = n;
}
);
layerId = "A1A0948C-E637-4A65-8CCC-05505AD98C44";
paths = (
{
closed = 1;
nodes = (
"871 -96 LINE SMOOTH",
"871 -236 OFFCURVE",
"834 -407 OFFCURVE",
"610 -407 CURVE SMOOTH",
"569 -407 OFFCURVE",
"530 -399 OFFCURVE",
"512 -393 CURVE",
"512 -422 LINE",
"528 -428 OFFCURVE",
"565 -435 OFFCURVE",
"610 -435 CURVE SMOOTH",
"881 -435 OFFCURVE",
"903 -224 OFFCURVE",
"903 -96 CURVE SMOOTH",
"903 0 LINE",
"871 0 LINE"
);
}
);
width = 1103;
},
{
components = (
{
name = n;
}
);
layerId = "584F9D0D-8480-40C6-ABEA-8DD6EE64252D";
paths = (
{
closed = 1;
nodes = (
"813 -9 LINE SMOOTH",
"813 -92 OFFCURVE",
"786 -144 OFFCURVE",
"681 -144 CURVE SMOOTH",
"637 -144 OFFCURVE",
"599 -141 OFFCURVE",
"583 -138 CURVE",
"583 -428 LINE",
"599 -431 OFFCURVE",
"636 -435 OFFCURVE",
"681 -435 CURVE SMOOTH",
"1104 -435 OFFCURVE",
"1216 -186 OFFCURVE",
"1216 -9 CURVE SMOOTH",
"1216 0 LINE",
"813 0 LINE"
);
}
);
width = 1321;
},
{
components = (
{
name = n;
}
);
layerId = "3FDD6C00-F7FD-4E85-84B0-0136AF7D7529";
paths = (
{
closed = 1;
nodes = (
"693 -10 LINE SMOOTH",
"665 -104 OFFCURVE",
"618 -144 OFFCURVE",
"528 -144 CURVE SMOOTH",
"485 -144 OFFCURVE",
"448 -141 OFFCURVE",
"432 -138 CURVE",
"380 -428 LINE",
"395 -431 OFFCURVE",
"431 -435 OFFCURVE",
"476 -435 CURVE SMOOTH",
"890 -435 OFFCURVE",
"1062 -187 OFFCURVE",
"1097 -10 CURVE SMOOTH",
"1099 0 LINE",
"696 0 LINE"
);
}
);
width = 1321;
},
{
components = (
{
name = n;
}
);
layerId = "2503C51C-5A6C-4B2C-A968-78FEA18C2585";
paths = (
{
closed = 1;
nodes = (
"736 -94 LINE SMOOTH",
"705 -234 OFFCURVE",
"634 -407 OFFCURVE",
"413 -407 CURVE SMOOTH",
"375 -407 OFFCURVE",
"338 -401 OFFCURVE",
"320 -396 CURVE",
"316 -422 LINE",
"331 -428 OFFCURVE",
"367 -435 OFFCURVE",
"412 -435 CURVE SMOOTH",
"656 -435 OFFCURVE",
"733 -261 OFFCURVE",
"768 -98 CURVE SMOOTH",
"789 0 LINE",
"757 0 LINE"
);
}
);
width = 1103;
}
);
leftKerningGroup = n;
leftMetricsKey = n;
rightKerningGroup = n;
rightMetricsKey = n;
unicode = 014B;
},
{
glyphname = o;
lastChange = "2020-01-24 14:53:13 +0000";
layers = (
{
anchors = (
{
name = bottom;
position = "{528, 0}";
},
{
name = center;
position = "{528, 531}";
},
{
name = ogonek;
position = "{656, 10}";
},
{
name = top;
position = "{528, 1062}";
},
{
name = topright;
position = "{1075, 1062}";
}
);
layerId = "A1A0948C-E637-4A65-8CCC-05505AD98C44";
paths = (
{
closed = 1;
nodes = (
"815 -15 OFFCURVE",
"963 208 OFFCURVE",
"963 533 CURVE SMOOTH",
"963 857 OFFCURVE",
"815 1073 OFFCURVE",
"526 1073 CURVE SMOOTH",
"237 1073 OFFCURVE",
"89 858 OFFCURVE",
"89 533 CURVE SMOOTH",
"89 209 OFFCURVE",
"237 -15 OFFCURVE",
"526 -15 CURVE SMOOTH"
);
},
{
closed = 1;
nodes = (
"261 13 OFFCURVE",
"122 233 OFFCURVE",
"122 533 CURVE SMOOTH",
"122 833 OFFCURVE",
"261 1045 OFFCURVE",
"526 1045 CURVE SMOOTH",
"791 1045 OFFCURVE",
"930 833 OFFCURVE",
"930 533 CURVE SMOOTH",
"930 233 OFFCURVE",
"791 13 OFFCURVE",
"526 13 CURVE SMOOTH"
);
}
);
width = 1135;
},
{
anchors = (
{
name = bottom;
position = "{642, 0}";
},
{
name = center;
position = "{642, 531}";
},
{
name = ogonek;
position = "{799, 10}";
},
{
name = top;
position = "{642, 1062}";
},
{
name = topright;
position = "{1275, 1062}";
}
);
layerId = "584F9D0D-8480-40C6-ABEA-8DD6EE64252D";
paths = (
{
closed = 1;
nodes = (
"1010 -15 OFFCURVE",
"1228 190 OFFCURVE",
"1228 530 CURVE SMOOTH",
"1228 870 OFFCURVE",
"1027 1073 OFFCURVE",
"642 1073 CURVE SMOOTH",
"272 1073 OFFCURVE",
"56 870 OFFCURVE",
"56 530 CURVE SMOOTH",
"56 190 OFFCURVE",
"255 -15 OFFCURVE",
"642 -15 CURVE SMOOTH"
);
},
{
closed = 1;
nodes = (
"517 270 OFFCURVE",
"461 355 OFFCURVE",
"461 530 CURVE SMOOTH",
"461 705 OFFCURVE",
"517 788 OFFCURVE",
"642 788 CURVE SMOOTH",
"767 788 OFFCURVE",
"823 705 OFFCURVE",
"823 530 CURVE SMOOTH",
"823 355 OFFCURVE",
"767 270 OFFCURVE",
"642 270 CURVE SMOOTH"
);
}
);
width = 1306;
},
{
anchors = (
{
name = bottom;
position = "{530, 0}";
},
{
name = center;
position = "{643, 531}";
},
{
name = ogonek;
position = "{698, 10}";
},
{
name = top;
position = "{756, 1062}";
},
{
name = topright;
position = "{1389, 1062}";
}
);
layerId = "3FDD6C00-F7FD-4E85-84B0-0136AF7D7529";
paths = (
{
closed = 1;
nodes = (
"954 -15 OFFCURVE",
"1241 253 OFFCURVE",
"1241 662 CURVE SMOOTH",
"1241 907 OFFCURVE",
"1069 1073 OFFCURVE",
"738 1073 CURVE SMOOTH",
"328 1073 OFFCURVE",
"43 808 OFFCURVE",
"43 397 CURVE SMOOTH",
"43 152 OFFCURVE",
"214 -15 OFFCURVE",
"546 -15 CURVE SMOOTH"
);
},
{
closed = 1;
nodes = (
"491 270 OFFCURVE",
"447 337 OFFCURVE",
"447 434 CURVE SMOOTH",
"447 620 OFFCURVE",
"535 788 OFFCURVE",
"698 788 CURVE SMOOTH",
"791 788 OFFCURVE",
"837 722 OFFCURVE",
"837 626 CURVE SMOOTH",
"837 440 OFFCURVE",
"746 270 OFFCURVE",
"584 270 CURVE SMOOTH"
);
}
);
width = 1306;
},
{
anchors = (
{
name = bottom;
position = "{415, 0}";
},
{
name = center;
position = "{528, 531}";
},
{
name = ogonek;
position = "{526, 10}";
},
{
name = top;
position = "{641, 1062}";
},
{
name = topright;
position = "{1188, 1062}";
}
);
layerId = "2503C51C-5A6C-4B2C-A968-78FEA18C2585";
paths = (
{
closed = 1;
nodes = (
"762 -15 OFFCURVE",
"977 318 OFFCURVE",
"977 696 CURVE SMOOTH",
"977 919 OFFCURVE",
"864 1073 OFFCURVE",
"634 1073 CURVE SMOOTH",
"273 1073 OFFCURVE",
"71 747 OFFCURVE",
"71 367 CURVE SMOOTH",
"71 143 OFFCURVE",
"175 -15 OFFCURVE",
"411 -15 CURVE SMOOTH"
);
},
{
closed = 1;
nodes = (
"197 13 OFFCURVE",
"105 163 OFFCURVE",
"105 374 CURVE SMOOTH",
"105 726 OFFCURVE",
"300 1045 OFFCURVE",
"634 1045 CURVE SMOOTH",
"849 1045 OFFCURVE",
"943 899 OFFCURVE",
"943 689 CURVE SMOOTH",
"943 340 OFFCURVE",
"743 13 OFFCURVE",
"411 13 CURVE SMOOTH"
);
}
);
width = 1135;
}
);
leftKerningGroup = o;
note = o;
rightKerningGroup = o;
unicode = 006F;
},
{
glyphname = oslash;
lastChange = "2019-12-19 16:48:57 +0000";
layers = (
{
components = (
{
name = o;
}
);
layerId = "A1A0948C-E637-4A65-8CCC-05505AD98C44";
paths = (
{
closed = 1;
nodes = (
"849 1082 LINE",
"816 1091 LINE",
"229 -13 LINE",
"264 -22 LINE"
);
}
);
width = 1135;
},
{
components = (
{
name = o;
}
);
layerId = "584F9D0D-8480-40C6-ABEA-8DD6EE64252D";
paths = (
{
closed = 1;
nodes = (
"1104 1078 LINE",
"955 1158 LINE",
"213 -28 LINE",
"357 -105 LINE"
);
}
);
width = 1306;
},
{
components = (
{
name = o;
}
);
layerId = "3FDD6C00-F7FD-4E85-84B0-0136AF7D7529";
paths = (
{
closed = 1;
nodes = (
"1195 1078 LINE",
"1055 1158 LINE",
"84 -28 LINE",
"220 -105 LINE"
);
}
);
width = 1306;
},
{
components = (
{
name = o;
}
);
layerId = "2503C51C-5A6C-4B2C-A968-78FEA18C2585";
paths = (
{
closed = 1;
nodes = (
"949 1082 LINE",
"918 1091 LINE",
"113 -13 LINE",
"148 -22 LINE"
);
}
);
width = 1135;
}
);
leftKerningGroup = o;
leftMetricsKey = o;
rightKerningGroup = o;
rightMetricsKey = o;
unicode = 00F8;
},
{
glyphname = p;
lastChange = "2020-01-24 14:53:42 +0000";
layers = (
{
anchors = (
{
name = bottom;
position = "{563, 0}";
},
{
name = top;
position = "{563, 1062}";
}
);
layerId = "A1A0948C-E637-4A65-8CCC-05505AD98C44";
paths = (
{
closed = 1;
nodes = (
"778 -15 OFFCURVE",
"929 177 OFFCURVE",
"929 534 CURVE SMOOTH",
"929 881 OFFCURVE",
"779 1073 OFFCURVE",
"519 1073 CURVE SMOOTH",
"299 1073 OFFCURVE",
"126 894 OFFCURVE",
"126 675 CURVE",
"156 675 LINE",
"156 872 OFFCURVE",
"325 1045 OFFCURVE",
"520 1045 CURVE SMOOTH",
"763 1045 OFFCURVE",
"896 862 OFFCURVE",
"896 534 CURVE SMOOTH",
"896 204 OFFCURVE",
"763 13 OFFCURVE",
"520 13 CURVE SMOOTH",
"325 13 OFFCURVE",
"156 186 OFFCURVE",
"156 383 CURVE",
"126 383 LINE",
"126 164 OFFCURVE",
"299 -15 OFFCURVE",
"519 -15 CURVE SMOOTH"
);
},
{
closed = 1;
nodes = (
"156 -437 LINE",
"156 1062 LINE",
"124 1062 LINE",
"124 -437 LINE"
);
}
);
width = 1126;
},
{
anchors = (
{
name = bottom;
position = "{683, 0}";
},
{
name = top;
position = "{683, 1062}";
}
);
layerId = "584F9D0D-8480-40C6-ABEA-8DD6EE64252D";
paths = (
{
closed = 1;
nodes = (
"1086 -15 OFFCURVE",
"1271 170 OFFCURVE",
"1271 542 CURVE SMOOTH",
"1271 894 OFFCURVE",
"1076 1073 OFFCURVE",
"819 1073 CURVE SMOOTH",
"574 1073 OFFCURVE",
"363 878 OFFCURVE",
"363 583 CURVE",
"495 583 LINE",
"495 706 OFFCURVE",
"599 769 OFFCURVE",
"682 769 CURVE SMOOTH",
"774 769 OFFCURVE",
"865 709 OFFCURVE",
"865 542 CURVE SMOOTH",
"865 375 OFFCURVE",
"774 306 OFFCURVE",
"682 306 CURVE SMOOTH",
"597 306 OFFCURVE",
"495 374 OFFCURVE",
"495 497 CURVE",
"363 497 LINE",
"363 202 OFFCURVE",
"574 -15 OFFCURVE",
"819 -15 CURVE SMOOTH"
);
},
{
closed = 1;
nodes = (
"495 -437 LINE",
"495 1062 LINE",
"91 1062 LINE",
"91 -437 LINE"
);
}
);
width = 1365;
},
{
anchors = (
{
name = bottom;
position = "{563.132, 0}";
},
{
name = top;
position = "{788.868, 1062}";
}
);
layerId = "3FDD6C00-F7FD-4E85-84B0-0136AF7D7529";
paths = (
{
closed = 1;
nodes = (
"1059 -15 OFFCURVE",
"1282 321 OFFCURVE",
"1282 687 CURVE SMOOTH",
"1282 937 OFFCURVE",
"1135 1073 OFFCURVE",
"917 1073 CURVE SMOOTH",
"672 1073 OFFCURVE",
"430 878 OFFCURVE",
"367 583 CURVE",
"499 583 LINE",
"525 706 OFFCURVE",
"643 769 OFFCURVE",
"726 769 CURVE SMOOTH",
"804 769 OFFCURVE",
"867 718 OFFCURVE",
"867 606 CURVE SMOOTH",
"867 453 OFFCURVE",
"773 306 OFFCURVE",
"627 306 CURVE SMOOTH",
"520 306 OFFCURVE",
"481 364 OFFCURVE",
"481 498 CURVE",
"349 498 LINE",
"349 181 OFFCURVE",
"430 -15 OFFCURVE",
"706 -15 CURVE SMOOTH"
);
},
{
closed = 1;
nodes = (
"283 -437 LINE",
"601 1062 LINE",
"197 1062 LINE",
"-121 -437 LINE"
);
}
);
width = 1365;
},
{
anchors = (
{
name = bottom;
position = "{443.132, 0}";
},
{
name = top;
position = "{668.868, 1062}";
}
);
layerId = "2503C51C-5A6C-4B2C-A968-78FEA18C2585";
paths = (
{
closed = 1;
nodes = (
"746 -15 OFFCURVE",
"947 355 OFFCURVE",
"947 726 CURVE SMOOTH",
"947 951 OFFCURVE",
"834 1073 OFFCURVE",
"627 1073 CURVE SMOOTH",
"407 1073 OFFCURVE",
"198 894 OFFCURVE",
"152 675 CURVE",
"182 675 LINE",
"224 872 OFFCURVE",
"430 1045 OFFCURVE",
"625 1045 CURVE SMOOTH",
"816 1045 OFFCURVE",
"915 932 OFFCURVE",
"915 726 CURVE SMOOTH",
"915 378 OFFCURVE",
"726 13 OFFCURVE",
"405 13 CURVE SMOOTH",
"207 13 OFFCURVE",
"120 144 OFFCURVE",
"120 384 CURVE",
"90 384 LINE",
"90 102 OFFCURVE",
"198 -15 OFFCURVE",
"404 -15 CURVE SMOOTH"
);
},
{
closed = 1;
nodes = (
"-54 -437 LINE",
"264 1062 LINE",
"232 1062 LINE",
"-86 -437 LINE"
);
}
);
width = 1126;
}
);
leftKerningGroup = p;
note = p;
rightKerningGroup = o;
unicode = 0070;
},
{
glyphname = thorn;
lastChange = "2020-01-24 15:16:38 +0000";
layers = (
{
components = (
{
name = b;
}
);
layerId = "A1A0948C-E637-4A65-8CCC-05505AD98C44";
paths = (
{
closed = 1;
nodes = (
"151 755 LINE",
"151 -437 LINE",
"183 -437 LINE",
"183 755 LINE"
);
}
);
width = 1153;
},
{
components = (
{
name = b;
}
);
layerId = "584F9D0D-8480-40C6-ABEA-8DD6EE64252D";
paths = (
{
closed = 1;
nodes = (
"103 654 LINE",
"103 -437 LINE",
"507 -437 LINE",
"507 654 LINE"
);
}
);
width = 1383;
},
{
components = (
{
name = b;
transform = "{1, 0, 0, 1, 3, 0}";
}
);
layerId = "3FDD6C00-F7FD-4E85-84B0-0136AF7D7529";
paths = (
{
closed = 1;
nodes = (
"116 623 LINE",
"-115 -437 LINE",
"291 -437 LINE",
"547 748 LINE"
);
}
);
width = 1386;
},
{
components = (
{
name = b;
transform = "{1, 0, 0, 1, 4, 0}";
}
);
layerId = "2503C51C-5A6C-4B2C-A968-78FEA18C2585";
paths = (
{
closed = 1;
nodes = (
"195 761 LINE",
"-67 -437 LINE",
"-31 -437 LINE",
"236 812 LINE"
);
}
);
width = 1157;
}
);
leftKerningGroup = h;
leftMetricsKey = b;
note = thorn;
rightKerningGroup = o;
rightMetricsKey = b;
unicode = 00FE;
},
{
glyphname = q;
lastChange = "2020-01-24 14:53:52 +0000";
layers = (
{
anchors = (
{
name = bottom;
position = "{558, 0}";
},
{
name = top;
position = "{558, 1062}";
}
);
layerId = "A1A0948C-E637-4A65-8CCC-05505AD98C44";
paths = (
{
closed = 1;
nodes = (
"730 -15 OFFCURVE",
"903 164 OFFCURVE",
"903 383 CURVE",
"873 383 LINE",
"873 186 OFFCURVE",
"704 13 OFFCURVE",
"509 13 CURVE SMOOTH",
"266 13 OFFCURVE",
"133 204 OFFCURVE",
"133 534 CURVE SMOOTH",
"133 862 OFFCURVE",
"266 1045 OFFCURVE",
"509 1045 CURVE SMOOTH",
"704 1045 OFFCURVE",
"873 872 OFFCURVE",
"873 675 CURVE",
"903 675 LINE",
"903 894 OFFCURVE",
"730 1073 OFFCURVE",
"510 1073 CURVE SMOOTH",
"250 1073 OFFCURVE",
"100 881 OFFCURVE",
"100 534 CURVE SMOOTH",
"100 177 OFFCURVE",
"251 -15 OFFCURVE",
"510 -15 CURVE SMOOTH"
);
},
{
closed = 1;
nodes = (
"905 -437 LINE",
"905 1062 LINE",
"873 1062 LINE",
"873 -437 LINE"
);
}
);
width = 1115;
},
{
anchors = (
{
name = bottom;
position = "{683, 0}";
},
{
name = top;
position = "{683, 1062}";
}
);
layerId = "584F9D0D-8480-40C6-ABEA-8DD6EE64252D";
paths = (
{
closed = 1;
nodes = (
"768 -15 OFFCURVE",
"979 202 OFFCURVE",
"979 497 CURVE",
"847 497 LINE",
"847 374 OFFCURVE",
"745 306 OFFCURVE",
"660 306 CURVE SMOOTH",
"568 306 OFFCURVE",
"477 375 OFFCURVE",
"477 542 CURVE SMOOTH",
"477 709 OFFCURVE",
"568 769 OFFCURVE",
"660 769 CURVE SMOOTH",
"743 769 OFFCURVE",
"847 706 OFFCURVE",
"847 583 CURVE",
"979 583 LINE",
"979 878 OFFCURVE",
"768 1073 OFFCURVE",
"523 1073 CURVE SMOOTH",
"266 1073 OFFCURVE",
"71 894 OFFCURVE",
"71 542 CURVE SMOOTH",
"71 170 OFFCURVE",
"256 -15 OFFCURVE",
"523 -15 CURVE SMOOTH"
);
},
{
closed = 1;
nodes = (
"1251 -437 LINE",
"1251 1062 LINE",
"847 1062 LINE",
"847 -437 LINE"
);
}
);
width = 1365;
},
{
anchors = (
{
name = bottom;
position = "{566.132, 0}";
},
{
name = top;
position = "{791.868, 1062}";
}
);
layerId = "3FDD6C00-F7FD-4E85-84B0-0136AF7D7529";
paths = (
{
closed = 1;
nodes = (
"647 -15 OFFCURVE",
"894 202 OFFCURVE",
"957 497 CURVE",
"825 497 LINE",
"799 374 OFFCURVE",
"682 306 OFFCURVE",
"597 306 CURVE SMOOTH",
"519 306 OFFCURVE",
"459 362 OFFCURVE",
"459 476 CURVE SMOOTH",
"459 632 OFFCURVE",
"546 769 OFFCURVE",
"696 769 CURVE SMOOTH",
"789 769 OFFCURVE",
"843 703 OFFCURVE",
"843 581 CURVE",
"975 581 LINE",
"975 892 OFFCURVE",
"884 1073 OFFCURVE",
"623 1073 CURVE SMOOTH",
"264 1073 OFFCURVE",
"42 744 OFFCURVE",
"42 375 CURVE SMOOTH",
"42 119 OFFCURVE",
"179 -15 OFFCURVE",
"402 -15 CURVE SMOOTH"
);
},
{
closed = 1;
nodes = (
"1031 -437 LINE",
"1349 1062 LINE",
"945 1062 LINE",
"627 -437 LINE"
);
}
);
width = 1365;
},
{
anchors = (
{
name = bottom;
position = "{441.132, 0}";
},
{
name = top;
position = "{666.868, 1062}";
}
);
layerId = "2503C51C-5A6C-4B2C-A968-78FEA18C2585";
paths = (
{
closed = 1;
nodes = (
"619 -15 OFFCURVE",
"828 164 OFFCURVE",
"875 383 CURVE",
"845 383 LINE",
"803 186 OFFCURVE",
"597 13 OFFCURVE",
"402 13 CURVE SMOOTH",
"209 13 OFFCURVE",
"119 132 OFFCURVE",
"119 346 CURVE SMOOTH",
"119 705 OFFCURVE",
"284 1045 OFFCURVE",
"620 1045 CURVE SMOOTH",
"835 1045 OFFCURVE",
"907 907 OFFCURVE",
"907 674 CURVE",
"937 674 LINE",
"937 940 OFFCURVE",
"844 1073 OFFCURVE",
"621 1073 CURVE SMOOTH",
"267 1073 OFFCURVE",
"85 724 OFFCURVE",
"85 343 CURVE SMOOTH",
"85 108 OFFCURVE",
"191 -15 OFFCURVE",
"399 -15 CURVE SMOOTH"
);
},
{
closed = 1;
nodes = (
"703 -437 LINE",
"1021 1062 LINE",
"989 1062 LINE",
"671 -437 LINE"
);
}
);
width = 1115;
}
);
leftKerningGroup = o;
note = q;
rightKerningGroup = q;
unicode = 0071;
},
{
glyphname = r;
lastChange = "2020-01-24 14:54:00 +0000";
layers = (
{
anchors = (
{
name = bottom;
position = "{406, 0}";
},
{
name = top;
position = "{406, 1062}";
}
);
layerId = "A1A0948C-E637-4A65-8CCC-05505AD98C44";
paths = (
{
closed = 1;
nodes = (
"165 0 LINE",
"165 752 LINE",
"165 887 OFFCURVE",
"317 1045 OFFCURVE",
"547 1045 CURVE SMOOTH",
"631 1045 OFFCURVE",
"683 1024 OFFCURVE",
"685 1023 CURVE",
"699 1049 LINE",
"685 1054 OFFCURVE",
"630 1073 OFFCURVE",
"546 1073 CURVE SMOOTH",
"392 1073 OFFCURVE",
"222 998 OFFCURVE",
"161 859 CURVE",
"165 855 LINE",
"165 1062 LINE",
"133 1062 LINE",
"133 0 LINE"
);
}
);
width = 811;
},
{
anchors = (
{
name = bottom;
position = "{508, 0}";
},
{
name = top;
position = "{508, 1062}";
}
);
layerId = "584F9D0D-8480-40C6-ABEA-8DD6EE64252D";
paths = (
{
closed = 1;
nodes = (
"475 0 LINE",
"475 468 LINE",
"475 610 OFFCURVE",
"599 736 OFFCURVE",
"807 736 CURVE SMOOTH",
"866 736 OFFCURVE",
"910 717 OFFCURVE",
"922 710 CURVE",
"997 1062 LINE",
"984 1067 OFFCURVE",
"953 1077 OFFCURVE",
"867 1077 CURVE SMOOTH",
"660 1077 OFFCURVE",
"486 949 OFFCURVE",
"446 723 CURVE",
"475 669 LINE",
"475 1062 LINE",
"71 1062 LINE",
"71 0 LINE"
);
}
);
width = 1016;
},
{
anchors = (
{
name = bottom;
position = "{386.132, 0}";
},
{
name = top;
position = "{611.868, 1062}";
}
);
layerId = "3FDD6C00-F7FD-4E85-84B0-0136AF7D7529";
paths = (
{
closed = 1;
nodes = (
"360 0 LINE",
"459 468 LINE",
"489 610 OFFCURVE",
"640 736 OFFCURVE",
"848 736 CURVE SMOOTH",
"907 736 OFFCURVE",
"947 717 OFFCURVE",
"957 710 CURVE",
"1107 1062 LINE",
"1095 1067 OFFCURVE",
"1066 1077 OFFCURVE",
"980 1077 CURVE SMOOTH",
"773 1077 OFFCURVE",
"572 949 OFFCURVE",
"484 723 CURVE",
"502 669 LINE",
"585 1062 LINE",
"181 1062 LINE",
"-44 0 LINE"
);
}
);
width = 1016;
},
{
anchors = (
{
name = bottom;
position = "{283.132, 0}";
},
{
name = top;
position = "{508.868, 1062}";
}
);
layerId = "2503C51C-5A6C-4B2C-A968-78FEA18C2585";
paths = (
{
closed = 1;
nodes = (
"51 0 LINE",
"211 752 LINE",
"240 887 OFFCURVE",
"428 1045 OFFCURVE",
"658 1045 CURVE SMOOTH",
"742 1045 OFFCURVE",
"787 1024 OFFCURVE",
"788 1023 CURVE",
"808 1049 LINE",
"795 1054 OFFCURVE",
"742 1073 OFFCURVE",
"658 1073 CURVE SMOOTH",
"504 1073 OFFCURVE",
"318 998 OFFCURVE",
"228 859 CURVE",
"233 855 LINE",
"277 1062 LINE",
"245 1062 LINE",
"19 0 LINE"
);
}
);
width = 811;
}
);
leftKerningGroup = n;
note = r;
rightKerningGroup = r;
unicode = 0072;
},
{
glyphname = s;
lastChange = "2020-01-24 14:54:10 +0000";
layers = (
{
anchors = (
{
name = bottom;
position = "{504, 0}";
},
{
name = top;
position = "{504, 1062}";
}
);
layerId = "A1A0948C-E637-4A65-8CCC-05505AD98C44";
paths = (
{
closed = 1;
nodes = (
"738.667 -15 OFFCURVE",
"887 88 OFFCURVE",
"887 256 CURVE SMOOTH",
"887 424 OFFCURVE",
"773.667 503.667 OFFCURVE",
"511 553 CURVE SMOOTH",
"296.333 593 OFFCURVE",
"171 655 OFFCURVE",
"171 808 CURVE SMOOTH",
"171 963 OFFCURVE",
"322 1045 OFFCURVE",
"505 1045 CURVE SMOOTH",
"680 1045 OFFCURVE",
"835 974 OFFCURVE",
"835 753 CURVE SMOOTH",
"835 746 OFFCURVE",
"835 736 OFFCURVE",
"835 729 CURVE",
"867 729 LINE",
"867 737 OFFCURVE",
"867 747 OFFCURVE",
"867 754 CURVE SMOOTH",
"867 988 OFFCURVE",
"704 1073 OFFCURVE",
"501 1073 CURVE SMOOTH",
"306 1073 OFFCURVE",
"139 976 OFFCURVE",
"139 812 CURVE SMOOTH",
"139 637 OFFCURVE",
"271 568 OFFCURVE",
"507 524 CURVE SMOOTH",
"744.333 480 OFFCURVE",
"855 408.667 OFFCURVE",
"855 254 CURVE SMOOTH",
"855 106 OFFCURVE",
"720.667 13 OFFCURVE",
"502 13 CURVE SMOOTH",
"283 13 OFFCURVE",
"164 114 OFFCURVE",
"153 289 CURVE SMOOTH",
"152 305 OFFCURVE",
"152 323 OFFCURVE",
"152 335 CURVE",
"120 335 LINE",
"120 323 OFFCURVE",
"120 306 OFFCURVE",
"121 291 CURVE SMOOTH",
"134 98 OFFCURVE",
"256 -15 OFFCURVE",
"504 -15 CURVE SMOOTH"
);
}
);
width = 1067;
},
{
anchors = (
{
name = bottom;
position = "{634, 0}";
},
{
name = top;
position = "{634, 1062}";
}
);
layerId = "584F9D0D-8480-40C6-ABEA-8DD6EE64252D";
paths = (
{
closed = 1;
nodes = (
"925 -15 OFFCURVE",
"1200 73 OFFCURVE",
"1200 342 CURVE SMOOTH",
"1200 592 OFFCURVE",
"882 642 OFFCURVE",
"703 665 CURVE SMOOTH",
"562 683 OFFCURVE",
"478 704 OFFCURVE",
"478 740 CURVE SMOOTH",
"478 782 OFFCURVE",
"562 796 OFFCURVE",
"633 796 CURVE SMOOTH",
"734 796 OFFCURVE",
"796 769 OFFCURVE",
"796 714 CURVE",
"796 711 OFFCURVE",
"796 707 OFFCURVE",
"796 704 CURVE",
"1191 704 LINE",
"1191 707 OFFCURVE",
"1191 711 OFFCURVE",
"1191 714 CURVE",
"1191 938 OFFCURVE",
"937 1073 OFFCURVE",
"636 1073 CURVE SMOOTH",
"340 1073 OFFCURVE",
"80 965 OFFCURVE",
"80 733 CURVE SMOOTH",
"80 507 OFFCURVE",
"370 414 OFFCURVE",
"552 396 CURVE SMOOTH",
"733 378 OFFCURVE",
"806 359 OFFCURVE",
"806 325 CURVE SMOOTH",
"806 282 OFFCURVE",
"717 265 OFFCURVE",
"643 265 CURVE SMOOTH",
"531 265 OFFCURVE",
"460 290 OFFCURVE",
"460 346 CURVE",
"460 349 OFFCURVE",
"460 353 OFFCURVE",
"460 356 CURVE",
"61 356 LINE",
"61 353 OFFCURVE",
"61 349 OFFCURVE",
"61 346 CURVE",
"61 98 OFFCURVE",
"351 -15 OFFCURVE",
"641 -15 CURVE SMOOTH"
);
}
);
width = 1280;
},
{
anchors = (
{
name = bottom;
position = "{534, 0}";
},
{
name = top;
position = "{740, 1062}";
}
);
layerId = "3FDD6C00-F7FD-4E85-84B0-0136AF7D7529";
paths = (
{
closed = 1;
nodes = (
"845 -15 OFFCURVE",
"1162 84 OFFCURVE",
"1162 378 CURVE SMOOTH",
"1162 590 OFFCURVE",
"897 643 OFFCURVE",
"732 665 CURVE SMOOTH",
"595 683 OFFCURVE",
"523 703 OFFCURVE",
"523 740 CURVE SMOOTH",
"523 782 OFFCURVE",
"619 796 OFFCURVE",
"690 796 CURVE SMOOTH",
"782 796 OFFCURVE",
"837 774 OFFCURVE",
"837 728 CURVE SMOOTH",
"837 724 OFFCURVE",
"834 708 OFFCURVE",
"833 704 CURVE",
"1228 704 LINE",
"1230 711 OFFCURVE",
"1236 753 OFFCURVE",
"1236 771 CURVE SMOOTH",
"1236 961 OFFCURVE",
"1013 1073 OFFCURVE",
"738 1073 CURVE SMOOTH",
"441 1073 OFFCURVE",
"121 969 OFFCURVE",
"121 700 CURVE SMOOTH",
"121 506 OFFCURVE",
"356 421 OFFCURVE",
"524 396 CURVE SMOOTH",
"701 370 OFFCURVE",
"763 357 OFFCURVE",
"763 325 CURVE SMOOTH",
"763 281 OFFCURVE",
"661 265 OFFCURVE",
"587 265 CURVE SMOOTH",
"484 265 OFFCURVE",
"420 286 OFFCURVE",
"420 333 CURVE SMOOTH",
"420 337 OFFCURVE",
"422 350 OFFCURVE",
"423 356 CURVE",
"24 356 LINE",
"22 346 OFFCURVE",
"15 310 OFFCURVE",
"15 286 CURVE SMOOTH",
"15 80 OFFCURVE",
"269 -15 OFFCURVE",
"535 -15 CURVE SMOOTH"
);
}
);
width = 1280;
},
{
anchors = (
{
name = bottom;
position = "{387, 0}";
},
{
name = top;
position = "{603, 1062}";
}
);
layerId = "2503C51C-5A6C-4B2C-A968-78FEA18C2585";
paths = (
{
closed = 1;
nodes = (
"627 -15 OFFCURVE",
"837 96 OFFCURVE",
"837 312 CURVE SMOOTH",
"837 427 OFFCURVE",
"766 505 OFFCURVE",
"514 553 CURVE SMOOTH",
"306 593 OFFCURVE",
"220 649 OFFCURVE",
"220 759 CURVE SMOOTH",
"220 944 OFFCURVE",
"429 1045 OFFCURVE",
"612 1045 CURVE SMOOTH",
"787 1045 OFFCURVE",
"888 972 OFFCURVE",
"888 842 CURVE SMOOTH",
"888 802 OFFCURVE",
"878 751 OFFCURVE",
"873 729 CURVE",
"905 729 LINE",
"910 752 OFFCURVE",
"921 804 OFFCURVE",
"921 842 CURVE SMOOTH",
"921 985 OFFCURVE",
"815 1073 OFFCURVE",
"612 1073 CURVE SMOOTH",
"417 1073 OFFCURVE",
"187 967 OFFCURVE",
"187 753 CURVE SMOOTH",
"187 630 OFFCURVE",
"281 568 OFFCURVE",
"508 524 CURVE SMOOTH",
"736 480 OFFCURVE",
"803 418 OFFCURVE",
"803 305 CURVE SMOOTH",
"803 119 OFFCURVE",
"611 13 OFFCURVE",
"392 13 CURVE SMOOTH",
"173 13 OFFCURVE",
"98 107 OFFCURVE",
"98 233 CURVE SMOOTH",
"98 269 OFFCURVE",
"109 323 OFFCURVE",
"112 335 CURVE",
"79 335 LINE",
"76 323 OFFCURVE",
"65 271 OFFCURVE",
"65 228 CURVE SMOOTH",
"65 91 OFFCURVE",
"144 -15 OFFCURVE",
"392 -15 CURVE SMOOTH"
);
}
);
width = 1067;
}
);
leftKerningGroup = s;
note = s;
rightKerningGroup = s;
unicode = 0073;
},
{
glyphname = s.001;
lastChange = "2019-12-17 19:59:18 +0000";
layers = (
{
layerId = "A1A0948C-E637-4A65-8CCC-05505AD98C44";
paths = (
{
closed = 1;
nodes = (
"121 159 OFFCURVE",
"199 87 QCURVE SMOOTH",
"310 -15 OFFCURVE",
"504 -15 QCURVE SMOOTH",
"680 -15 OFFCURVE",
"887 120 OFFCURVE",
"887 256 QCURVE SMOOTH",
"887 392 OFFCURVE",
"708 516 OFFCURVE",
"511 553 QCURVE SMOOTH",
"350 583 OFFCURVE",
"166 693 OFFCURVE",
"166 808 QCURVE SMOOTH",
"166 934 OFFCURVE",
"352 1045 OFFCURVE",
"500 1045 QCURVE SMOOTH",
"623 1045 OFFCURVE",
"704 997 QCURVE SMOOTH",
"764 961 OFFCURVE",
"830 848 OFFCURVE",
"830 743 QCURVE",
"862 743 LINE",
"862 848 OFFCURVE",
"803 972 OFFCURVE",
"735 1014 QCURVE SMOOTH",
"640 1073 OFFCURVE",
"496 1073 QCURVE SMOOTH",
"339 1073 OFFCURVE",
"134 945 OFFCURVE",
"134 812 QCURVE SMOOTH",
"134 681 OFFCURVE",
"330 558 OFFCURVE",
"507 524 QCURVE SMOOTH",
"684 490 OFFCURVE",
"855 380 OFFCURVE",
"855 254 QCURVE SMOOTH",
"855 133 OFFCURVE",
"666 13 OFFCURVE",
"502 13 QCURVE SMOOTH",
"329 13 OFFCURVE",
"223 109 QCURVE SMOOTH",
"153 172 OFFCURVE",
"152 315 QCURVE",
"120 315 LINE"
);
}
);
width = 1078;
},
{
layerId = "584F9D0D-8480-40C6-ABEA-8DD6EE64252D";
paths = (
{
closed = 1;
nodes = (
"103 152 OFFCURVE",
"256 62 QCURVE SMOOTH",
"388 -15 OFFCURVE",
"621 -15 QCURVE SMOOTH",
"864 -15 OFFCURVE",
"1170 158 OFFCURVE",
"1170 315 QCURVE SMOOTH",
"1170 466 OFFCURVE",
"947 627 OFFCURVE",
"751 653 QCURVE SMOOTH",
"579 676 OFFCURVE",
"478 717 OFFCURVE",
"478 744 QCURVE SMOOTH",
"478 770 OFFCURVE",
"554 796 OFFCURVE",
"609 796 QCURVE SMOOTH",
"674 796 OFFCURVE",
"716 772 QCURVE SMOOTH",
"736 761 OFFCURVE",
"760 723 OFFCURVE",
"762 704 QCURVE",
"1141 785 LINE",
"1127 849 OFFCURVE",
"1018 965 OFFCURVE",
"949 1002 QCURVE SMOOTH",
"817 1073 OFFCURVE",
"607 1073 QCURVE SMOOTH",
"372 1073 OFFCURVE",
"81 888 OFFCURVE",
"81 743 QCURVE SMOOTH",
"81 604 OFFCURVE",
"303 441 OFFCURVE",
"490 417 QCURVE SMOOTH",
"667 394 OFFCURVE",
"756 354 OFFCURVE",
"756 325 QCURVE SMOOTH",
"756 299 OFFCURVE",
"689 267 OFFCURVE",
"633 267 QCURVE SMOOTH",
"572 267 OFFCURVE",
"523 286 QCURVE SMOOTH",
"462 310 OFFCURVE",
"450 366 QCURVE",
"61 273 LINE"
);
}
);
width = 1249;
},
{
layerId = "3FDD6C00-F7FD-4E85-84B0-0136AF7D7529";
paths = (
{
closed = 1;
nodes = (
"22 160 OFFCURVE",
"166 62 QCURVE SMOOTH",
"280 -15 OFFCURVE",
"522 -15 QCURVE SMOOTH",
"765 -15 OFFCURVE",
"1085 158 OFFCURVE",
"1118 315 QCURVE SMOOTH",
"1150 467 OFFCURVE",
"961 627 OFFCURVE",
"772 653 QCURVE SMOOTH",
"593 678 OFFCURVE",
"518 720 OFFCURVE",
"524 743 QCURVE SMOOTH",
"531 770 OFFCURVE",
"611 796 OFFCURVE",
"667 796 QCURVE SMOOTH",
"732 796 OFFCURVE",
"768 772 QCURVE SMOOTH",
"782 763 OFFCURVE",
"798 723 OFFCURVE",
"794 704 QCURVE",
"1189 785 LINE",
"1183 835 OFFCURVE",
"1120 954 OFFCURVE",
"1036 1002 QCURVE SMOOTH",
"912 1073 OFFCURVE",
"700 1073 QCURVE SMOOTH",
"476 1073 OFFCURVE",
"157 888 OFFCURVE",
"127 745 QCURVE SMOOTH",
"97 603 OFFCURVE",
"284 441 OFFCURVE",
"465 417 QCURVE SMOOTH",
"621 396 OFFCURVE",
"715 358 OFFCURVE",
"706 324 QCURVE SMOOTH",
"699 299 OFFCURVE",
"622 267 OFFCURVE",
"569 267 QCURVE SMOOTH",
"509 267 OFFCURVE",
"466 286 QCURVE SMOOTH",
"412 310 OFFCURVE",
"413 366 QCURVE",
"7 273 LINE"
);
}
);
width = 1241;
},
{
layerId = "2503C51C-5A6C-4B2C-A968-78FEA18C2585";
paths = (
{
closed = 1;
nodes = (
"39 159 OFFCURVE",
"104 87 QCURVE SMOOTH",
"197 -15 OFFCURVE",
"391 -15 QCURVE SMOOTH",
"566 -15 OFFCURVE",
"792 120 OFFCURVE",
"821 255 QCURVE SMOOTH",
"850 392 OFFCURVE",
"700 515 OFFCURVE",
"511 553 QCURVE SMOOTH",
"357 584 OFFCURVE",
"199 693 OFFCURVE",
"223 808 QCURVE SMOOTH",
"249 934 OFFCURVE",
"458 1045 OFFCURVE",
"605 1045 QCURVE SMOOTH",
"727 1045 OFFCURVE",
"798 996 QCURVE SMOOTH",
"851 959 OFFCURVE",
"890 844 OFFCURVE",
"868 743 QCURVE",
"900 743 LINE",
"923 848 OFFCURVE",
"889 973 OFFCURVE",
"832 1013 QCURVE SMOOTH",
"745 1073 OFFCURVE",
"600 1073 QCURVE SMOOTH",
"443 1073 OFFCURVE",
"220 945 OFFCURVE",
"192 812 QCURVE SMOOTH",
"164 679 OFFCURVE",
"337 557 OFFCURVE",
"501 524 QCURVE SMOOTH",
"670 490 OFFCURVE",
"816 379 OFFCURVE",
"790 256 QCURVE SMOOTH",
"764 129 OFFCURVE",
"545 13 OFFCURVE",
"386 13 QCURVE SMOOTH",
"214 13 OFFCURVE",
"131 109 QCURVE SMOOTH",
"76 173 OFFCURVE",
"105 315 QCURVE",
"73 315 LINE"
);
}
);
width = 1071;
}
);
leftKerningGroup = s;
note = s;
rightKerningGroup = s;
},
{
glyphname = germandbls;
lastChange = "2020-01-24 15:16:38 +0000";
layers = (
{
layerId = "A1A0948C-E637-4A65-8CCC-05505AD98C44";
paths = (
{
closed = 1;
nodes = (
"160 0 LINE",
"160 1018 LINE SMOOTH",
"160 1312 OFFCURVE",
"295 1460 OFFCURVE",
"513 1460 CURVE SMOOTH",
"713 1460 OFFCURVE",
"781 1346 OFFCURVE",
"781 1211 CURVE SMOOTH",
"781 1063 OFFCURVE",
"708 1010 OFFCURVE",
"637 960 CURVE SMOOTH",
"594 929 OFFCURVE",
"558 893 OFFCURVE",
"558 833 CURVE SMOOTH",
"558 755 OFFCURVE",
"636 707 OFFCURVE",
"723 655 CURVE SMOOTH",
"821 596 OFFCURVE",
"923 515 OFFCURVE",
"923 359 CURVE SMOOTH",
"923 139 OFFCURVE",
"762 15 OFFCURVE",
"540 15 CURVE SMOOTH",
"473 15 OFFCURVE",
"398 36 OFFCURVE",
"374 47 CURVE",
"360 17 LINE",
"389 5 OFFCURVE",
"462 -13 OFFCURVE",
"542 -13 CURVE SMOOTH",
"792 -13 OFFCURVE",
"956 127 OFFCURVE",
"956 357 CURVE SMOOTH",
"956 527 OFFCURVE",
"848 620 OFFCURVE",
"745 679 CURVE SMOOTH",
"662 727 OFFCURVE",
"590 773 OFFCURVE",
"590 833 CURVE SMOOTH",
"590 885 OFFCURVE",
"625 914 OFFCURVE",
"671 949 CURVE SMOOTH",
"736 998 OFFCURVE",
"813 1058 OFFCURVE",
"813 1211 CURVE SMOOTH",
"813 1387 OFFCURVE",
"700 1489 OFFCURVE",
"515 1489 CURVE SMOOTH",
"272 1489 OFFCURVE",
"129 1328 OFFCURVE",
"129 1013 CURVE SMOOTH",
"129 0 LINE"
);
}
);
width = 1136;
},
{
layerId = "584F9D0D-8480-40C6-ABEA-8DD6EE64252D";
paths = (
{
closed = 1;
nodes = (
"491 0 LINE",
"491 881 LINE SMOOTH",
"491 1111 OFFCURVE",
"544 1198 OFFCURVE",
"683 1198 CURVE SMOOTH",
"784 1198 OFFCURVE",
"815 1141 OFFCURVE",
"815 1078 CURVE SMOOTH",
"815 1029 OFFCURVE",
"784 999 OFFCURVE",
"748 965 CURVE SMOOTH",
"707 926 OFFCURVE",
"665 879 OFFCURVE",
"665 789 CURVE SMOOTH",
"665 687 OFFCURVE",
"730 615 OFFCURVE",
"790 550 CURVE SMOOTH",
"838 498 OFFCURVE",
"881 451 OFFCURVE",
"881 397 CURVE SMOOTH",
"881 305 OFFCURVE",
"843 278 OFFCURVE",
"749 278 CURVE SMOOTH",
"695 278 OFFCURVE",
"649 294 OFFCURVE",
"627 302 CURVE",
"578 7 LINE",
"612 -4 OFFCURVE",
"685 -13 OFFCURVE",
"747 -13 CURVE SMOOTH",
"1138 -13 OFFCURVE",
"1277 147 OFFCURVE",
"1277 405 CURVE SMOOTH",
"1277 541 OFFCURVE",
"1204 627 OFFCURVE",
"1134 684 CURVE SMOOTH",
"1084 725 OFFCURVE",
"1042 761 OFFCURVE",
"1042 796 CURVE SMOOTH",
"1042 830 OFFCURVE",
"1067 855 OFFCURVE",
"1099 887 CURVE SMOOTH",
"1142 930 OFFCURVE",
"1190 989 OFFCURVE",
"1190 1104 CURVE SMOOTH",
"1190 1348 OFFCURVE",
"961 1489 OFFCURVE",
"695 1489 CURVE SMOOTH",
"453 1489 OFFCURVE",
"92 1423 OFFCURVE",
"92 933 CURVE SMOOTH",
"92 0 LINE"
);
}
);
width = 1357;
},
{
layerId = "3FDD6C00-F7FD-4E85-84B0-0136AF7D7529";
paths = (
{
closed = 1;
nodes = (
"377 0 LINE",
"564 881 LINE SMOOTH",
"613 1111 OFFCURVE",
"685 1198 OFFCURVE",
"824 1198 CURVE SMOOTH",
"906 1198 OFFCURVE",
"934 1160 OFFCURVE",
"934 1112 CURVE SMOOTH",
"934 1044 OFFCURVE",
"891 1008 OFFCURVE",
"834 965 CURVE SMOOTH",
"759 909 OFFCURVE",
"714 841 OFFCURVE",
"714 740 CURVE SMOOTH",
"714 663 OFFCURVE",
"758 601 OFFCURVE",
"800 550 CURVE SMOOTH",
"837 505 OFFCURVE",
"854 464 OFFCURVE",
"854 418 CURVE SMOOTH",
"854 326 OFFCURVE",
"798 278 OFFCURVE",
"694 278 CURVE SMOOTH",
"640 278 OFFCURVE",
"598 294 OFFCURVE",
"577 302 CURVE",
"466 7 LINE",
"497 -4 OFFCURVE",
"598 -13 OFFCURVE",
"660 -13 CURVE SMOOTH",
"1019 -13 OFFCURVE",
"1257 155 OFFCURVE",
"1257 477 CURVE SMOOTH",
"1257 573 OFFCURVE",
"1202 638 OFFCURVE",
"1156 684 CURVE SMOOTH",
"1118 722 OFFCURVE",
"1096 755 OFFCURVE",
"1096 787 CURVE SMOOTH",
"1096 822 OFFCURVE",
"1131 852 OFFCURVE",
"1174 885 CURVE SMOOTH",
"1270 959 OFFCURVE",
"1320 1063 OFFCURVE",
"1320 1180 CURVE SMOOTH",
"1320 1377 OFFCURVE",
"1105 1489 OFFCURVE",
"868 1489 CURVE SMOOTH",
"626 1489 OFFCURVE",
"280 1423 OFFCURVE",
"176 933 CURVE SMOOTH",
"-22 0 LINE"
);
}
);
width = 1359;
},
{
layerId = "2503C51C-5A6C-4B2C-A968-78FEA18C2585";
paths = (
{
closed = 1;
nodes = (
"43 0 LINE",
"260 1018 LINE SMOOTH",
"323 1312 OFFCURVE",
"488 1460 OFFCURVE",
"706 1460 CURVE SMOOTH",
"871 1460 OFFCURVE",
"930 1388 OFFCURVE",
"930 1280 CURVE SMOOTH",
"930 1129 OFFCURVE",
"852 1039 OFFCURVE",
"724 962 CURVE SMOOTH",
"663 925 OFFCURVE",
"615 873 OFFCURVE",
"615 809 CURVE SMOOTH",
"615 745 OFFCURVE",
"678 700 OFFCURVE",
"747 655 CURVE SMOOTH",
"822 606 OFFCURVE",
"890 544 OFFCURVE",
"890 426 CURVE SMOOTH",
"890 186 OFFCURVE",
"678 15 OFFCURVE",
"426 15 CURVE SMOOTH",
"359 15 OFFCURVE",
"289 36 OFFCURVE",
"267 47 CURVE",
"247 17 LINE",
"273 5 OFFCURVE",
"347 -13 OFFCURVE",
"427 -13 CURVE SMOOTH",
"700 -13 OFFCURVE",
"923 171 OFFCURVE",
"923 432 CURVE SMOOTH",
"923 555 OFFCURVE",
"847 629 OFFCURVE",
"770 679 CURVE SMOOTH",
"704 722 OFFCURVE",
"648 765 OFFCURVE",
"648 817 CURVE SMOOTH",
"648 876 OFFCURVE",
"705 914 OFFCURVE",
"758 949 CURVE SMOOTH",
"884 1031 OFFCURVE",
"962 1125 OFFCURVE",
"962 1285 CURVE SMOOTH",
"962 1415 OFFCURVE",
"867 1489 OFFCURVE",
"710 1489 CURVE SMOOTH",
"467 1489 OFFCURVE",
"294 1328 OFFCURVE",
"227 1013 CURVE SMOOTH",
"12 0 LINE"
);
}
);
width = 1130;
}
);
leftKerningGroup = h;
note = germandbls;
rightKerningGroup = s;
rightMetricsKey = s;
unicode = 00DF;
},
{
glyphname = t;
lastChange = "2020-01-26 15:09:11 +0000";
layers = (
{
anchors = (
{
name = bottom;
position = "{437, 0}";
},
{
name = center;
position = "{305, 531}";
},
{
name = top;
position = "{304, 1346}";
},
{
name = topright;
position = "{600, 1346}";
}
);
layerId = "A1A0948C-E637-4A65-8CCC-05505AD98C44";
paths = (
{
closed = 1;
nodes = (
"494 -10 OFFCURVE",
"526 -4 OFFCURVE",
"543 1 CURVE",
"543 30 LINE",
"527 25 OFFCURVE",
"494 19 OFFCURVE",
"463 19 CURVE SMOOTH",
"359 19 OFFCURVE",
"319 90 OFFCURVE",
"319 226 CURVE SMOOTH",
"319 253 OFFCURVE",
"319 285 OFFCURVE",
"319 322 CURVE SMOOTH",
"319 1034 LINE",
"605 1034 LINE",
"605 1062 LINE",
"319 1062 LINE",
"319 1346 LINE",
"287 1346 LINE",
"287 1062 LINE",
"60 1062 LINE",
"60 1034 LINE",
"287 1034 LINE",
"287 309 LINE SMOOTH",
"287 274 OFFCURVE",
"287 244 OFFCURVE",
"287 218 CURVE SMOOTH",
"287 42 OFFCURVE",
"359 -10 OFFCURVE",
"459 -10 CURVE SMOOTH"
);
}
);
width = 733;
},
{
anchors = (
{
name = bottom;
position = "{619, 0}";
},
{
name = center;
position = "{473, 531}";
},
{
name = top;
position = "{472, 1370}";
},
{
name = topright;
position = "{906, 1370}";
}
);
layerId = "584F9D0D-8480-40C6-ABEA-8DD6EE64252D";
paths = (
{
closed = 1;
nodes = (
"778 -16 OFFCURVE",
"837 -6 OFFCURVE",
"878 2 CURVE",
"878 292 LINE",
"857 288 OFFCURVE",
"810 282 OFFCURVE",
"762 282 CURVE SMOOTH",
"670 282 OFFCURVE",
"653 332 OFFCURVE",
"653 410 CURVE SMOOTH",
"653 430 OFFCURVE",
"653 449 OFFCURVE",
"653 469 CURVE SMOOTH",
"653 772 LINE",
"906 772 LINE",
"906 1062 LINE",
"653 1062 LINE",
"653 1370 LINE",
"249 1370 LINE",
"249 1062 LINE",
"42 1062 LINE",
"42 772 LINE",
"249 772 LINE",
"249 397 LINE SMOOTH",
"249 367 OFFCURVE",
"249 336 OFFCURVE",
"249 306 CURVE SMOOTH",
"249 8 OFFCURVE",
"526 -16 OFFCURVE",
"709 -16 CURVE SMOOTH"
);
}
);
width = 966;
},
{
anchors = (
{
name = bottom;
position = "{490, 0}";
},
{
name = center;
position = "{456, 531}";
},
{
name = top;
position = "{620, 1370}";
},
{
name = topright;
position = "{1075, 1370}";
}
);
layerId = "3FDD6C00-F7FD-4E85-84B0-0136AF7D7529";
paths = (
{
closed = 1;
nodes = (
"652 -16 OFFCURVE",
"713 -6 OFFCURVE",
"756 2 CURVE",
"817 292 LINE",
"795 288 OFFCURVE",
"747 282 OFFCURVE",
"699 282 CURVE SMOOTH",
"631 282 OFFCURVE",
"610 309 OFFCURVE",
"610 355 CURVE SMOOTH",
"610 371 OFFCURVE",
"613 389 OFFCURVE",
"617 410 CURVE SMOOTH",
"694 772 LINE",
"947 772 LINE",
"1009 1062 LINE",
"756 1062 LINE",
"821 1370 LINE",
"417 1370 LINE",
"352 1062 LINE",
"145 1062 LINE",
"83 772 LINE",
"290 772 LINE",
"191 306 LINE SMOOTH",
"184 274 OFFCURVE",
"180 246 OFFCURVE",
"180 220 CURVE SMOOTH",
"180 4 OFFCURVE",
"420 -16 OFFCURVE",
"583 -16 CURVE SMOOTH"
);
}
);
width = 966;
},
{
anchors = (
{
name = bottom;
position = "{325, 0}";
},
{
name = center;
position = "{305, 531}";
},
{
name = top;
position = "{479, 1346}";
},
{
name = topright;
position = "{780, 1346}";
}
);
layerId = "2503C51C-5A6C-4B2C-A968-78FEA18C2585";
paths = (
{
closed = 1;
nodes = (
"382 -10 OFFCURVE",
"413 -4 OFFCURVE",
"431 1 CURVE",
"437 30 LINE",
"420 25 OFFCURVE",
"381 19 OFFCURVE",
"350 19 CURVE SMOOTH",
"274 19 OFFCURVE",
"243 57 OFFCURVE",
"243 130 CURVE SMOOTH",
"243 157 OFFCURVE",
"247 189 OFFCURVE",
"255 226 CURVE SMOOTH",
"427 1034 LINE",
"713 1034 LINE",
"719 1062 LINE",
"433 1062 LINE",
"493 1346 LINE",
"461 1346 LINE",
"401 1062 LINE",
"174 1062 LINE",
"168 1034 LINE",
"395 1034 LINE",
"221 218 LINE SMOOTH",
"213 183 OFFCURVE",
"210 153 OFFCURVE",
"210 127 CURVE SMOOTH",
"210 23 OFFCURVE",
"267 -10 OFFCURVE",
"347 -10 CURVE SMOOTH"
);
}
);
width = 733;
}
);
leftKerningGroup = t;
note = t;
rightKerningGroup = t;
unicode = 0074;
},
{
glyphname = t.ss01;
lastChange = "2019-12-17 19:59:18 +0000";
layers = (
{
layerId = "A1A0948C-E637-4A65-8CCC-05505AD98C44";
paths = (
{
closed = 1;
nodes = (
"338 0 LINE",
"338 1386 LINE",
"308 1386 LINE",
"308 0 LINE"
);
},
{
closed = 1;
nodes = (
"652 1034 LINE",
"652 1062 LINE",
"81 1062 LINE",
"81 1034 LINE"
);
}
);
width = 816;
},
{
layerId = "584F9D0D-8480-40C6-ABEA-8DD6EE64252D";
paths = (
{
closed = 1;
nodes = (
"695 0 LINE",
"695 1380 LINE",
"293 1380 LINE",
"293 0 LINE"
);
},
{
closed = 1;
nodes = (
"987 772 LINE",
"987 1062 LINE",
"44 1062 LINE",
"44 772 LINE"
);
}
);
width = 1032;
},
{
layerId = "3FDD6C00-F7FD-4E85-84B0-0136AF7D7529";
paths = (
{
closed = 1;
nodes = (
"571 0 LINE",
"865 1380 LINE",
"463 1380 LINE",
"169 0 LINE"
);
},
{
closed = 1;
nodes = (
"1034 772 LINE",
"1089 1062 LINE",
"146 1062 LINE",
"91 772 LINE"
);
}
);
width = 1025;
},
{
layerId = "2503C51C-5A6C-4B2C-A968-78FEA18C2585";
paths = (
{
closed = 1;
nodes = (
"204 0 LINE",
"497 1386 LINE",
"465 1386 LINE",
"173 0 LINE"
);
},
{
closed = 1;
nodes = (
"735 1034 LINE",
"740 1062 LINE",
"172 1062 LINE",
"166 1034 LINE"
);
}
);
width = 795;
}
);
leftKerningGroup = t.ss01;
rightKerningGroup = t.ss01;
},
{
glyphname = tbar;
lastChange = "2020-01-26 15:07:52 +0000";
layers = (
{
components = (
{
name = t;
}
);
layerId = "A1A0948C-E637-4A65-8CCC-05505AD98C44";
paths = (
{
closed = 1;
nodes = (
"602 765 LINE",
"602 793 LINE",
"60 793 LINE",
"60 765 LINE"
);
}
);
width = 733;
},
{
components = (
{
name = t;
}
);
layerId = "584F9D0D-8480-40C6-ABEA-8DD6EE64252D";
paths = (
{
closed = 1;
nodes = (
"902 420 LINE",
"902 708 LINE",
"42 708 LINE",
"42 420 LINE"
);
}
);
width = 966;
},
{
components = (
{
name = t;
transform = "{1, 0, 0, 1, 3, 0}";
}
);
layerId = "3FDD6C00-F7FD-4E85-84B0-0136AF7D7529";
paths = (
{
closed = 1;
nodes = (
"875 420 LINE",
"930 708 LINE",
"70 708 LINE",
"15 420 LINE"
);
}
);
width = 969;
},
{
components = (
{
name = t;
}
);
layerId = "2503C51C-5A6C-4B2C-A968-78FEA18C2585";
paths = (
{
closed = 1;
nodes = (
"654 765 LINE",
"659 793 LINE",
"119 793 LINE",
"113 765 LINE"
);
}
);
width = 733;
}
);
leftKerningGroup = t;
leftMetricsKey = t;
rightKerningGroup = t;
rightMetricsKey = t;
unicode = 0167;
},
{
glyphname = u;
lastChange = "2020-01-26 15:10:28 +0000";
layers = (
{
anchors = (
{
name = bottom;
position = "{505, 0}";
},
{
name = ogonek;
position = "{877, 0}";
},
{
name = top;
position = "{503, 1062}";
},
{
name = topright;
position = "{971, 1062}";
}
);
layerId = "A1A0948C-E637-4A65-8CCC-05505AD98C44";
paths = (
{
closed = 1;
nodes = (
"731 -15 OFFCURVE",
"874 199 OFFCURVE",
"874 367 CURVE",
"845 378 LINE",
"845 184 OFFCURVE",
"681 13 OFFCURVE",
"459 13 CURVE SMOOTH",
"216 13 OFFCURVE",
"167 204 OFFCURVE",
"167 395 CURVE SMOOTH",
"167 444 OFFCURVE",
"167 498 OFFCURVE",
"167 551 CURVE SMOOTH",
"167 1062 LINE",
"135 1062 LINE",
"135 557 LINE SMOOTH",
"135 503 OFFCURVE",
"135 446 OFFCURVE",
"135 395 CURVE SMOOTH",
"135 242 OFFCURVE",
"152 -15 OFFCURVE",
"461 -15 CURVE SMOOTH"
);
},
{
closed = 1;
nodes = (
"877 0 LINE",
"877 1062 LINE",
"845 1062 LINE",
"845 0 LINE"
);
}
);
width = 1080;
},
{
anchors = (
{
name = bottom;
position = "{653, 0}";
},
{
name = ogonek;
position = "{1221, 0}";
},
{
name = top;
position = "{653, 1062}";
},
{
name = topright;
position = "{1345, 1062}";
}
);
layerId = "584F9D0D-8480-40C6-ABEA-8DD6EE64252D";
paths = (
{
closed = 1;
nodes = (
"734 -11 OFFCURVE",
"896 159 OFFCURVE",
"896 450 CURVE",
"818 540 LINE",
"818 412 OFFCURVE",
"760 301 OFFCURVE",
"641 301 CURVE SMOOTH",
"521 301 OFFCURVE",
"502 396 OFFCURVE",
"502 520 CURVE SMOOTH",
"502 552 OFFCURVE",
"502 591 OFFCURVE",
"502 635 CURVE SMOOTH",
"502 1062 LINE",
"99 1062 LINE",
"99 567 LINE SMOOTH",
"99 511 OFFCURVE",
"99 458 OFFCURVE",
"99 411 CURVE SMOOTH",
"99 184 OFFCURVE",
"168 -11 OFFCURVE",
"466 -11 CURVE SMOOTH"
);
},
{
closed = 1;
nodes = (
"1221 0 LINE",
"1221 1062 LINE",
"818 1062 LINE",
"818 0 LINE"
);
}
);
width = 1365;
},
{
anchors = (
{
name = bottom;
position = "{535, 0}";
},
{
name = ogonek;
position = "{1099, 0}";
},
{
name = top;
position = "{771, 1062}";
},
{
name = topright;
position = "{1418, 1062}";
}
);
layerId = "3FDD6C00-F7FD-4E85-84B0-0136AF7D7529";
paths = (
{
closed = 1;
nodes = (
"611 -11 OFFCURVE",
"813 159 OFFCURVE",
"873 450 CURVE",
"812 540 LINE",
"784 412 OFFCURVE",
"700 301 OFFCURVE",
"583 301 CURVE SMOOTH",
"509 301 OFFCURVE",
"483 338 OFFCURVE",
"483 405 CURVE SMOOTH",
"483 437 OFFCURVE",
"489 476 OFFCURVE",
"499 520 CURVE SMOOTH",
"616 1062 LINE",
"213 1062 LINE",
"75 411 LINE SMOOTH",
"63 355 OFFCURVE",
"56 302 OFFCURVE",
"56 255 CURVE SMOOTH",
"56 92 OFFCURVE",
"135 -11 OFFCURVE",
"348 -11 CURVE SMOOTH"
);
},
{
closed = 1;
nodes = (
"1099 0 LINE",
"1325 1062 LINE",
"922 1062 LINE",
"696 0 LINE"
);
}
);
width = 1365;
},
{
anchors = (
{
name = bottom;
position = "{342, 0}";
},
{
name = ogonek;
position = "{751, 0}";
},
{
name = top;
position = "{614, 1062}";
},
{
name = topright;
position = "{1082, 1062}";
}
);
layerId = "2503C51C-5A6C-4B2C-A968-78FEA18C2585";
paths = (
{
closed = 1;
nodes = (
"610 -15 OFFCURVE",
"791 199 OFFCURVE",
"827 367 CURVE",
"800 378 LINE",
"759 184 OFFCURVE",
"560 13 OFFCURVE",
"340 13 CURVE SMOOTH",
"168 13 OFFCURVE",
"117 113 OFFCURVE",
"117 239 CURVE SMOOTH",
"117 288 OFFCURVE",
"125 342 OFFCURVE",
"136 395 CURVE SMOOTH",
"277 1062 LINE",
"245 1062 LINE",
"104 395 LINE SMOOTH",
"93 341 OFFCURVE",
"84 284 OFFCURVE",
"84 233 CURVE SMOOTH",
"84 97 OFFCURVE",
"140 -15 OFFCURVE",
"344 -15 CURVE SMOOTH"
);
},
{
closed = 1;
nodes = (
"751 0 LINE",
"976 1062 LINE",
"944 1062 LINE",
"719 0 LINE"
);
}
);
width = 1080;
}
);
leftKerningGroup = u;
note = u;
rightKerningGroup = l;
unicode = 0075;
},
{
glyphname = v;
lastChange = "2020-01-24 14:54:47 +0000";
layers = (
{
anchors = (
{
name = bottom;
position = "{449, 0}";
},
{
name = top;
position = "{449, 1062}";
}
);
layerId = "A1A0948C-E637-4A65-8CCC-05505AD98C44";
paths = (
{
closed = 1;
nodes = (
"775 1062 LINE",
"449 44 LINE",
"458 44 LINE",
"125 1062 LINE",
"92 1062 LINE",
"440 0 LINE",
"468 0 LINE",
"809 1062 LINE"
);
}
);
width = 954;
},
{
anchors = (
{
name = bottom;
position = "{633, 0}";
},
{
name = top;
position = "{633, 1062}";
}
);
layerId = "584F9D0D-8480-40C6-ABEA-8DD6EE64252D";
paths = (
{
closed = 1;
nodes = (
"782 1062 LINE",
"605 96 LINE",
"668 96 LINE",
"482 1062 LINE",
"66 1062 LINE",
"382 0 LINE",
"890 0 LINE",
"1199 1062 LINE"
);
}
);
width = 1266;
},
{
anchors = (
{
name = bottom;
position = "{520.132, 0}";
},
{
name = top;
position = "{745.868, 1062}";
}
);
layerId = "3FDD6C00-F7FD-4E85-84B0-0136AF7D7529";
paths = (
{
closed = 1;
nodes = (
"889 1062 LINE",
"506 96 LINE",
"569 96 LINE",
"587 1062 LINE",
"166 1062 LINE",
"268 0 LINE",
"777 0 LINE",
"1321 1062 LINE"
);
}
);
width = 1266;
},
{
anchors = (
{
name = bottom;
position = "{334, 0}";
},
{
name = top;
position = "{560, 1062}";
}
);
layerId = "2503C51C-5A6C-4B2C-A968-78FEA18C2585";
paths = (
{
closed = 1;
nodes = (
"883 1062 LINE",
"342 44 LINE",
"351 44 LINE",
"235 1062 LINE",
"201 1062 LINE",
"325 0 LINE",
"352 0 LINE",
"919 1062 LINE"
);
}
);
width = 954;
}
);
leftKerningGroup = v;
note = v;
rightKerningGroup = v;
unicode = 0076;
},
